%TF.GenerationSoftware,KiCad,Pcbnew,8.0.2*%
%TF.CreationDate,2024-12-06T21:47:17-05:00*%
%TF.ProjectId,ekg-main,656b672d-6d61-4696-9e2e-6b696361645f,rev?*%
%TF.SameCoordinates,Original*%
%TF.FileFunction,Copper,L1,Top*%
%TF.FilePolarity,Positive*%
%FSLAX46Y46*%
G04 Gerber Fmt 4.6, Leading zero omitted, Abs format (unit mm)*
G04 Created by KiCad (PCBNEW 8.0.2) date 2024-12-06 21:47:17*
%MOMM*%
%LPD*%
G01*
G04 APERTURE LIST*
G04 Aperture macros list*
%AMRoundRect*
0 Rectangle with rounded corners*
0 $1 Rounding radius*
0 $2 $3 $4 $5 $6 $7 $8 $9 X,Y pos of 4 corners*
0 Add a 4 corners polygon primitive as box body*
4,1,4,$2,$3,$4,$5,$6,$7,$8,$9,$2,$3,0*
0 Add four circle primitives for the rounded corners*
1,1,$1+$1,$2,$3*
1,1,$1+$1,$4,$5*
1,1,$1+$1,$6,$7*
1,1,$1+$1,$8,$9*
0 Add four rect primitives between the rounded corners*
20,1,$1+$1,$2,$3,$4,$5,0*
20,1,$1+$1,$4,$5,$6,$7,0*
20,1,$1+$1,$6,$7,$8,$9,0*
20,1,$1+$1,$8,$9,$2,$3,0*%
%AMHorizOval*
0 Thick line with rounded ends*
0 $1 width*
0 $2 $3 position (X,Y) of the first rounded end (center of the circle)*
0 $4 $5 position (X,Y) of the second rounded end (center of the circle)*
0 Add line between two ends*
20,1,$1,$2,$3,$4,$5,0*
0 Add two circle primitives to create the rounded ends*
1,1,$1,$2,$3*
1,1,$1,$4,$5*%
%AMRotRect*
0 Rectangle, with rotation*
0 The origin of the aperture is its center*
0 $1 length*
0 $2 width*
0 $3 Rotation angle, in degrees counterclockwise*
0 Add horizontal line*
21,1,$1,$2,0,0,$3*%
G04 Aperture macros list end*
%TA.AperFunction,SMDPad,CuDef*%
%ADD10RoundRect,0.250000X-1.000000X-0.900000X1.000000X-0.900000X1.000000X0.900000X-1.000000X0.900000X0*%
%TD*%
%TA.AperFunction,SMDPad,CuDef*%
%ADD11RoundRect,0.135000X0.135000X0.185000X-0.135000X0.185000X-0.135000X-0.185000X0.135000X-0.185000X0*%
%TD*%
%TA.AperFunction,ComponentPad*%
%ADD12RotRect,3.500000X3.500000X135.000000*%
%TD*%
%TA.AperFunction,ComponentPad*%
%ADD13RoundRect,0.750000X1.237437X0.176777X0.176777X1.237437X-1.237437X-0.176777X-0.176777X-1.237437X0*%
%TD*%
%TA.AperFunction,ComponentPad*%
%ADD14RoundRect,0.875000X1.237437X0.000000X0.000000X1.237437X-1.237437X0.000000X0.000000X-1.237437X0*%
%TD*%
%TA.AperFunction,SMDPad,CuDef*%
%ADD15RoundRect,0.140000X-0.140000X-0.170000X0.140000X-0.170000X0.140000X0.170000X-0.140000X0.170000X0*%
%TD*%
%TA.AperFunction,SMDPad,CuDef*%
%ADD16RoundRect,0.135000X-0.135000X-0.185000X0.135000X-0.185000X0.135000X0.185000X-0.135000X0.185000X0*%
%TD*%
%TA.AperFunction,SMDPad,CuDef*%
%ADD17RoundRect,0.150000X-0.150000X0.825000X-0.150000X-0.825000X0.150000X-0.825000X0.150000X0.825000X0*%
%TD*%
%TA.AperFunction,ComponentPad*%
%ADD18RotRect,1.700000X1.700000X45.000000*%
%TD*%
%TA.AperFunction,ComponentPad*%
%ADD19HorizOval,1.700000X0.000000X0.000000X0.000000X0.000000X0*%
%TD*%
%TA.AperFunction,ComponentPad*%
%ADD20C,1.400000*%
%TD*%
%TA.AperFunction,SMDPad,CuDef*%
%ADD21RoundRect,0.140000X0.140000X0.170000X-0.140000X0.170000X-0.140000X-0.170000X0.140000X-0.170000X0*%
%TD*%
%TA.AperFunction,SMDPad,CuDef*%
%ADD22RoundRect,0.135000X0.185000X-0.135000X0.185000X0.135000X-0.185000X0.135000X-0.185000X-0.135000X0*%
%TD*%
%TA.AperFunction,SMDPad,CuDef*%
%ADD23RotRect,2.510000X1.000000X315.000000*%
%TD*%
%TA.AperFunction,SMDPad,CuDef*%
%ADD24RoundRect,0.140000X0.170000X-0.140000X0.170000X0.140000X-0.170000X0.140000X-0.170000X-0.140000X0*%
%TD*%
%TA.AperFunction,SMDPad,CuDef*%
%ADD25RotRect,1.500000X0.900000X135.000000*%
%TD*%
%TA.AperFunction,SMDPad,CuDef*%
%ADD26RotRect,1.500000X0.900000X225.000000*%
%TD*%
%TA.AperFunction,HeatsinkPad*%
%ADD27C,0.600000*%
%TD*%
%TA.AperFunction,SMDPad,CuDef*%
%ADD28RotRect,1.050000X1.050000X135.000000*%
%TD*%
%TA.AperFunction,SMDPad,CuDef*%
%ADD29RotRect,4.200000X4.200000X135.000000*%
%TD*%
%TA.AperFunction,SMDPad,CuDef*%
%ADD30R,0.900000X0.400000*%
%TD*%
%TA.AperFunction,SMDPad,CuDef*%
%ADD31RoundRect,0.135000X-0.185000X0.135000X-0.185000X-0.135000X0.185000X-0.135000X0.185000X0.135000X0*%
%TD*%
%TA.AperFunction,SMDPad,CuDef*%
%ADD32RotRect,3.150000X1.000000X315.000000*%
%TD*%
%TA.AperFunction,SMDPad,CuDef*%
%ADD33R,2.750000X1.000000*%
%TD*%
%TA.AperFunction,SMDPad,CuDef*%
%ADD34RoundRect,0.140000X-0.170000X0.140000X-0.170000X-0.140000X0.170000X-0.140000X0.170000X0.140000X0*%
%TD*%
%TA.AperFunction,SMDPad,CuDef*%
%ADD35RotRect,2.510000X1.000000X135.000000*%
%TD*%
%TA.AperFunction,SMDPad,CuDef*%
%ADD36RoundRect,0.250000X-0.550000X1.500000X-0.550000X-1.500000X0.550000X-1.500000X0.550000X1.500000X0*%
%TD*%
%TA.AperFunction,SMDPad,CuDef*%
%ADD37R,1.700000X5.700000*%
%TD*%
%TA.AperFunction,ComponentPad*%
%ADD38RoundRect,0.250001X0.183848X-0.890953X0.890953X-0.183848X-0.183848X0.890953X-0.890953X0.183848X0*%
%TD*%
%TA.AperFunction,ComponentPad*%
%ADD39HorizOval,1.500000X-0.183848X0.183848X0.183848X-0.183848X0*%
%TD*%
%TA.AperFunction,SMDPad,CuDef*%
%ADD40RoundRect,0.032500X-0.387500X-0.097500X0.387500X-0.097500X0.387500X0.097500X-0.387500X0.097500X0*%
%TD*%
%TA.AperFunction,SMDPad,CuDef*%
%ADD41RoundRect,0.032500X-0.097500X-0.387500X0.097500X-0.387500X0.097500X0.387500X-0.097500X0.387500X0*%
%TD*%
%TA.AperFunction,SMDPad,CuDef*%
%ADD42R,2.630000X2.630000*%
%TD*%
%TA.AperFunction,ComponentPad*%
%ADD43R,1.700000X1.700000*%
%TD*%
%TA.AperFunction,ComponentPad*%
%ADD44O,1.700000X1.700000*%
%TD*%
%TA.AperFunction,SMDPad,CuDef*%
%ADD45RoundRect,0.150000X0.587500X0.150000X-0.587500X0.150000X-0.587500X-0.150000X0.587500X-0.150000X0*%
%TD*%
%TA.AperFunction,SMDPad,CuDef*%
%ADD46RoundRect,0.250000X1.500000X0.550000X-1.500000X0.550000X-1.500000X-0.550000X1.500000X-0.550000X0*%
%TD*%
%TA.AperFunction,SMDPad,CuDef*%
%ADD47RotRect,3.500000X3.800000X135.000000*%
%TD*%
%TA.AperFunction,SMDPad,CuDef*%
%ADD48RotRect,4.300000X2.800000X135.000000*%
%TD*%
%TA.AperFunction,ViaPad*%
%ADD49C,0.600000*%
%TD*%
%TA.AperFunction,Conductor*%
%ADD50C,0.400000*%
%TD*%
%TA.AperFunction,Conductor*%
%ADD51C,0.200000*%
%TD*%
G04 APERTURE END LIST*
D10*
%TO.P,D2,1,K*%
%TO.N,/power/5v_sw*%
X247500000Y-98500000D03*
%TO.P,D2,2,A*%
%TO.N,GND*%
X251800000Y-98500000D03*
%TD*%
D11*
%TO.P,R7,1*%
%TO.N,Net-(R7-Pad1)*%
X188810000Y-65400000D03*
%TO.P,R7,2*%
%TO.N,/ekg/RL*%
X187790000Y-65400000D03*
%TD*%
D12*
%TO.P,J6,1*%
%TO.N,/power/hv*%
X248757359Y-105507359D03*
D13*
%TO.P,J6,2*%
%TO.N,GND*%
X253000000Y-109750000D03*
D14*
%TO.P,J6,3*%
%TO.N,N/C*%
X254202081Y-104305277D03*
%TD*%
D15*
%TO.P,C16,1*%
%TO.N,PP_3V3_MAIN*%
X239770000Y-94750000D03*
%TO.P,C16,2*%
%TO.N,GND*%
X240730000Y-94750000D03*
%TD*%
D16*
%TO.P,R3,1*%
%TO.N,/ekg/LA*%
X189700000Y-61500000D03*
%TO.P,R3,2*%
%TO.N,Net-(U2-+IN)*%
X190720000Y-61500000D03*
%TD*%
D17*
%TO.P,U4,1,NC*%
%TO.N,GND*%
X243630000Y-96680000D03*
%TO.P,U4,2,NC*%
X242360000Y-96680000D03*
%TO.P,U4,3,NC*%
X241090000Y-96680000D03*
%TO.P,U4,4,FB*%
%TO.N,PP_3V3_MAIN*%
X239820000Y-96680000D03*
%TO.P,U4,5,~{ON}/OFF*%
%TO.N,/power/5v_en*%
X239820000Y-101630000D03*
%TO.P,U4,6,GND*%
%TO.N,GND*%
X241090000Y-101630000D03*
%TO.P,U4,7,VIN*%
%TO.N,/power/hv*%
X242360000Y-101630000D03*
%TO.P,U4,8,OUT*%
%TO.N,/power/5v_sw*%
X243630000Y-101630000D03*
%TD*%
D11*
%TO.P,R11,1*%
%TO.N,Net-(R10-Pad2)*%
X195010000Y-71000000D03*
%TO.P,R11,2*%
%TO.N,/ekg/sw*%
X193990000Y-71000000D03*
%TD*%
D18*
%TO.P,JP1,1,A*%
%TO.N,GND*%
X260703949Y-104703949D03*
D19*
%TO.P,JP1,2,B*%
%TO.N,Net-(JP1-B)*%
X262500000Y-106500000D03*
%TD*%
D20*
%TO.P,TP5,1,1*%
%TO.N,GND*%
X166230000Y-67500000D03*
X168770000Y-67500000D03*
%TD*%
D21*
%TO.P,R1,1*%
%TO.N,/control/EN*%
X187480000Y-83500000D03*
%TO.P,R1,2*%
%TO.N,Net-(C3-Pad1)*%
X186520000Y-83500000D03*
%TD*%
D22*
%TO.P,R13,1*%
%TO.N,/ekg/oa-*%
X199000000Y-67010000D03*
%TO.P,R13,2*%
%TO.N,/ekg/out*%
X199000000Y-65990000D03*
%TD*%
D15*
%TO.P,C15,1*%
%TO.N,/power/hv*%
X242270000Y-103500000D03*
%TO.P,C15,2*%
%TO.N,GND*%
X243230000Y-103500000D03*
%TD*%
D20*
%TO.P,TP4,1,1*%
%TO.N,/ekg/out*%
X201730000Y-66000000D03*
X204270000Y-66000000D03*
%TD*%
%TO.P,TP8,1,1*%
%TO.N,GND*%
X166230000Y-92500000D03*
X168770000Y-92500000D03*
%TD*%
D23*
%TO.P,J5,1,Pin_1*%
%TO.N,/control/sda*%
X231319866Y-131339610D03*
%TO.P,J5,2,Pin_2*%
%TO.N,/control/scl*%
X231864339Y-135476185D03*
%TO.P,J5,3,Pin_3*%
%TO.N,PP_3V3_MAIN*%
X227727764Y-134931713D03*
%TO.P,J5,4,Pin_4*%
%TO.N,GND*%
X228272236Y-139068287D03*
%TO.P,J5,5,Pin_5*%
%TO.N,unconnected-(J5-Pin_5-Pad5)*%
X224135661Y-138523815D03*
%TO.P,J5,6,Pin_6*%
%TO.N,unconnected-(J5-Pin_6-Pad6)*%
X224680134Y-142660390D03*
%TD*%
D21*
%TO.P,C7,1*%
%TO.N,Net-(U2-RLDFB)*%
X191780000Y-64300000D03*
%TO.P,C7,2*%
%TO.N,Net-(U2-RLD)*%
X190820000Y-64300000D03*
%TD*%
D11*
%TO.P,R9,1*%
%TO.N,/ekg/hpsense*%
X194020000Y-58500000D03*
%TO.P,R9,2*%
%TO.N,Net-(R10-Pad2)*%
X193000000Y-58500000D03*
%TD*%
D15*
%TO.P,C4,1*%
%TO.N,Net-(C4-Pad1)*%
X186520000Y-90500000D03*
%TO.P,C4,2*%
%TO.N,GND*%
X187480000Y-90500000D03*
%TD*%
D24*
%TO.P,C13,1*%
%TO.N,PP_3V3_MAIN*%
X199000000Y-61480000D03*
%TO.P,C13,2*%
%TO.N,GND*%
X199000000Y-60520000D03*
%TD*%
D16*
%TO.P,R17,1*%
%TO.N,/ekg/oa+*%
X193990000Y-69000000D03*
%TO.P,R17,2*%
%TO.N,Net-(C10-Pad1)*%
X195010000Y-69000000D03*
%TD*%
D15*
%TO.P,C11,1*%
%TO.N,/ekg/oa+*%
X196020000Y-70000000D03*
%TO.P,C11,2*%
%TO.N,/ekg/refout*%
X196980000Y-70000000D03*
%TD*%
D20*
%TO.P,TP6,1,1*%
%TO.N,GND*%
X166230000Y-75833333D03*
X168770000Y-75833333D03*
%TD*%
D25*
%TO.P,U1,1,GND*%
%TO.N,GND*%
X203633694Y-125857346D03*
%TO.P,U1,2,VDD*%
%TO.N,PP_3V3_MAIN*%
X204531720Y-124959321D03*
%TO.P,U1,3,EN*%
%TO.N,/control/EN*%
X205429746Y-124061295D03*
%TO.P,U1,4,SENSOR_VP*%
%TO.N,unconnected-(U1-SENSOR_VP-Pad4)*%
X206327771Y-123163269D03*
%TO.P,U1,5,SENSOR_VN*%
%TO.N,unconnected-(U1-SENSOR_VN-Pad5)*%
X207225797Y-122265244D03*
%TO.P,U1,6,IO34*%
%TO.N,unconnected-(U1-IO34-Pad6)*%
X208123822Y-121367218D03*
%TO.P,U1,7,IO35*%
%TO.N,unconnected-(U1-IO35-Pad7)*%
X209021848Y-120469193D03*
%TO.P,U1,8,IO32*%
%TO.N,unconnected-(U1-IO32-Pad8)*%
X209919874Y-119571167D03*
%TO.P,U1,9,IO33*%
%TO.N,unconnected-(U1-IO33-Pad9)*%
X210817899Y-118673141D03*
%TO.P,U1,10,IO25*%
%TO.N,/control/sda*%
X211715925Y-117775116D03*
%TO.P,U1,11,IO26*%
%TO.N,/control/scl*%
X212613951Y-116877090D03*
%TO.P,U1,12,IO27*%
%TO.N,unconnected-(U1-IO27-Pad12)*%
X213511976Y-115979065D03*
%TO.P,U1,13,IO14*%
%TO.N,/control/mtms*%
X214410002Y-115081039D03*
%TO.P,U1,14,IO12*%
%TO.N,/control/mtdi*%
X215308027Y-114183013D03*
D26*
%TO.P,U1,15,GND*%
%TO.N,GND*%
X214042306Y-111149525D03*
%TO.P,U1,16,IO13*%
%TO.N,/control/mtck*%
X213144281Y-110251500D03*
%TO.P,U1,17,SHD/SD2*%
%TO.N,unconnected-(U1-SHD{slash}SD2-Pad17)*%
X212246255Y-109353474D03*
%TO.P,U1,18,SWP/SD3*%
%TO.N,unconnected-(U1-SWP{slash}SD3-Pad18)*%
X211348229Y-108455448D03*
%TO.P,U1,19,SCS/CMD*%
%TO.N,unconnected-(U1-SCS{slash}CMD-Pad19)*%
X210450204Y-107557423D03*
%TO.P,U1,20,SCK/CLK*%
%TO.N,unconnected-(U1-SCK{slash}CLK-Pad20)*%
X209552178Y-106659397D03*
%TO.P,U1,21,SDO/SD0*%
%TO.N,unconnected-(U1-SDO{slash}SD0-Pad21)*%
X208654153Y-105761372D03*
%TO.P,U1,22,SDI/SD1*%
%TO.N,unconnected-(U1-SDI{slash}SD1-Pad22)*%
X207756127Y-104863346D03*
%TO.P,U1,23,IO15*%
%TO.N,/control/mtdo*%
X206858101Y-103965320D03*
%TO.P,U1,24,IO2*%
%TO.N,/control/boot1*%
X205960076Y-103067295D03*
D25*
%TO.P,U1,25,IO0*%
%TO.N,/control/boot0*%
X202933659Y-101808645D03*
%TO.P,U1,26,IO4*%
%TO.N,/ekg/out*%
X202035633Y-102706670D03*
%TO.P,U1,27,IO16*%
%TO.N,/control/lod+*%
X201137607Y-103604696D03*
%TO.P,U1,28,IO17*%
%TO.N,/control/lod-*%
X200239582Y-104502721D03*
%TO.P,U1,29,IO5*%
%TO.N,/control/~{sdn}*%
X199341556Y-105400747D03*
%TO.P,U1,30,IO18*%
%TO.N,unconnected-(U1-IO18-Pad30)*%
X198443531Y-106298773D03*
%TO.P,U1,31,IO19*%
%TO.N,unconnected-(U1-IO19-Pad31)*%
X197545505Y-107196798D03*
%TO.P,U1,32,NC*%
%TO.N,unconnected-(U1-NC-Pad32)*%
X196647479Y-108094824D03*
%TO.P,U1,33,IO21*%
%TO.N,unconnected-(U1-IO21-Pad33)*%
X195749454Y-108992850D03*
%TO.P,U1,34,RXD0/IO3*%
%TO.N,unconnected-(U1-RXD0{slash}IO3-Pad34)*%
X194851428Y-109890875D03*
%TO.P,U1,35,TXD0/IO1*%
%TO.N,unconnected-(U1-TXD0{slash}IO1-Pad35)*%
X193953403Y-110788901D03*
%TO.P,U1,36,IO22*%
%TO.N,unconnected-(U1-IO22-Pad36)*%
X193055377Y-111686926D03*
%TO.P,U1,37,IO23*%
%TO.N,unconnected-(U1-IO23-Pad37)*%
X192157351Y-112584952D03*
%TO.P,U1,38,GND*%
%TO.N,GND*%
X191259326Y-113482978D03*
D27*
%TO.P,U1,39,GND*%
X203656675Y-116578338D03*
D28*
X204195844Y-116039169D03*
D27*
X204735013Y-115500000D03*
D28*
X205274182Y-114960831D03*
X203117506Y-117117506D03*
D27*
X202578338Y-116578338D03*
X203656675Y-115500000D03*
X204735013Y-114421662D03*
D28*
X202039169Y-116039169D03*
D27*
X202578338Y-115500000D03*
D28*
X203117506Y-114960831D03*
D29*
X203117506Y-114960831D03*
D27*
X203656675Y-114421662D03*
D28*
X204195844Y-113882493D03*
D27*
X201500000Y-115500000D03*
X202578338Y-114421662D03*
X203656675Y-113343324D03*
D28*
X200960831Y-114960831D03*
D27*
X201500000Y-114421662D03*
D28*
X202039169Y-113882493D03*
D27*
X202578338Y-113343324D03*
D28*
X203117506Y-112804155D03*
%TD*%
D11*
%TO.P,R10,1*%
%TO.N,/ekg/iaout*%
X197000000Y-71000000D03*
%TO.P,R10,2*%
%TO.N,Net-(R10-Pad2)*%
X195980000Y-71000000D03*
%TD*%
D30*
%TO.P,RN1,1,R1.1*%
%TO.N,Net-(J2-Pin_2)*%
X228700000Y-117450000D03*
%TO.P,RN1,2,R2.1*%
%TO.N,Net-(J2-Pin_3)*%
X228700000Y-116650000D03*
%TO.P,RN1,3,R3.1*%
%TO.N,Net-(J2-Pin_4)*%
X228700000Y-115850000D03*
%TO.P,RN1,4,R4.1*%
%TO.N,Net-(J2-Pin_5)*%
X228700000Y-115050000D03*
%TO.P,RN1,5,R4.2*%
%TO.N,/control/mtdo*%
X227000000Y-115050000D03*
%TO.P,RN1,6,R3.2*%
%TO.N,/control/mtck*%
X227000000Y-115850000D03*
%TO.P,RN1,7,R2.2*%
%TO.N,/control/mtdi*%
X227000000Y-116650000D03*
%TO.P,RN1,8,R1.2*%
%TO.N,/control/mtms*%
X227000000Y-117450000D03*
%TD*%
D21*
%TO.P,C5,1*%
%TO.N,Net-(BT1-Pad+)*%
X224750000Y-87250000D03*
%TO.P,C5,2*%
%TO.N,GND*%
X223790000Y-87250000D03*
%TD*%
D16*
%TO.P,R5,1*%
%TO.N,/ekg/LA*%
X182490000Y-54200000D03*
%TO.P,R5,2*%
%TO.N,PP_3V3_MAIN*%
X183510000Y-54200000D03*
%TD*%
D31*
%TO.P,R19,1*%
%TO.N,/power/5v_en*%
X237760000Y-101240000D03*
%TO.P,R19,2*%
%TO.N,GND*%
X237760000Y-102260000D03*
%TD*%
D20*
%TO.P,TP1,1,1*%
%TO.N,/ekg/RL*%
X183730000Y-67500000D03*
X186270000Y-67500000D03*
%TD*%
D32*
%TO.P,J1,1,Pin_1*%
%TO.N,PP_3V3_MAIN*%
X212000000Y-92000000D03*
%TO.P,J1,2,Pin_2*%
X215570889Y-95570889D03*
%TO.P,J1,3,Pin_3*%
%TO.N,/control/boot0*%
X210203948Y-93796051D03*
%TO.P,J1,4,Pin_4*%
%TO.N,/control/boot1*%
X213774838Y-97366941D03*
%TO.P,J1,5,Pin_5*%
%TO.N,GND*%
X208407897Y-95592103D03*
%TO.P,J1,6,Pin_6*%
X211978786Y-99162992D03*
%TD*%
D33*
%TO.P,SW1,1,1*%
%TO.N,Net-(C3-Pad1)*%
X178120000Y-82000000D03*
X183880000Y-82000000D03*
%TO.P,SW1,2,2*%
%TO.N,GND*%
X178120000Y-86000000D03*
X183880000Y-86000000D03*
%TD*%
D20*
%TO.P,TP7,1,1*%
%TO.N,GND*%
X166230000Y-84166666D03*
X168770000Y-84166666D03*
%TD*%
D31*
%TO.P,R16,1*%
%TO.N,GND*%
X200000000Y-60490000D03*
%TO.P,R16,2*%
%TO.N,PP_3V3_MAIN*%
X200000000Y-61510000D03*
%TD*%
D11*
%TO.P,R15,1*%
%TO.N,GND*%
X198500000Y-59500000D03*
%TO.P,R15,2*%
%TO.N,/ekg/reflin*%
X197480000Y-59500000D03*
%TD*%
D34*
%TO.P,C9,1*%
%TO.N,/ekg/refout*%
X199000000Y-70020000D03*
%TO.P,C9,2*%
%TO.N,/ekg/sw*%
X199000000Y-70980000D03*
%TD*%
D35*
%TO.P,J2,1,Pin_1*%
%TO.N,PP_3V3_MAIN*%
X238044473Y-129160390D03*
%TO.P,J2,2,Pin_2*%
%TO.N,Net-(J2-Pin_2)*%
X237500000Y-125023815D03*
%TO.P,J2,3,Pin_3*%
%TO.N,Net-(J2-Pin_3)*%
X241636575Y-125568287D03*
%TO.P,J2,4,Pin_4*%
%TO.N,Net-(J2-Pin_4)*%
X241092103Y-121431713D03*
%TO.P,J2,5,Pin_5*%
%TO.N,Net-(J2-Pin_5)*%
X245228678Y-121976185D03*
%TO.P,J2,6,Pin_6*%
%TO.N,GND*%
X244684205Y-117839610D03*
%TD*%
D36*
%TO.P,C14,1*%
%TO.N,/power/hv*%
X240500000Y-106050000D03*
%TO.P,C14,2*%
%TO.N,GND*%
X240500000Y-111450000D03*
%TD*%
D37*
%TO.P,L1,1,1*%
%TO.N,/power/5v_sw*%
X244250000Y-90750000D03*
%TO.P,L1,2,2*%
%TO.N,PP_3V3_MAIN*%
X239750000Y-90750000D03*
%TD*%
D38*
%TO.P,J4,1,Pin_1*%
%TO.N,/ekg/RL*%
X174685894Y-61428534D03*
D39*
%TO.P,J4,2,Pin_2*%
%TO.N,/ekg/RA*%
X176807214Y-59307214D03*
%TO.P,J4,3,Pin_3*%
%TO.N,/ekg/LA*%
X178928535Y-57185893D03*
%TD*%
D40*
%TO.P,U2,1,HPDRIVE*%
%TO.N,Net-(U2-HPDRIVE)*%
X193065000Y-62435000D03*
%TO.P,U2,2,+IN*%
%TO.N,Net-(U2-+IN)*%
X193065000Y-62935000D03*
%TO.P,U2,3,-IN*%
%TO.N,Net-(U2--IN)*%
X193065000Y-63435000D03*
%TO.P,U2,4,RLDFB*%
%TO.N,Net-(U2-RLDFB)*%
X193065000Y-63935000D03*
%TO.P,U2,5,RLD*%
%TO.N,Net-(U2-RLD)*%
X193065000Y-64435000D03*
D41*
%TO.P,U2,6,SW*%
%TO.N,/ekg/sw*%
X194000000Y-65370000D03*
%TO.P,U2,7,OPAMP+*%
%TO.N,/ekg/oa+*%
X194500000Y-65370000D03*
%TO.P,U2,8,REFOUT*%
%TO.N,/ekg/refout*%
X195000000Y-65370000D03*
%TO.P,U2,9,OPAMP-*%
%TO.N,/ekg/oa-*%
X195500000Y-65370000D03*
%TO.P,U2,10,OUT*%
%TO.N,/ekg/out*%
X196000000Y-65370000D03*
D40*
%TO.P,U2,11,LOD-*%
%TO.N,/control/lod-*%
X196935000Y-64435000D03*
%TO.P,U2,12,LOD+*%
%TO.N,/control/lod+*%
X196935000Y-63935000D03*
%TO.P,U2,13,SDN*%
%TO.N,/control/~{sdn}*%
X196935000Y-63435000D03*
%TO.P,U2,14,AC/DC*%
%TO.N,GND*%
X196935000Y-62935000D03*
%TO.P,U2,15,FR*%
%TO.N,PP_3V3_MAIN*%
X196935000Y-62435000D03*
D41*
%TO.P,U2,16,GND*%
%TO.N,GND*%
X196000000Y-61500000D03*
%TO.P,U2,17,+VS*%
%TO.N,PP_3V3_MAIN*%
X195500000Y-61500000D03*
%TO.P,U2,18,REFIN*%
%TO.N,/ekg/reflin*%
X195000000Y-61500000D03*
%TO.P,U2,19,IAOUT*%
%TO.N,/ekg/iaout*%
X194500000Y-61500000D03*
%TO.P,U2,20,HPSENSE*%
%TO.N,/ekg/hpsense*%
X194000000Y-61500000D03*
D42*
%TO.P,U2,21*%
%TO.N,N/C*%
X195000000Y-63435000D03*
%TD*%
D15*
%TO.P,C8,1*%
%TO.N,Net-(U2-HPDRIVE)*%
X193020000Y-59500000D03*
%TO.P,C8,2*%
%TO.N,/ekg/hpsense*%
X193980000Y-59500000D03*
%TD*%
D11*
%TO.P,R8,1*%
%TO.N,Net-(U2-RLD)*%
X190810000Y-65400000D03*
%TO.P,R8,2*%
%TO.N,Net-(R7-Pad1)*%
X189790000Y-65400000D03*
%TD*%
D16*
%TO.P,R6,1*%
%TO.N,/ekg/RA*%
X182490000Y-53000000D03*
%TO.P,R6,2*%
%TO.N,PP_3V3_MAIN*%
X183510000Y-53000000D03*
%TD*%
D43*
%TO.P,J3,1,Pin_1*%
%TO.N,Net-(J3-Pin_1)*%
X223225000Y-95500000D03*
D44*
%TO.P,J3,2,Pin_2*%
%TO.N,GND*%
X225765000Y-95500000D03*
%TD*%
D16*
%TO.P,R4,1*%
%TO.N,/ekg/RA*%
X189750000Y-63250000D03*
%TO.P,R4,2*%
%TO.N,Net-(U2--IN)*%
X190770000Y-63250000D03*
%TD*%
D45*
%TO.P,D1,1*%
%TO.N,Net-(J3-Pin_1)*%
X223500000Y-90650000D03*
%TO.P,D1,2*%
%TO.N,Net-(BT1-Pad+)*%
X223500000Y-88750000D03*
%TO.P,D1,3*%
%TO.N,PP_3V3_MAIN*%
X221625000Y-89700000D03*
%TD*%
D21*
%TO.P,R2,1*%
%TO.N,/control/boot0*%
X187480000Y-92000000D03*
%TO.P,R2,2*%
%TO.N,Net-(C4-Pad1)*%
X186520000Y-92000000D03*
%TD*%
D46*
%TO.P,C17,1*%
%TO.N,PP_3V3_MAIN*%
X236150000Y-96750000D03*
%TO.P,C17,2*%
%TO.N,GND*%
X230750000Y-96750000D03*
%TD*%
D20*
%TO.P,TP2,1,1*%
%TO.N,/ekg/RA*%
X186270000Y-48500000D03*
X183730000Y-48500000D03*
%TD*%
D15*
%TO.P,C10,1*%
%TO.N,Net-(C10-Pad1)*%
X196000000Y-68000000D03*
%TO.P,C10,2*%
%TO.N,/ekg/out*%
X196960000Y-68000000D03*
%TD*%
%TO.P,C3,1*%
%TO.N,Net-(C3-Pad1)*%
X186520000Y-82000000D03*
%TO.P,C3,2*%
%TO.N,GND*%
X187480000Y-82000000D03*
%TD*%
%TO.P,C12,1*%
%TO.N,/ekg/reflin*%
X197500000Y-58500000D03*
%TO.P,C12,2*%
%TO.N,GND*%
X198460000Y-58500000D03*
%TD*%
%TO.P,C1,1*%
%TO.N,GND*%
X205520000Y-127000000D03*
%TO.P,C1,2*%
%TO.N,PP_3V3_MAIN*%
X206480000Y-127000000D03*
%TD*%
D47*
%TO.P,BT1,+,+*%
%TO.N,Net-(BT1-Pad+)*%
X254085072Y-82085072D03*
D48*
%TO.P,BT1,-,-*%
%TO.N,Net-(JP1-B)*%
X269500000Y-97500000D03*
%TD*%
D20*
%TO.P,TP3,1,1*%
%TO.N,/ekg/LA*%
X183730000Y-58000000D03*
X186270000Y-58000000D03*
%TD*%
D15*
%TO.P,C6,1*%
%TO.N,Net-(J3-Pin_1)*%
X223520000Y-92750000D03*
%TO.P,C6,2*%
%TO.N,GND*%
X224480000Y-92750000D03*
%TD*%
%TO.P,C2,1*%
%TO.N,GND*%
X206520000Y-128000000D03*
%TO.P,C2,2*%
%TO.N,PP_3V3_MAIN*%
X207480000Y-128000000D03*
%TD*%
D22*
%TO.P,R18,1*%
%TO.N,/control/~{sdn}*%
X200000000Y-63510000D03*
%TO.P,R18,2*%
%TO.N,GND*%
X200000000Y-62490000D03*
%TD*%
D11*
%TO.P,R12,1*%
%TO.N,/ekg/iaout*%
X197000000Y-69000000D03*
%TO.P,R12,2*%
%TO.N,Net-(C10-Pad1)*%
X195980000Y-69000000D03*
%TD*%
D22*
%TO.P,R14,1*%
%TO.N,/ekg/refout*%
X199000000Y-69010000D03*
%TO.P,R14,2*%
%TO.N,/ekg/oa-*%
X199000000Y-67990000D03*
%TD*%
D33*
%TO.P,SW2,1,1*%
%TO.N,Net-(C4-Pad1)*%
X178120000Y-90350000D03*
X183880000Y-90350000D03*
%TO.P,SW2,2,2*%
%TO.N,GND*%
X178120000Y-94350000D03*
X183880000Y-94350000D03*
%TD*%
D49*
%TO.N,GND*%
X182000000Y-58000000D03*
X182000000Y-62400000D03*
X182000000Y-64400000D03*
X215000000Y-124800000D03*
%TO.N,PP_3V3_MAIN*%
X219287500Y-92037500D03*
X198000000Y-62000000D03*
X196000000Y-60500000D03*
X217912500Y-93412500D03*
X212000000Y-128000000D03*
%TO.N,GND*%
X194250000Y-56000000D03*
X207250000Y-77000000D03*
X202400000Y-88200000D03*
X201130000Y-81000000D03*
X201130000Y-79400000D03*
X202400000Y-85000000D03*
X202000000Y-62500000D03*
X188250000Y-77000000D03*
X202400000Y-96200000D03*
X202400000Y-91400000D03*
X202400000Y-75400000D03*
X202400000Y-73800000D03*
X202400000Y-72200000D03*
X202400000Y-97800000D03*
X201130000Y-95400000D03*
X201130000Y-76200000D03*
X186250000Y-62500000D03*
X207250000Y-69000000D03*
X201130000Y-98600000D03*
X201130000Y-85800000D03*
X206500000Y-62500000D03*
X201130000Y-97000000D03*
X205250000Y-77000000D03*
X201130000Y-73000000D03*
X202400000Y-77000000D03*
X201130000Y-89000000D03*
X207250000Y-75000000D03*
X196250000Y-56000000D03*
X204250000Y-56000000D03*
X186250000Y-71000000D03*
X202400000Y-94600000D03*
X201130000Y-84200000D03*
X202400000Y-89800000D03*
X192250000Y-77000000D03*
X211000000Y-60500000D03*
X201130000Y-87400000D03*
X207250000Y-71000000D03*
X202400000Y-86600000D03*
X202250000Y-56000000D03*
X192800000Y-66200000D03*
X202400000Y-80200000D03*
X201130000Y-93800000D03*
X201130000Y-69800000D03*
X202400000Y-69000000D03*
X201130000Y-71400000D03*
X202000000Y-60500000D03*
X202400000Y-81800000D03*
X202400000Y-93000000D03*
X186250000Y-75000000D03*
X202400000Y-70600000D03*
X190250000Y-77000000D03*
X201130000Y-92200000D03*
X202400000Y-83400000D03*
X188250000Y-56000000D03*
X201130000Y-68200000D03*
X186250000Y-60250000D03*
X206500000Y-60500000D03*
X200250000Y-56000000D03*
X192250000Y-56000000D03*
X211000000Y-62500000D03*
X194250000Y-77000000D03*
X201130000Y-82600000D03*
X201130000Y-90600000D03*
X186250000Y-56000000D03*
X207250000Y-73000000D03*
X186250000Y-77000000D03*
X198250000Y-56000000D03*
X186250000Y-64250000D03*
X186250000Y-73000000D03*
X201130000Y-77800000D03*
X202400000Y-99400000D03*
X197000000Y-61500000D03*
X190250000Y-56000000D03*
X201130000Y-74600000D03*
%TO.N,/ekg/hpsense*%
X194000000Y-60000000D03*
%TO.N,/ekg/refout*%
X198000000Y-68000000D03*
X195000000Y-67500000D03*
%TO.N,/control/boot0*%
X211000000Y-95500000D03*
X190000000Y-92000000D03*
%TO.N,/control/sda*%
X215000000Y-121000000D03*
X217500000Y-118500000D03*
%TO.N,/control/EN*%
X188000000Y-83500000D03*
X194809226Y-113440774D03*
%TO.N,Net-(R10-Pad2)*%
X192000000Y-58500000D03*
X195500000Y-71000000D03*
%TO.N,/ekg/iaout*%
X197800000Y-71000000D03*
X197800000Y-69000000D03*
X195500000Y-58500000D03*
%TO.N,/ekg/oa-*%
X198000000Y-67010000D03*
X196000000Y-67000000D03*
%TO.N,/control/~{sdn}*%
X197000000Y-73600000D03*
X198600000Y-63400000D03*
%TO.N,/control/lod+*%
X199500000Y-73600000D03*
X200400000Y-64800000D03*
%TO.N,/control/lod-*%
X199551470Y-64800000D03*
X198250000Y-73624263D03*
%TD*%
D50*
%TO.N,Net-(BT1-Pad+)*%
X254085072Y-82085072D02*
X230164928Y-82085072D01*
X230164928Y-82085072D02*
X223500000Y-88750000D01*
%TO.N,Net-(JP1-B)*%
X262500000Y-106500000D02*
X269500000Y-99500000D01*
X269500000Y-99500000D02*
X269500000Y-97500000D01*
D51*
%TO.N,PP_3V3_MAIN*%
X200000000Y-61510000D02*
X199030000Y-61510000D01*
X198520000Y-61480000D02*
X197540000Y-60500000D01*
D50*
X219287500Y-92037500D02*
X221625000Y-89700000D01*
D51*
X199030000Y-61510000D02*
X199000000Y-61480000D01*
D50*
X236150000Y-94400000D02*
X231500000Y-89750000D01*
D51*
X196935000Y-62435000D02*
X197565000Y-62435000D01*
D50*
X230796051Y-138000000D02*
X227727764Y-134931713D01*
X212000000Y-92000000D02*
X212000000Y-54000000D01*
D51*
X197540000Y-60500000D02*
X196000000Y-60500000D01*
D50*
X239750000Y-96610000D02*
X239820000Y-96680000D01*
X204531720Y-124959321D02*
X204749320Y-124959321D01*
X238044473Y-133705527D02*
X233750000Y-138000000D01*
D51*
X198520000Y-61480000D02*
X198000000Y-62000000D01*
X195500000Y-61500000D02*
X195500000Y-61000000D01*
D50*
X212000000Y-92000000D02*
X215570889Y-95570889D01*
D51*
X183510000Y-53000000D02*
X183510000Y-54200000D01*
D50*
X204749320Y-124959321D02*
X207480000Y-127690001D01*
X207480000Y-127690001D02*
X207480000Y-128000000D01*
X207480000Y-128000000D02*
X212000000Y-128000000D01*
D51*
X197565000Y-62435000D02*
X198000000Y-62000000D01*
D50*
X236220000Y-96680000D02*
X236150000Y-96750000D01*
X236150000Y-96750000D02*
X236150000Y-94400000D01*
X212000000Y-61500000D02*
X211990000Y-61510000D01*
X212000000Y-54000000D02*
X210000000Y-52000000D01*
X214500000Y-128000000D02*
X220796051Y-128000000D01*
X239820000Y-96680000D02*
X236220000Y-96680000D01*
X184510000Y-52000000D02*
X183510000Y-53000000D01*
X231500000Y-89750000D02*
X221675000Y-89750000D01*
D51*
X195500000Y-61000000D02*
X196000000Y-60500000D01*
D50*
X210000000Y-52000000D02*
X184510000Y-52000000D01*
X220796051Y-128000000D02*
X227727764Y-134931713D01*
X221675000Y-89750000D02*
X221625000Y-89700000D01*
X212000000Y-128000000D02*
X214500000Y-128000000D01*
X233750000Y-138000000D02*
X230796051Y-138000000D01*
D51*
X199000000Y-61480000D02*
X198520000Y-61480000D01*
D50*
X239750000Y-90750000D02*
X239750000Y-96610000D01*
X215754111Y-95570889D02*
X215570889Y-95570889D01*
X238044473Y-129160390D02*
X238044473Y-133705527D01*
X211990000Y-61510000D02*
X200000000Y-61510000D01*
X217912500Y-93412500D02*
X219287500Y-92037500D01*
X217912500Y-93412500D02*
X215754111Y-95570889D01*
%TO.N,GND*%
X202400000Y-77000000D02*
X202400000Y-81800000D01*
D51*
X204776348Y-127000000D02*
X205520000Y-127000000D01*
X203633694Y-125857346D02*
X204776348Y-127000000D01*
D50*
X201130000Y-81000000D02*
X201130000Y-76200000D01*
D51*
X196000000Y-61500000D02*
X197000000Y-61500000D01*
X206520000Y-128000000D02*
X205520000Y-127000000D01*
%TO.N,Net-(C3-Pad1)*%
X178120000Y-82000000D02*
X186520000Y-82000000D01*
X186520000Y-82000000D02*
X186520000Y-83500000D01*
%TO.N,Net-(C4-Pad1)*%
X184030000Y-90500000D02*
X183880000Y-90350000D01*
X178120000Y-90350000D02*
X183880000Y-90350000D01*
X186520000Y-90500000D02*
X184030000Y-90500000D01*
X186520000Y-92000000D02*
X186520000Y-90500000D01*
%TO.N,Net-(U2-RLD)*%
X191800000Y-65400000D02*
X190810000Y-65400000D01*
X190810000Y-64310000D02*
X190820000Y-64300000D01*
X190810000Y-65400000D02*
X190810000Y-64310000D01*
X192765000Y-64435000D02*
X191800000Y-65400000D01*
X193065000Y-64435000D02*
X192765000Y-64435000D01*
%TO.N,Net-(U2-RLDFB)*%
X192145000Y-63935000D02*
X191780000Y-64300000D01*
X193065000Y-63935000D02*
X192145000Y-63935000D01*
%TO.N,Net-(U2-HPDRIVE)*%
X193020000Y-62390000D02*
X193065000Y-62435000D01*
X193020000Y-59500000D02*
X193020000Y-62390000D01*
%TO.N,/ekg/hpsense*%
X194000000Y-61500000D02*
X194000000Y-61000000D01*
X193980000Y-60980000D02*
X193980000Y-60020000D01*
X194020000Y-58500000D02*
X194020000Y-59460000D01*
X194000000Y-61000000D02*
X193980000Y-60980000D01*
X194020000Y-59460000D02*
X193980000Y-59500000D01*
X193980000Y-60020000D02*
X194000000Y-60000000D01*
X193980000Y-59980000D02*
X193980000Y-59500000D01*
X194000000Y-60000000D02*
X193980000Y-59980000D01*
%TO.N,/ekg/refout*%
X198980000Y-70000000D02*
X199000000Y-70020000D01*
X198000000Y-68010000D02*
X199000000Y-69010000D01*
X195000000Y-65370000D02*
X195000000Y-67500000D01*
X199000000Y-69010000D02*
X199000000Y-70020000D01*
X196980000Y-70000000D02*
X198980000Y-70000000D01*
X198000000Y-68000000D02*
X198000000Y-68010000D01*
%TO.N,Net-(C10-Pad1)*%
X196000000Y-68000000D02*
X196000000Y-68980000D01*
X195010000Y-69000000D02*
X195980000Y-69000000D01*
X196000000Y-68980000D02*
X195980000Y-69000000D01*
%TO.N,/ekg/out*%
X199000000Y-65990000D02*
X197945000Y-65990000D01*
X197945000Y-65990000D02*
X197000000Y-66935000D01*
X204260000Y-65990000D02*
X204270000Y-66000000D01*
X201730000Y-102401037D02*
X201730000Y-66000000D01*
X196000000Y-65935000D02*
X197000000Y-66935000D01*
X196000000Y-65370000D02*
X196000000Y-65935000D01*
X197000000Y-66935000D02*
X197000000Y-67960000D01*
X202035633Y-102706670D02*
X201730000Y-102401037D01*
X199000000Y-65990000D02*
X204260000Y-65990000D01*
X197000000Y-67960000D02*
X196960000Y-68000000D01*
%TO.N,/ekg/oa+*%
X194500000Y-66500000D02*
X194500000Y-65370000D01*
X193990000Y-69000000D02*
X193990000Y-67010000D01*
X193990000Y-67010000D02*
X194500000Y-66500000D01*
X194990000Y-70000000D02*
X193990000Y-69000000D01*
X196020000Y-70000000D02*
X194990000Y-70000000D01*
%TO.N,/ekg/reflin*%
X195000000Y-60651471D02*
X195000000Y-61500000D01*
X197480000Y-59500000D02*
X196151471Y-59500000D01*
X196151471Y-59500000D02*
X195000000Y-60651471D01*
X197500000Y-59480000D02*
X197480000Y-59500000D01*
X197500000Y-58500000D02*
X197500000Y-59480000D01*
%TO.N,/control/boot0*%
X211000000Y-95500000D02*
X211000000Y-96000000D01*
X187480000Y-92000000D02*
X190000000Y-92000000D01*
X210203948Y-93796051D02*
X211000000Y-94592103D01*
X205191355Y-101808645D02*
X202933659Y-101808645D01*
X211000000Y-96000000D02*
X205191355Y-101808645D01*
X211000000Y-94592103D02*
X211000000Y-95500000D01*
%TO.N,/control/boot1*%
X212000000Y-96500000D02*
X211500000Y-96500000D01*
X212000000Y-96500000D02*
X212907897Y-96500000D01*
X212907897Y-96500000D02*
X213774838Y-97366941D01*
X205960076Y-102039924D02*
X205960076Y-103067295D01*
X211500000Y-96500000D02*
X205960076Y-102039924D01*
%TO.N,Net-(J2-Pin_4)*%
X235510390Y-115850000D02*
X228700000Y-115850000D01*
X241092103Y-121431713D02*
X235510390Y-115850000D01*
%TO.N,Net-(J2-Pin_3)*%
X228700000Y-116650000D02*
X232718288Y-116650000D01*
X232718288Y-116650000D02*
X241636575Y-125568287D01*
%TO.N,Net-(J2-Pin_2)*%
X228700000Y-117450000D02*
X229926185Y-117450000D01*
X229926185Y-117450000D02*
X237500000Y-125023815D01*
%TO.N,Net-(J2-Pin_5)*%
X238302493Y-115050000D02*
X245228678Y-121976185D01*
X228700000Y-115050000D02*
X238302493Y-115050000D01*
%TO.N,/ekg/RA*%
X186270000Y-48500000D02*
X183730000Y-48500000D01*
X189700000Y-63300000D02*
X180800000Y-63300000D01*
X176807214Y-55607214D02*
X176807214Y-59307214D01*
X179400000Y-53000000D02*
X176800000Y-55600000D01*
X176800000Y-55600000D02*
X176807214Y-55607214D01*
X182490000Y-49740000D02*
X182490000Y-53000000D01*
X182490000Y-53000000D02*
X179400000Y-53000000D01*
X180800000Y-63300000D02*
X176807214Y-59307214D01*
X183730000Y-48500000D02*
X182490000Y-49740000D01*
X189750000Y-63250000D02*
X189700000Y-63300000D01*
%TO.N,/ekg/LA*%
X189700000Y-61500000D02*
X183242642Y-61500000D01*
X183242642Y-61500000D02*
X178928535Y-57185893D01*
X186270000Y-58000000D02*
X183730000Y-58000000D01*
X182490000Y-56760000D02*
X183730000Y-58000000D01*
X181914428Y-54200000D02*
X178928535Y-57185893D01*
X182490000Y-54200000D02*
X182490000Y-56760000D01*
X182490000Y-54200000D02*
X181914428Y-54200000D01*
%TO.N,/ekg/RL*%
X187790000Y-65400000D02*
X178657360Y-65400000D01*
X187790000Y-65980000D02*
X187790000Y-65400000D01*
X186270000Y-67500000D02*
X183730000Y-67500000D01*
X178657360Y-65400000D02*
X174685894Y-61428534D01*
X186270000Y-67500000D02*
X187790000Y-65980000D01*
%TO.N,/control/scl*%
X231213046Y-135476185D02*
X212613951Y-116877090D01*
X231864339Y-135476185D02*
X231213046Y-135476185D01*
%TO.N,/control/sda*%
X213940809Y-120000000D02*
X211715925Y-117775116D01*
X214000000Y-120000000D02*
X213940809Y-120000000D01*
X214000000Y-120059191D02*
X214000000Y-120000000D01*
X230339610Y-131339610D02*
X217500000Y-118500000D01*
X231319866Y-131339610D02*
X230339610Y-131339610D01*
X214940809Y-121000000D02*
X214000000Y-120059191D01*
X215000000Y-121000000D02*
X214940809Y-121000000D01*
%TO.N,/control/EN*%
X194809226Y-113440775D02*
X205429746Y-124061295D01*
X187480000Y-83500000D02*
X188000000Y-83500000D01*
X194809226Y-113440774D02*
X194809226Y-113440775D01*
%TO.N,Net-(U2-+IN)*%
X190720000Y-61500000D02*
X192155000Y-62935000D01*
X192155000Y-62935000D02*
X193065000Y-62935000D01*
%TO.N,Net-(U2--IN)*%
X190955000Y-63435000D02*
X190770000Y-63250000D01*
X193065000Y-63435000D02*
X190955000Y-63435000D01*
%TO.N,Net-(R7-Pad1)*%
X189790000Y-65400000D02*
X188810000Y-65400000D01*
%TO.N,Net-(R10-Pad2)*%
X195500000Y-71000000D02*
X195010000Y-71000000D01*
X195500000Y-71000000D02*
X195990000Y-71000000D01*
X193000000Y-58500000D02*
X192000000Y-58500000D01*
%TO.N,/ekg/iaout*%
X197000000Y-71000000D02*
X197800000Y-71000000D01*
X195500000Y-59348529D02*
X194500000Y-60348529D01*
X194500000Y-60348529D02*
X194500000Y-61500000D01*
X197000000Y-69000000D02*
X197800000Y-69000000D01*
X195500000Y-58500000D02*
X195500000Y-59348529D01*
%TO.N,/ekg/oa-*%
X195500000Y-66500000D02*
X196000000Y-67000000D01*
X199000000Y-67010000D02*
X198000000Y-67010000D01*
X199000000Y-67010000D02*
X199000000Y-67990000D01*
X195500000Y-65370000D02*
X195500000Y-66500000D01*
%TO.N,/control/~{sdn}*%
X200000000Y-63510000D02*
X199925000Y-63435000D01*
X199925000Y-63435000D02*
X196935000Y-63435000D01*
X197000000Y-73600000D02*
X197000000Y-103059191D01*
X197000000Y-103059191D02*
X199341556Y-105400747D01*
%TO.N,/control/mtms*%
X227000000Y-117450000D02*
X216778963Y-117450000D01*
X216778963Y-117450000D02*
X214410002Y-115081039D01*
%TO.N,/control/mtdi*%
X218150000Y-116650000D02*
X227000000Y-116650000D01*
X215308027Y-114183013D02*
X215683013Y-114183013D01*
X215683013Y-114183013D02*
X218150000Y-116650000D01*
%TO.N,/control/mtdo*%
X227000000Y-115050000D02*
X224050000Y-115050000D01*
X207388431Y-103434990D02*
X206858101Y-103965320D01*
X224050000Y-115050000D02*
X212434990Y-103434990D01*
X212434990Y-103434990D02*
X207388431Y-103434990D01*
%TO.N,/control/mtck*%
X216500000Y-109500000D02*
X222850000Y-115850000D01*
X222850000Y-115850000D02*
X227000000Y-115850000D01*
X213144281Y-110251500D02*
X213895781Y-109500000D01*
X213895781Y-109500000D02*
X216500000Y-109500000D01*
%TO.N,/control/lod+*%
X199500000Y-101967089D02*
X201137607Y-103604696D01*
X197735000Y-63935000D02*
X196935000Y-63935000D01*
X200400000Y-64800000D02*
X199800000Y-64200000D01*
X199500000Y-73600000D02*
X199500000Y-101967089D01*
X198000000Y-64200000D02*
X197735000Y-63935000D01*
X199800000Y-64200000D02*
X198000000Y-64200000D01*
%TO.N,/control/lod-*%
X198250000Y-73624263D02*
X198250000Y-102513139D01*
X199551470Y-64800000D02*
X197300000Y-64800000D01*
X198250000Y-102513139D02*
X200239582Y-104502721D01*
X197300000Y-64800000D02*
X196935000Y-64435000D01*
%TO.N,/ekg/sw*%
X194000000Y-66185000D02*
X194000000Y-65370000D01*
X193990000Y-71000000D02*
X195390000Y-72400000D01*
X197580000Y-72400000D02*
X199000000Y-70980000D01*
X192500000Y-67685000D02*
X194000000Y-66185000D01*
X195390000Y-72400000D02*
X197580000Y-72400000D01*
X192500000Y-69510000D02*
X192500000Y-67685000D01*
X193990000Y-71000000D02*
X192500000Y-69510000D01*
D50*
%TO.N,/power/hv*%
X242360000Y-101630000D02*
X242360000Y-103390000D01*
X248757359Y-105507359D02*
X241042641Y-105507359D01*
X242360000Y-103390000D02*
X240500000Y-105250000D01*
X240500000Y-105250000D02*
X240500000Y-106050000D01*
X241042641Y-105507359D02*
X240500000Y-106050000D01*
%TO.N,/power/5v_sw*%
X246760000Y-98500000D02*
X243630000Y-101630000D01*
X247500000Y-96000000D02*
X244250000Y-92750000D01*
X244250000Y-92750000D02*
X244250000Y-90750000D01*
X247500000Y-98500000D02*
X246760000Y-98500000D01*
X247500000Y-98500000D02*
X247500000Y-96000000D01*
%TO.N,/power/5v_en*%
X239820000Y-101630000D02*
X239430000Y-101240000D01*
X239430000Y-101240000D02*
X237760000Y-101240000D01*
%TO.N,Net-(J3-Pin_1)*%
X223500000Y-90650000D02*
X223500000Y-95225000D01*
X223500000Y-95225000D02*
X223225000Y-95500000D01*
%TD*%
%TA.AperFunction,Conductor*%
%TO.N,GND*%
G36*
X193454976Y-64785184D02*
G01*
X193491039Y-64820608D01*
X193540447Y-64894552D01*
X193614391Y-64943960D01*
X193659196Y-64997572D01*
X193669500Y-65047062D01*
X193669500Y-65780445D01*
X193683019Y-65848413D01*
X193687693Y-65859696D01*
X193684604Y-65860975D01*
X193699480Y-65908463D01*
X193699500Y-65910692D01*
X193699500Y-66009167D01*
X193679815Y-66076206D01*
X193663181Y-66096848D01*
X192259541Y-67500487D01*
X192259535Y-67500495D01*
X192219982Y-67569004D01*
X192219979Y-67569009D01*
X192209410Y-67608455D01*
X192199500Y-67645438D01*
X192199500Y-69549562D01*
X192212151Y-69596776D01*
X192219979Y-69625989D01*
X192252131Y-69681679D01*
X192259542Y-69694514D01*
X193483181Y-70918152D01*
X193516666Y-70979475D01*
X193519500Y-71005833D01*
X193519500Y-71224316D01*
X193525931Y-71273171D01*
X193570684Y-71369143D01*
X193575935Y-71380404D01*
X193659596Y-71464065D01*
X193766827Y-71514068D01*
X193815683Y-71520500D01*
X193815684Y-71520500D01*
X194034167Y-71520500D01*
X194101206Y-71540185D01*
X194121848Y-71556819D01*
X195149540Y-72584511D01*
X195205489Y-72640460D01*
X195205491Y-72640461D01*
X195205495Y-72640464D01*
X195274004Y-72680017D01*
X195274011Y-72680021D01*
X195350438Y-72700500D01*
X195350440Y-72700500D01*
X197619560Y-72700500D01*
X197619562Y-72700500D01*
X197695989Y-72680021D01*
X197764511Y-72640460D01*
X197820460Y-72584511D01*
X198908152Y-71496817D01*
X198969475Y-71463333D01*
X198995833Y-71460499D01*
X199209895Y-71460499D01*
X199209900Y-71460499D01*
X199259487Y-71453972D01*
X199368316Y-71403224D01*
X199453224Y-71318316D01*
X199503972Y-71209487D01*
X199510500Y-71159901D01*
X199510499Y-70800100D01*
X199503972Y-70750513D01*
X199453224Y-70641684D01*
X199399221Y-70587681D01*
X199365736Y-70526358D01*
X199370720Y-70456666D01*
X199399221Y-70412319D01*
X199453224Y-70358316D01*
X199503972Y-70249487D01*
X199510500Y-70199901D01*
X199510499Y-69840100D01*
X199503972Y-69790513D01*
X199453224Y-69681684D01*
X199375684Y-69604144D01*
X199342200Y-69542822D01*
X199347184Y-69473130D01*
X199375685Y-69428782D01*
X199380400Y-69424066D01*
X199380404Y-69424065D01*
X199464065Y-69340404D01*
X199514068Y-69233173D01*
X199520500Y-69184316D01*
X199520500Y-68835684D01*
X199514068Y-68786827D01*
X199464065Y-68679596D01*
X199380404Y-68595935D01*
X199372733Y-68588264D01*
X199375561Y-68585435D01*
X199344843Y-68547023D01*
X199337635Y-68477526D01*
X199369143Y-68415165D01*
X199372903Y-68411906D01*
X199372733Y-68411736D01*
X199416153Y-68368316D01*
X199464065Y-68320404D01*
X199514068Y-68213173D01*
X199520500Y-68164316D01*
X199520500Y-67815684D01*
X199514068Y-67766827D01*
X199464065Y-67659596D01*
X199392150Y-67587681D01*
X199358665Y-67526358D01*
X199363649Y-67456666D01*
X199392150Y-67412319D01*
X199425224Y-67379245D01*
X199464065Y-67340404D01*
X199514068Y-67233173D01*
X199520500Y-67184316D01*
X199520500Y-66835684D01*
X199520371Y-66834707D01*
X199514068Y-66786828D01*
X199512820Y-66784151D01*
X199464065Y-66679596D01*
X199380404Y-66595935D01*
X199372733Y-66588264D01*
X199375561Y-66585435D01*
X199344843Y-66547023D01*
X199337635Y-66477526D01*
X199369143Y-66415165D01*
X199372903Y-66411906D01*
X199372733Y-66411736D01*
X199457650Y-66326819D01*
X199518973Y-66293334D01*
X199545331Y-66290500D01*
X200787663Y-66290500D01*
X200854702Y-66310185D01*
X200900457Y-66362989D01*
X200900942Y-66364062D01*
X200902820Y-66368282D01*
X200902821Y-66368284D01*
X200997467Y-66532216D01*
X201093487Y-66638857D01*
X201124129Y-66672888D01*
X201277265Y-66784148D01*
X201277267Y-66784149D01*
X201277270Y-66784151D01*
X201355937Y-66819175D01*
X201409172Y-66864424D01*
X201429494Y-66931273D01*
X201429500Y-66932454D01*
X201429500Y-77876000D01*
X201409815Y-77943039D01*
X201357011Y-77988794D01*
X201305500Y-78000000D01*
X199924500Y-78000000D01*
X199857461Y-77980315D01*
X199811706Y-77927511D01*
X199800500Y-77876000D01*
X199800500Y-74063738D01*
X199820185Y-73996699D01*
X199830787Y-73982535D01*
X199831124Y-73982144D01*
X199831128Y-73982143D01*
X199925377Y-73873373D01*
X199985165Y-73742457D01*
X200005647Y-73600000D01*
X199985165Y-73457543D01*
X199925377Y-73326627D01*
X199831128Y-73217857D01*
X199710053Y-73140047D01*
X199710051Y-73140046D01*
X199710049Y-73140045D01*
X199710050Y-73140045D01*
X199571963Y-73099500D01*
X199571961Y-73099500D01*
X199428039Y-73099500D01*
X199428036Y-73099500D01*
X199289949Y-73140045D01*
X199168873Y-73217856D01*
X199074623Y-73326626D01*
X199074622Y-73326628D01*
X199014834Y-73457543D01*
X198995993Y-73588588D01*
X198986985Y-73608310D01*
X198999482Y-73635673D01*
X198999482Y-73635674D01*
X199014834Y-73742456D01*
X199074622Y-73873371D01*
X199074623Y-73873373D01*
X199168872Y-73982143D01*
X199168875Y-73982144D01*
X199169213Y-73982535D01*
X199198238Y-74046091D01*
X199199500Y-74063738D01*
X199199500Y-77876000D01*
X199179815Y-77943039D01*
X199127011Y-77988794D01*
X199075500Y-78000000D01*
X198674500Y-78000000D01*
X198607461Y-77980315D01*
X198561706Y-77927511D01*
X198550500Y-77876000D01*
X198550500Y-74088001D01*
X198570185Y-74020962D01*
X198580787Y-74006798D01*
X198581124Y-74006407D01*
X198581128Y-74006406D01*
X198675377Y-73897636D01*
X198735165Y-73766720D01*
X198754007Y-73635673D01*
X198763013Y-73615951D01*
X198750518Y-73588590D01*
X198735165Y-73481806D01*
X198675377Y-73350890D01*
X198581128Y-73242120D01*
X198460053Y-73164310D01*
X198460051Y-73164309D01*
X198460049Y-73164308D01*
X198460050Y-73164308D01*
X198321963Y-73123763D01*
X198321961Y-73123763D01*
X198178039Y-73123763D01*
X198178036Y-73123763D01*
X198039949Y-73164308D01*
X197918873Y-73242119D01*
X197824623Y-73350889D01*
X197824622Y-73350891D01*
X197764834Y-73481806D01*
X197749482Y-73588588D01*
X197736985Y-73615950D01*
X197745993Y-73635673D01*
X197745993Y-73635674D01*
X197764834Y-73766719D01*
X197813541Y-73873371D01*
X197824623Y-73897636D01*
X197918872Y-74006406D01*
X197918875Y-74006407D01*
X197919213Y-74006798D01*
X197948238Y-74070354D01*
X197949500Y-74088001D01*
X197949500Y-77876000D01*
X197929815Y-77943039D01*
X197877011Y-77988794D01*
X197825500Y-78000000D01*
X197424500Y-78000000D01*
X197357461Y-77980315D01*
X197311706Y-77927511D01*
X197300500Y-77876000D01*
X197300500Y-74063738D01*
X197320185Y-73996699D01*
X197330787Y-73982535D01*
X197331124Y-73982144D01*
X197331128Y-73982143D01*
X197425377Y-73873373D01*
X197485165Y-73742457D01*
X197500518Y-73635672D01*
X197513013Y-73608311D01*
X197504006Y-73588588D01*
X197485165Y-73457543D01*
X197436458Y-73350891D01*
X197425377Y-73326627D01*
X197331128Y-73217857D01*
X197210053Y-73140047D01*
X197210051Y-73140046D01*
X197210049Y-73140045D01*
X197210050Y-73140045D01*
X197071963Y-73099500D01*
X197071961Y-73099500D01*
X196928039Y-73099500D01*
X196928036Y-73099500D01*
X196789949Y-73140045D01*
X196668873Y-73217856D01*
X196574623Y-73326626D01*
X196574622Y-73326628D01*
X196514834Y-73457543D01*
X196494353Y-73600000D01*
X196514834Y-73742456D01*
X196574622Y-73873371D01*
X196574623Y-73873373D01*
X196668872Y-73982143D01*
X196668875Y-73982144D01*
X196669213Y-73982535D01*
X196698238Y-74046091D01*
X196699500Y-74063738D01*
X196699500Y-77876000D01*
X196679815Y-77943039D01*
X196627011Y-77988794D01*
X196575500Y-78000000D01*
X185124000Y-78000000D01*
X185056961Y-77980315D01*
X185011206Y-77927511D01*
X185000000Y-77876000D01*
X185000000Y-67924500D01*
X185019685Y-67857461D01*
X185072489Y-67811706D01*
X185124000Y-67800500D01*
X185332115Y-67800500D01*
X185399154Y-67820185D01*
X185437161Y-67864047D01*
X185439571Y-67862656D01*
X185537465Y-68032214D01*
X185664129Y-68172888D01*
X185817265Y-68284148D01*
X185817270Y-68284151D01*
X185990192Y-68361142D01*
X185990197Y-68361144D01*
X186175354Y-68400500D01*
X186175355Y-68400500D01*
X186364644Y-68400500D01*
X186364646Y-68400500D01*
X186549803Y-68361144D01*
X186722730Y-68284151D01*
X186875871Y-68172888D01*
X187002533Y-68032216D01*
X187097179Y-67868284D01*
X187155674Y-67688256D01*
X187175460Y-67500000D01*
X187155674Y-67311744D01*
X187112339Y-67178376D01*
X187110345Y-67108538D01*
X187142588Y-67052381D01*
X188030460Y-66164511D01*
X188070022Y-66095988D01*
X188090500Y-66019562D01*
X188090500Y-65945331D01*
X188110185Y-65878292D01*
X188126819Y-65857650D01*
X188211736Y-65772733D01*
X188214564Y-65775561D01*
X188252977Y-65744843D01*
X188322474Y-65737635D01*
X188384835Y-65769143D01*
X188388093Y-65772903D01*
X188388264Y-65772733D01*
X188395935Y-65780404D01*
X188479596Y-65864065D01*
X188586827Y-65914068D01*
X188635683Y-65920500D01*
X188635684Y-65920500D01*
X188984317Y-65920500D01*
X189002683Y-65918082D01*
X189033173Y-65914068D01*
X189140404Y-65864065D01*
X189212319Y-65792150D01*
X189273642Y-65758665D01*
X189343334Y-65763649D01*
X189387681Y-65792150D01*
X189459596Y-65864065D01*
X189566827Y-65914068D01*
X189615683Y-65920500D01*
X189615684Y-65920500D01*
X189964317Y-65920500D01*
X189982683Y-65918082D01*
X190013173Y-65914068D01*
X190120404Y-65864065D01*
X190204065Y-65780404D01*
X190204065Y-65780403D01*
X190211736Y-65772733D01*
X190214564Y-65775561D01*
X190252977Y-65744843D01*
X190322474Y-65737635D01*
X190384835Y-65769143D01*
X190388093Y-65772903D01*
X190388264Y-65772733D01*
X190395935Y-65780404D01*
X190479596Y-65864065D01*
X190586827Y-65914068D01*
X190635683Y-65920500D01*
X190635684Y-65920500D01*
X190984317Y-65920500D01*
X191002683Y-65918082D01*
X191033173Y-65914068D01*
X191140404Y-65864065D01*
X191224065Y-65780404D01*
X191227939Y-65772095D01*
X191274110Y-65719657D01*
X191340321Y-65700500D01*
X191839560Y-65700500D01*
X191839562Y-65700500D01*
X191915989Y-65680021D01*
X191984511Y-65640460D01*
X192040460Y-65584511D01*
X192823152Y-64801817D01*
X192884475Y-64768333D01*
X192910833Y-64765499D01*
X193387937Y-64765499D01*
X193454976Y-64785184D01*
G37*
%TD.AperFunction*%
%TA.AperFunction,Conductor*%
G36*
X199526867Y-61847184D02*
G01*
X199571216Y-61875685D01*
X199619596Y-61924065D01*
X199726827Y-61974068D01*
X199775683Y-61980500D01*
X199775684Y-61980500D01*
X200224317Y-61980500D01*
X200240601Y-61978356D01*
X200273173Y-61974068D01*
X200380404Y-61924065D01*
X200380404Y-61924064D01*
X200384579Y-61922118D01*
X200436984Y-61910500D01*
X208376000Y-61910500D01*
X208443039Y-61930185D01*
X208488794Y-61982989D01*
X208500000Y-62034500D01*
X208500000Y-77876000D01*
X208480315Y-77943039D01*
X208427511Y-77988794D01*
X208376000Y-78000000D01*
X202154500Y-78000000D01*
X202087461Y-77980315D01*
X202041706Y-77927511D01*
X202030500Y-77876000D01*
X202030500Y-66932454D01*
X202050185Y-66865415D01*
X202102989Y-66819660D01*
X202103936Y-66819232D01*
X202182730Y-66784151D01*
X202335871Y-66672888D01*
X202462533Y-66532216D01*
X202557179Y-66368284D01*
X202557182Y-66368273D01*
X202559058Y-66364062D01*
X202604310Y-66310826D01*
X202671159Y-66290506D01*
X202672337Y-66290500D01*
X203327663Y-66290500D01*
X203394702Y-66310185D01*
X203440457Y-66362989D01*
X203440942Y-66364062D01*
X203442820Y-66368282D01*
X203442821Y-66368284D01*
X203537467Y-66532216D01*
X203633487Y-66638857D01*
X203664129Y-66672888D01*
X203817265Y-66784148D01*
X203817270Y-66784151D01*
X203990192Y-66861142D01*
X203990197Y-66861144D01*
X204175354Y-66900500D01*
X204175355Y-66900500D01*
X204364644Y-66900500D01*
X204364646Y-66900500D01*
X204549803Y-66861144D01*
X204722730Y-66784151D01*
X204875871Y-66672888D01*
X205002533Y-66532216D01*
X205097179Y-66368284D01*
X205155674Y-66188256D01*
X205175460Y-66000000D01*
X205155674Y-65811744D01*
X205097179Y-65631716D01*
X205002533Y-65467784D01*
X204875871Y-65327112D01*
X204839243Y-65300500D01*
X204722734Y-65215851D01*
X204722729Y-65215848D01*
X204549807Y-65138857D01*
X204549802Y-65138855D01*
X204404001Y-65107865D01*
X204364646Y-65099500D01*
X204175354Y-65099500D01*
X204142897Y-65106398D01*
X203990197Y-65138855D01*
X203990192Y-65138857D01*
X203817270Y-65215848D01*
X203817265Y-65215851D01*
X203664129Y-65327111D01*
X203537465Y-65467785D01*
X203445254Y-65627500D01*
X203394687Y-65675716D01*
X203337867Y-65689500D01*
X202662133Y-65689500D01*
X202595094Y-65669815D01*
X202554746Y-65627500D01*
X202490364Y-65515989D01*
X202462533Y-65467784D01*
X202335871Y-65327112D01*
X202299243Y-65300500D01*
X202182734Y-65215851D01*
X202182729Y-65215848D01*
X202009807Y-65138857D01*
X202009802Y-65138855D01*
X201864001Y-65107865D01*
X201824646Y-65099500D01*
X201635354Y-65099500D01*
X201602897Y-65106398D01*
X201450197Y-65138855D01*
X201450192Y-65138857D01*
X201277270Y-65215848D01*
X201277265Y-65215851D01*
X201124129Y-65327111D01*
X200997465Y-65467785D01*
X200905254Y-65627500D01*
X200854687Y-65675716D01*
X200797867Y-65689500D01*
X199545331Y-65689500D01*
X199478292Y-65669815D01*
X199457650Y-65653181D01*
X199380404Y-65575935D01*
X199273173Y-65525932D01*
X199273171Y-65525931D01*
X199273172Y-65525931D01*
X199224317Y-65519500D01*
X199224316Y-65519500D01*
X198775684Y-65519500D01*
X198775683Y-65519500D01*
X198726828Y-65525931D01*
X198619595Y-65575935D01*
X198542350Y-65653181D01*
X198481027Y-65686666D01*
X198454669Y-65689500D01*
X197905438Y-65689500D01*
X197867224Y-65699739D01*
X197829009Y-65709979D01*
X197829008Y-65709980D01*
X197782746Y-65736690D01*
X197776133Y-65740507D01*
X197760489Y-65749539D01*
X197760487Y-65749541D01*
X197087681Y-66422348D01*
X197026358Y-66455833D01*
X196956666Y-66450849D01*
X196912319Y-66422348D01*
X196366583Y-65876612D01*
X196333098Y-65815289D01*
X196331432Y-65786541D01*
X196330500Y-65786541D01*
X196330499Y-65047062D01*
X196350183Y-64980023D01*
X196385608Y-64943960D01*
X196393229Y-64938867D01*
X196393231Y-64938867D01*
X196459552Y-64894552D01*
X196503867Y-64828231D01*
X196503867Y-64828229D01*
X196508960Y-64820608D01*
X196562572Y-64775803D01*
X196612058Y-64765499D01*
X196789166Y-64765499D01*
X196856205Y-64785184D01*
X196876847Y-64801818D01*
X197059540Y-64984511D01*
X197115489Y-65040460D01*
X197115491Y-65040461D01*
X197115495Y-65040464D01*
X197183654Y-65079815D01*
X197184011Y-65080021D01*
X197260438Y-65100500D01*
X197339562Y-65100500D01*
X199092969Y-65100500D01*
X199160008Y-65120185D01*
X199186681Y-65143296D01*
X199220342Y-65182143D01*
X199341417Y-65259953D01*
X199341420Y-65259954D01*
X199341419Y-65259954D01*
X199479506Y-65300499D01*
X199479508Y-65300500D01*
X199479509Y-65300500D01*
X199623432Y-65300500D01*
X199623432Y-65300499D01*
X199761523Y-65259953D01*
X199882598Y-65182143D01*
X199882601Y-65182140D01*
X199889303Y-65176334D01*
X199890303Y-65177488D01*
X199940789Y-65145036D01*
X200010659Y-65145030D01*
X200061169Y-65177484D01*
X200062167Y-65176334D01*
X200068868Y-65182140D01*
X200068871Y-65182142D01*
X200068872Y-65182143D01*
X200189947Y-65259953D01*
X200189950Y-65259954D01*
X200189949Y-65259954D01*
X200328036Y-65300499D01*
X200328038Y-65300500D01*
X200328039Y-65300500D01*
X200471962Y-65300500D01*
X200471962Y-65300499D01*
X200610053Y-65259953D01*
X200731128Y-65182143D01*
X200825377Y-65073373D01*
X200885165Y-64942457D01*
X200905647Y-64800000D01*
X200885165Y-64657543D01*
X200825377Y-64526627D01*
X200731128Y-64417857D01*
X200610053Y-64340047D01*
X200610051Y-64340046D01*
X200610049Y-64340045D01*
X200610050Y-64340045D01*
X200471963Y-64299500D01*
X200471961Y-64299500D01*
X200375833Y-64299500D01*
X200308794Y-64279815D01*
X200288152Y-64263181D01*
X200208730Y-64183759D01*
X200175245Y-64122436D01*
X200180229Y-64052744D01*
X200222101Y-63996811D01*
X200264845Y-63979411D01*
X200264062Y-63976724D01*
X200273167Y-63974068D01*
X200273173Y-63974068D01*
X200380404Y-63924065D01*
X200464065Y-63840404D01*
X200514068Y-63733173D01*
X200520500Y-63684316D01*
X200520500Y-63335684D01*
X200514068Y-63286827D01*
X200464065Y-63179596D01*
X200380404Y-63095935D01*
X200273173Y-63045932D01*
X200273171Y-63045931D01*
X200273172Y-63045931D01*
X200224317Y-63039500D01*
X200224316Y-63039500D01*
X199775684Y-63039500D01*
X199775683Y-63039500D01*
X199726828Y-63045931D01*
X199619595Y-63095935D01*
X199617350Y-63098181D01*
X199612981Y-63100566D01*
X199610710Y-63102157D01*
X199610532Y-63101903D01*
X199556027Y-63131666D01*
X199529669Y-63134500D01*
X199088828Y-63134500D01*
X199021789Y-63114815D01*
X198995115Y-63091703D01*
X198931128Y-63017857D01*
X198810053Y-62940047D01*
X198810051Y-62940046D01*
X198810049Y-62940045D01*
X198810050Y-62940045D01*
X198671963Y-62899500D01*
X198671961Y-62899500D01*
X198528039Y-62899500D01*
X198528036Y-62899500D01*
X198389949Y-62940045D01*
X198268873Y-63017856D01*
X198268872Y-63017856D01*
X198268872Y-63017857D01*
X198250119Y-63039500D01*
X198204885Y-63091703D01*
X198146107Y-63129477D01*
X198111172Y-63134500D01*
X197475693Y-63134500D01*
X197425862Y-63119868D01*
X197424693Y-63122692D01*
X197413408Y-63118017D01*
X197345451Y-63104500D01*
X196639500Y-63104500D01*
X196572461Y-63084815D01*
X196526706Y-63032011D01*
X196515500Y-62980500D01*
X196515500Y-62889499D01*
X196535185Y-62822460D01*
X196587989Y-62776705D01*
X196639496Y-62765499D01*
X197345448Y-62765499D01*
X197413412Y-62751981D01*
X197413415Y-62751979D01*
X197424697Y-62747307D01*
X197425975Y-62750393D01*
X197473488Y-62735520D01*
X197475693Y-62735500D01*
X197604560Y-62735500D01*
X197604562Y-62735500D01*
X197680989Y-62715021D01*
X197749511Y-62675460D01*
X197805460Y-62619511D01*
X197857765Y-62567206D01*
X197888152Y-62536819D01*
X197949475Y-62503334D01*
X197975833Y-62500500D01*
X198071962Y-62500500D01*
X198071962Y-62500499D01*
X198210053Y-62459953D01*
X198331128Y-62382143D01*
X198425377Y-62273373D01*
X198485165Y-62142457D01*
X198502836Y-62019545D01*
X198531860Y-61955991D01*
X198590638Y-61918216D01*
X198660508Y-61918216D01*
X198677969Y-61924807D01*
X198740513Y-61953972D01*
X198790099Y-61960500D01*
X199209900Y-61960499D01*
X199259487Y-61953972D01*
X199368316Y-61903224D01*
X199395855Y-61875684D01*
X199457175Y-61842200D01*
X199526867Y-61847184D01*
G37*
%TD.AperFunction*%
%TA.AperFunction,Conductor*%
G36*
X190344835Y-63619143D02*
G01*
X190348093Y-63622903D01*
X190348264Y-63622733D01*
X190439314Y-63713783D01*
X190472799Y-63775106D01*
X190467815Y-63844798D01*
X190439315Y-63889144D01*
X190396776Y-63931683D01*
X190346027Y-64040514D01*
X190339500Y-64090098D01*
X190339500Y-64509894D01*
X190340772Y-64519560D01*
X190346028Y-64559487D01*
X190346029Y-64559489D01*
X190346029Y-64559490D01*
X190396776Y-64668316D01*
X190473181Y-64744721D01*
X190506666Y-64806044D01*
X190509500Y-64832402D01*
X190509500Y-64854669D01*
X190489815Y-64921708D01*
X190473181Y-64942350D01*
X190388264Y-65027267D01*
X190385440Y-65024443D01*
X190346958Y-65055183D01*
X190277458Y-65062352D01*
X190215114Y-65030808D01*
X190211901Y-65027101D01*
X190211736Y-65027267D01*
X190120404Y-64935935D01*
X190089894Y-64921708D01*
X190013173Y-64885932D01*
X190013171Y-64885931D01*
X190013172Y-64885931D01*
X189964317Y-64879500D01*
X189964316Y-64879500D01*
X189615684Y-64879500D01*
X189615683Y-64879500D01*
X189566828Y-64885931D01*
X189459595Y-64935935D01*
X189387681Y-65007850D01*
X189326358Y-65041335D01*
X189256666Y-65036351D01*
X189212319Y-65007850D01*
X189140404Y-64935935D01*
X189109894Y-64921708D01*
X189033173Y-64885932D01*
X189033171Y-64885931D01*
X189033172Y-64885931D01*
X188984317Y-64879500D01*
X188984316Y-64879500D01*
X188635684Y-64879500D01*
X188635683Y-64879500D01*
X188586828Y-64885931D01*
X188479595Y-64935935D01*
X188388264Y-65027267D01*
X188385440Y-65024443D01*
X188346958Y-65055183D01*
X188277458Y-65062352D01*
X188215114Y-65030808D01*
X188211901Y-65027101D01*
X188211736Y-65027267D01*
X188120404Y-64935935D01*
X188089894Y-64921708D01*
X188013173Y-64885932D01*
X188013171Y-64885931D01*
X188013172Y-64885931D01*
X187964317Y-64879500D01*
X187964316Y-64879500D01*
X187615684Y-64879500D01*
X187615683Y-64879500D01*
X187566828Y-64885931D01*
X187459595Y-64935935D01*
X187375935Y-65019595D01*
X187375935Y-65019596D01*
X187372060Y-65027904D01*
X187325890Y-65080343D01*
X187259679Y-65099500D01*
X185124000Y-65099500D01*
X185056961Y-65079815D01*
X185011206Y-65027011D01*
X185000000Y-64975500D01*
X185000000Y-63724500D01*
X185019685Y-63657461D01*
X185072489Y-63611706D01*
X185124000Y-63600500D01*
X189254669Y-63600500D01*
X189321708Y-63620185D01*
X189342350Y-63636819D01*
X189419596Y-63714065D01*
X189526827Y-63764068D01*
X189575683Y-63770500D01*
X189575684Y-63770500D01*
X189924317Y-63770500D01*
X189940601Y-63768356D01*
X189973173Y-63764068D01*
X190080404Y-63714065D01*
X190164065Y-63630404D01*
X190164065Y-63630403D01*
X190171736Y-63622733D01*
X190174564Y-63625561D01*
X190212977Y-63594843D01*
X190282474Y-63587635D01*
X190344835Y-63619143D01*
G37*
%TD.AperFunction*%
%TA.AperFunction,Conductor*%
G36*
X189236718Y-61820185D02*
G01*
X189282060Y-61872095D01*
X189285935Y-61880404D01*
X189369596Y-61964065D01*
X189476827Y-62014068D01*
X189525683Y-62020500D01*
X189525684Y-62020500D01*
X189874317Y-62020500D01*
X189899390Y-62017199D01*
X189923173Y-62014068D01*
X190030404Y-61964065D01*
X190114065Y-61880404D01*
X190114065Y-61880403D01*
X190121736Y-61872733D01*
X190124564Y-61875561D01*
X190162977Y-61844843D01*
X190232474Y-61837635D01*
X190294835Y-61869143D01*
X190298093Y-61872903D01*
X190298264Y-61872733D01*
X190305935Y-61880404D01*
X190389596Y-61964065D01*
X190496827Y-62014068D01*
X190545683Y-62020500D01*
X190545684Y-62020500D01*
X190764167Y-62020500D01*
X190831206Y-62040185D01*
X190851848Y-62056819D01*
X191717848Y-62922819D01*
X191751333Y-62984142D01*
X191746349Y-63053834D01*
X191704477Y-63109767D01*
X191639013Y-63134184D01*
X191630167Y-63134500D01*
X191363571Y-63134500D01*
X191296532Y-63114815D01*
X191250777Y-63062011D01*
X191240632Y-63026685D01*
X191235031Y-62984142D01*
X191234068Y-62976827D01*
X191184065Y-62869596D01*
X191100404Y-62785935D01*
X190993173Y-62735932D01*
X190993171Y-62735931D01*
X190993172Y-62735931D01*
X190944317Y-62729500D01*
X190944316Y-62729500D01*
X190595684Y-62729500D01*
X190595683Y-62729500D01*
X190546828Y-62735931D01*
X190439595Y-62785935D01*
X190348264Y-62877267D01*
X190345440Y-62874443D01*
X190306958Y-62905183D01*
X190237458Y-62912352D01*
X190175114Y-62880808D01*
X190171901Y-62877101D01*
X190171736Y-62877267D01*
X190080404Y-62785935D01*
X190032719Y-62763699D01*
X189973173Y-62735932D01*
X189973171Y-62735931D01*
X189973172Y-62735931D01*
X189924317Y-62729500D01*
X189924316Y-62729500D01*
X189575684Y-62729500D01*
X189575683Y-62729500D01*
X189526828Y-62735931D01*
X189419595Y-62785935D01*
X189335935Y-62869595D01*
X189308745Y-62927905D01*
X189262572Y-62980344D01*
X189196363Y-62999500D01*
X185124000Y-62999500D01*
X185056961Y-62979815D01*
X185011206Y-62927011D01*
X185000000Y-62875500D01*
X185000000Y-61924500D01*
X185019685Y-61857461D01*
X185072489Y-61811706D01*
X185124000Y-61800500D01*
X189169679Y-61800500D01*
X189236718Y-61820185D01*
G37*
%TD.AperFunction*%
%TA.AperFunction,Conductor*%
G36*
X208443039Y-55019685D02*
G01*
X208488794Y-55072489D01*
X208500000Y-55124000D01*
X208500000Y-60985500D01*
X208480315Y-61052539D01*
X208427511Y-61098294D01*
X208376000Y-61109500D01*
X200436984Y-61109500D01*
X200384579Y-61097882D01*
X200377264Y-61094471D01*
X200273173Y-61045932D01*
X200273171Y-61045931D01*
X200273172Y-61045931D01*
X200224317Y-61039500D01*
X200224316Y-61039500D01*
X199775684Y-61039500D01*
X199775683Y-61039500D01*
X199726828Y-61045931D01*
X199619596Y-61095934D01*
X199601215Y-61114316D01*
X199539891Y-61147800D01*
X199470199Y-61142814D01*
X199425854Y-61114314D01*
X199368316Y-61056776D01*
X199345059Y-61045931D01*
X199259487Y-61006028D01*
X199259485Y-61006027D01*
X199259486Y-61006027D01*
X199209901Y-60999500D01*
X198790105Y-60999500D01*
X198774386Y-61001569D01*
X198740513Y-61006028D01*
X198740511Y-61006029D01*
X198740506Y-61006030D01*
X198635398Y-61055043D01*
X198566321Y-61065535D01*
X198502537Y-61037015D01*
X198495313Y-61030342D01*
X197724512Y-60259541D01*
X197724507Y-60259537D01*
X197691462Y-60240459D01*
X197691462Y-60240457D01*
X197691456Y-60240456D01*
X197686056Y-60237338D01*
X197637843Y-60186769D01*
X197624623Y-60118162D01*
X197650594Y-60053298D01*
X197695657Y-60017572D01*
X197703170Y-60014068D01*
X197703173Y-60014068D01*
X197810404Y-59964065D01*
X197894065Y-59880404D01*
X197944068Y-59773173D01*
X197950500Y-59724316D01*
X197950500Y-59275684D01*
X197944068Y-59226827D01*
X197894065Y-59119596D01*
X197870685Y-59096216D01*
X197837200Y-59034893D01*
X197842184Y-58965201D01*
X197870681Y-58920858D01*
X197923224Y-58868316D01*
X197973972Y-58759487D01*
X197980500Y-58709901D01*
X197980499Y-58290100D01*
X197973972Y-58240513D01*
X197923224Y-58131684D01*
X197838316Y-58046776D01*
X197729487Y-57996028D01*
X197729485Y-57996027D01*
X197729486Y-57996027D01*
X197679902Y-57989500D01*
X197320105Y-57989500D01*
X197304386Y-57991569D01*
X197270513Y-57996028D01*
X197270511Y-57996029D01*
X197270509Y-57996029D01*
X197161683Y-58046776D01*
X197076776Y-58131683D01*
X197026027Y-58240514D01*
X197019500Y-58290098D01*
X197019500Y-58709894D01*
X197019501Y-58709900D01*
X197026028Y-58759487D01*
X197026029Y-58759489D01*
X197026029Y-58759490D01*
X197076776Y-58868316D01*
X197109314Y-58900854D01*
X197142799Y-58962177D01*
X197137815Y-59031869D01*
X197109315Y-59076215D01*
X197065936Y-59119594D01*
X197065935Y-59119595D01*
X197065935Y-59119596D01*
X197062060Y-59127904D01*
X197015890Y-59180343D01*
X196949679Y-59199500D01*
X196111909Y-59199500D01*
X196073695Y-59209739D01*
X196035480Y-59219979D01*
X196011771Y-59233668D01*
X195999916Y-59240513D01*
X195986496Y-59248261D01*
X195918595Y-59264730D01*
X195852569Y-59241875D01*
X195809380Y-59186952D01*
X195800500Y-59140871D01*
X195800500Y-58963738D01*
X195820185Y-58896699D01*
X195830787Y-58882535D01*
X195831124Y-58882144D01*
X195831128Y-58882143D01*
X195925377Y-58773373D01*
X195985165Y-58642457D01*
X196005647Y-58500000D01*
X195985165Y-58357543D01*
X195925377Y-58226627D01*
X195831128Y-58117857D01*
X195710053Y-58040047D01*
X195710051Y-58040046D01*
X195710049Y-58040045D01*
X195710050Y-58040045D01*
X195571963Y-57999500D01*
X195571961Y-57999500D01*
X195428039Y-57999500D01*
X195428036Y-57999500D01*
X195289949Y-58040045D01*
X195168873Y-58117856D01*
X195074623Y-58226626D01*
X195074622Y-58226628D01*
X195014834Y-58357543D01*
X194994353Y-58500000D01*
X195014834Y-58642456D01*
X195045636Y-58709901D01*
X195074623Y-58773373D01*
X195168872Y-58882143D01*
X195168875Y-58882144D01*
X195169213Y-58882535D01*
X195198238Y-58946091D01*
X195199500Y-58963738D01*
X195199500Y-59172695D01*
X195179815Y-59239734D01*
X195163181Y-59260376D01*
X194672180Y-59751376D01*
X194610857Y-59784861D01*
X194541165Y-59779877D01*
X194485232Y-59738005D01*
X194460815Y-59672541D01*
X194460499Y-59663719D01*
X194460499Y-59290100D01*
X194453972Y-59240513D01*
X194403224Y-59131684D01*
X194380685Y-59109145D01*
X194347200Y-59047822D01*
X194352184Y-58978130D01*
X194380681Y-58933787D01*
X194434065Y-58880404D01*
X194484068Y-58773173D01*
X194490500Y-58724316D01*
X194490500Y-58275684D01*
X194484068Y-58226827D01*
X194434065Y-58119596D01*
X194350404Y-58035935D01*
X194243173Y-57985932D01*
X194243171Y-57985931D01*
X194243172Y-57985931D01*
X194194317Y-57979500D01*
X194194316Y-57979500D01*
X193845684Y-57979500D01*
X193845683Y-57979500D01*
X193796828Y-57985931D01*
X193689595Y-58035935D01*
X193598264Y-58127267D01*
X193595440Y-58124443D01*
X193556958Y-58155183D01*
X193487458Y-58162352D01*
X193425114Y-58130808D01*
X193421901Y-58127101D01*
X193421736Y-58127267D01*
X193330404Y-58035935D01*
X193223173Y-57985932D01*
X193223171Y-57985931D01*
X193223172Y-57985931D01*
X193174317Y-57979500D01*
X193174316Y-57979500D01*
X192825684Y-57979500D01*
X192825683Y-57979500D01*
X192776828Y-57985931D01*
X192669595Y-58035935D01*
X192585935Y-58119595D01*
X192585935Y-58119596D01*
X192582060Y-58127904D01*
X192535890Y-58180343D01*
X192469679Y-58199500D01*
X192458501Y-58199500D01*
X192391462Y-58179815D01*
X192364788Y-58156703D01*
X192363471Y-58155183D01*
X192331128Y-58117857D01*
X192210053Y-58040047D01*
X192210051Y-58040046D01*
X192210049Y-58040045D01*
X192210050Y-58040045D01*
X192071963Y-57999500D01*
X192071961Y-57999500D01*
X191928039Y-57999500D01*
X191928036Y-57999500D01*
X191789949Y-58040045D01*
X191668873Y-58117856D01*
X191574623Y-58226626D01*
X191574622Y-58226628D01*
X191514834Y-58357543D01*
X191494353Y-58500000D01*
X191514834Y-58642456D01*
X191545636Y-58709901D01*
X191574623Y-58773373D01*
X191668872Y-58882143D01*
X191789947Y-58959953D01*
X191789950Y-58959954D01*
X191789949Y-58959954D01*
X191928036Y-59000499D01*
X191928038Y-59000500D01*
X191928039Y-59000500D01*
X192071962Y-59000500D01*
X192071962Y-59000499D01*
X192196049Y-58964065D01*
X192210050Y-58959954D01*
X192210050Y-58959953D01*
X192210053Y-58959953D01*
X192331128Y-58882143D01*
X192364788Y-58843296D01*
X192423567Y-58805523D01*
X192458501Y-58800500D01*
X192469679Y-58800500D01*
X192536718Y-58820185D01*
X192582060Y-58872095D01*
X192585934Y-58880402D01*
X192585935Y-58880404D01*
X192629314Y-58923783D01*
X192662799Y-58985106D01*
X192657815Y-59054798D01*
X192629315Y-59099144D01*
X192596776Y-59131683D01*
X192546028Y-59240513D01*
X192546027Y-59240513D01*
X192539500Y-59290098D01*
X192539500Y-59709894D01*
X192539501Y-59709900D01*
X192546028Y-59759487D01*
X192546029Y-59759489D01*
X192546029Y-59759490D01*
X192596776Y-59868316D01*
X192683181Y-59954721D01*
X192716666Y-60016044D01*
X192719500Y-60042402D01*
X192719500Y-61989817D01*
X192699815Y-62056856D01*
X192647011Y-62102611D01*
X192619691Y-62111434D01*
X192586589Y-62118018D01*
X192509516Y-62169516D01*
X192458018Y-62246588D01*
X192458017Y-62246591D01*
X192444500Y-62314548D01*
X192444500Y-62500167D01*
X192424815Y-62567206D01*
X192372011Y-62612961D01*
X192302853Y-62622905D01*
X192239297Y-62593880D01*
X192232819Y-62587848D01*
X191226819Y-61581848D01*
X191193334Y-61520525D01*
X191190500Y-61494167D01*
X191190500Y-61275683D01*
X191184068Y-61226828D01*
X191184068Y-61226827D01*
X191134065Y-61119596D01*
X191050404Y-61035935D01*
X190943173Y-60985932D01*
X190943171Y-60985931D01*
X190943172Y-60985931D01*
X190894317Y-60979500D01*
X190894316Y-60979500D01*
X190545684Y-60979500D01*
X190545683Y-60979500D01*
X190496828Y-60985931D01*
X190389595Y-61035935D01*
X190298264Y-61127267D01*
X190295440Y-61124443D01*
X190256958Y-61155183D01*
X190187458Y-61162352D01*
X190125114Y-61130808D01*
X190121901Y-61127101D01*
X190121736Y-61127267D01*
X190030404Y-61035935D01*
X190013306Y-61027962D01*
X189923173Y-60985932D01*
X189923171Y-60985931D01*
X189923172Y-60985931D01*
X189874317Y-60979500D01*
X189874316Y-60979500D01*
X189525684Y-60979500D01*
X189525683Y-60979500D01*
X189476828Y-60985931D01*
X189369595Y-61035935D01*
X189285935Y-61119595D01*
X189285935Y-61119596D01*
X189282060Y-61127904D01*
X189235890Y-61180343D01*
X189169679Y-61199500D01*
X185124000Y-61199500D01*
X185056961Y-61179815D01*
X185011206Y-61127011D01*
X185000000Y-61075500D01*
X185000000Y-58424500D01*
X185019685Y-58357461D01*
X185072489Y-58311706D01*
X185124000Y-58300500D01*
X185332115Y-58300500D01*
X185399154Y-58320185D01*
X185437161Y-58364047D01*
X185439571Y-58362656D01*
X185537465Y-58532214D01*
X185664129Y-58672888D01*
X185817265Y-58784148D01*
X185817270Y-58784151D01*
X185990192Y-58861142D01*
X185990197Y-58861144D01*
X186175354Y-58900500D01*
X186175355Y-58900500D01*
X186364644Y-58900500D01*
X186364646Y-58900500D01*
X186549803Y-58861144D01*
X186722730Y-58784151D01*
X186875871Y-58672888D01*
X187002533Y-58532216D01*
X187097179Y-58368284D01*
X187155674Y-58188256D01*
X187175460Y-58000000D01*
X187155674Y-57811744D01*
X187097179Y-57631716D01*
X187002533Y-57467784D01*
X186875871Y-57327112D01*
X186875870Y-57327111D01*
X186722734Y-57215851D01*
X186722729Y-57215848D01*
X186549807Y-57138857D01*
X186549802Y-57138855D01*
X186404001Y-57107865D01*
X186364646Y-57099500D01*
X186175354Y-57099500D01*
X186142897Y-57106398D01*
X185990197Y-57138855D01*
X185990192Y-57138857D01*
X185817270Y-57215848D01*
X185817265Y-57215851D01*
X185664129Y-57327111D01*
X185537465Y-57467785D01*
X185439571Y-57637344D01*
X185436925Y-57635816D01*
X185400397Y-57679006D01*
X185333598Y-57699491D01*
X185332115Y-57699500D01*
X185124000Y-57699500D01*
X185056961Y-57679815D01*
X185011206Y-57627011D01*
X185000000Y-57575500D01*
X185000000Y-55124000D01*
X185019685Y-55056961D01*
X185072489Y-55011206D01*
X185124000Y-55000000D01*
X208376000Y-55000000D01*
X208443039Y-55019685D01*
G37*
%TD.AperFunction*%
%TA.AperFunction,Conductor*%
G36*
X197431206Y-60820185D02*
G01*
X197451848Y-60836819D01*
X197924420Y-61309391D01*
X197957905Y-61370714D01*
X197952921Y-61440406D01*
X197911049Y-61496339D01*
X197871674Y-61516049D01*
X197789949Y-61540045D01*
X197668873Y-61617856D01*
X197574623Y-61726626D01*
X197574622Y-61726628D01*
X197514834Y-61857543D01*
X197494224Y-62000896D01*
X197465199Y-62064452D01*
X197406421Y-62102226D01*
X197351555Y-62104677D01*
X197351514Y-62105097D01*
X197348599Y-62104810D01*
X197347302Y-62104868D01*
X197345451Y-62104500D01*
X196612062Y-62104500D01*
X196545023Y-62084815D01*
X196508960Y-62049391D01*
X196459552Y-61975447D01*
X196393230Y-61931132D01*
X196393229Y-61931131D01*
X196334752Y-61919500D01*
X196334748Y-61919500D01*
X195954500Y-61919500D01*
X195887461Y-61899815D01*
X195841706Y-61847011D01*
X195830500Y-61795500D01*
X195830499Y-61145832D01*
X195850183Y-61078793D01*
X195866815Y-61058154D01*
X195888153Y-61036817D01*
X195949477Y-61003333D01*
X195975832Y-61000500D01*
X196071962Y-61000500D01*
X196071962Y-61000499D01*
X196210053Y-60959953D01*
X196331128Y-60882143D01*
X196364788Y-60843296D01*
X196423567Y-60805523D01*
X196458501Y-60800500D01*
X197364167Y-60800500D01*
X197431206Y-60820185D01*
G37*
%TD.AperFunction*%
%TD*%
%TA.AperFunction,Conductor*%
%TO.N,GND*%
G36*
X212260109Y-119168535D02*
G01*
X213455948Y-120364374D01*
X213455958Y-120364385D01*
X213460288Y-120368715D01*
X213460289Y-120368716D01*
X213519480Y-120427907D01*
X213638349Y-120546776D01*
X213638355Y-120546781D01*
X214176814Y-121085240D01*
X214210299Y-121146563D01*
X214212353Y-121159036D01*
X214214630Y-121179249D01*
X214274210Y-121349521D01*
X214332519Y-121442318D01*
X214370184Y-121502262D01*
X214497738Y-121629816D01*
X214522720Y-121645513D01*
X214618140Y-121705470D01*
X214650478Y-121725789D01*
X214798165Y-121777467D01*
X214820745Y-121785368D01*
X214820750Y-121785369D01*
X214999996Y-121805565D01*
X215000000Y-121805565D01*
X215000004Y-121805565D01*
X215179249Y-121785369D01*
X215179252Y-121785368D01*
X215179255Y-121785368D01*
X215349522Y-121725789D01*
X215502262Y-121629816D01*
X215629816Y-121502262D01*
X215725789Y-121349522D01*
X215785368Y-121179255D01*
X215785369Y-121179249D01*
X215786917Y-121172468D01*
X215788915Y-121172924D01*
X215812090Y-121117730D01*
X215869674Y-121078159D01*
X215939511Y-121076002D01*
X215995946Y-121108320D01*
X230728185Y-135840559D01*
X230728195Y-135840570D01*
X230732525Y-135844900D01*
X230732526Y-135844901D01*
X230844330Y-135956705D01*
X230844332Y-135956706D01*
X230844336Y-135956709D01*
X230981258Y-136035760D01*
X230981259Y-136035760D01*
X230981262Y-136035762D01*
X230987053Y-136037313D01*
X231042642Y-136069408D01*
X232061054Y-137087819D01*
X232094539Y-137149142D01*
X232089555Y-137218834D01*
X232047683Y-137274767D01*
X231982219Y-137299184D01*
X231973373Y-137299500D01*
X231137570Y-137299500D01*
X231070531Y-137279815D01*
X231049889Y-137263181D01*
X229490355Y-135703647D01*
X229456870Y-135642324D01*
X229455298Y-135598319D01*
X229474383Y-135465579D01*
X229453901Y-135323121D01*
X229394114Y-135192206D01*
X229387681Y-135184223D01*
X229356495Y-135145523D01*
X229356490Y-135145518D01*
X229356486Y-135145513D01*
X227513957Y-133302987D01*
X227513947Y-133302978D01*
X227467272Y-133265363D01*
X227336355Y-133205575D01*
X227214379Y-133188038D01*
X227193898Y-133185094D01*
X227193897Y-133185094D01*
X227061156Y-133204178D01*
X226991997Y-133194234D01*
X226955829Y-133169121D01*
X221242597Y-127455888D01*
X221242596Y-127455887D01*
X221127858Y-127379222D01*
X221000383Y-127326421D01*
X221000373Y-127326418D01*
X220865047Y-127299500D01*
X220865045Y-127299500D01*
X220865044Y-127299500D01*
X214568993Y-127299500D01*
X212425494Y-127299500D01*
X212359523Y-127280494D01*
X212349525Y-127274212D01*
X212179254Y-127214631D01*
X212179249Y-127214630D01*
X212000004Y-127194435D01*
X211999996Y-127194435D01*
X211820750Y-127214630D01*
X211820745Y-127214631D01*
X211650474Y-127274212D01*
X211640477Y-127280494D01*
X211574506Y-127299500D01*
X208127840Y-127299500D01*
X208060801Y-127279815D01*
X208028306Y-127247896D01*
X208027978Y-127248166D01*
X208025474Y-127245115D01*
X208024740Y-127244394D01*
X208024115Y-127243459D01*
X208024111Y-127243454D01*
X206107766Y-125327109D01*
X206074281Y-125265786D01*
X206079265Y-125196094D01*
X206107764Y-125151749D01*
X206666031Y-124593483D01*
X206703651Y-124546800D01*
X206718807Y-124513610D01*
X206764561Y-124460809D01*
X206780089Y-124452330D01*
X206784331Y-124450392D01*
X206813276Y-124437174D01*
X206859959Y-124399555D01*
X207564056Y-123695457D01*
X207601676Y-123648774D01*
X207616832Y-123615587D01*
X207662587Y-123562783D01*
X207678104Y-123554309D01*
X207711302Y-123539149D01*
X207757985Y-123501530D01*
X208462082Y-122797432D01*
X208499702Y-122750749D01*
X208514858Y-122717559D01*
X208560612Y-122664758D01*
X208576140Y-122656279D01*
X208584399Y-122652507D01*
X208609327Y-122641123D01*
X208656010Y-122603504D01*
X209360107Y-121899406D01*
X209397727Y-121852723D01*
X209412883Y-121819536D01*
X209458638Y-121766732D01*
X209474155Y-121758258D01*
X209507353Y-121743098D01*
X209554036Y-121705479D01*
X210258133Y-121001381D01*
X210295753Y-120954698D01*
X210310909Y-120921510D01*
X210356662Y-120868708D01*
X210372185Y-120860231D01*
X210405379Y-120845072D01*
X210452062Y-120807453D01*
X211156159Y-120103355D01*
X211193779Y-120056672D01*
X211208935Y-120023482D01*
X211254689Y-119970681D01*
X211270217Y-119962202D01*
X211274459Y-119960264D01*
X211303404Y-119947046D01*
X211350087Y-119909427D01*
X212054184Y-119205329D01*
X212075878Y-119178407D01*
X212133270Y-119138561D01*
X212203095Y-119136068D01*
X212260109Y-119168535D01*
G37*
%TD.AperFunction*%
%TA.AperFunction,Conductor*%
G36*
X201072539Y-79402689D02*
G01*
X201118294Y-79455493D01*
X201129500Y-79507005D01*
X201129500Y-101792967D01*
X201109815Y-101860006D01*
X201093181Y-101880648D01*
X200799355Y-102174474D01*
X200799344Y-102174486D01*
X200777652Y-102201404D01*
X200720259Y-102241251D01*
X200650434Y-102243742D01*
X200593422Y-102211276D01*
X200136819Y-101754673D01*
X200103334Y-101693350D01*
X200100500Y-101666992D01*
X200100500Y-79629500D01*
X200120185Y-79562461D01*
X200172989Y-79516706D01*
X200224500Y-79505500D01*
X200605490Y-79505500D01*
X200605500Y-79505500D01*
X200712956Y-79493947D01*
X200764467Y-79482741D01*
X200798697Y-79471347D01*
X200866997Y-79448616D01*
X200866999Y-79448614D01*
X200867004Y-79448613D01*
X200938461Y-79402689D01*
X201005499Y-79383005D01*
X201072539Y-79402689D01*
G37*
%TD.AperFunction*%
%TA.AperFunction,Conductor*%
G36*
X177612917Y-57555336D02*
G01*
X177642198Y-57592753D01*
X177675163Y-57657450D01*
X177790859Y-57816691D01*
X178297738Y-58323570D01*
X178456978Y-58439265D01*
X178513295Y-58467960D01*
X178632352Y-58528623D01*
X178632354Y-58528623D01*
X178632357Y-58528625D01*
X178732701Y-58561228D01*
X178819556Y-58589450D01*
X179013962Y-58620241D01*
X179013967Y-58620241D01*
X179210805Y-58620241D01*
X179353304Y-58597671D01*
X179405210Y-58589450D01*
X179405211Y-58589449D01*
X179409836Y-58588717D01*
X179479129Y-58597671D01*
X179516915Y-58623509D01*
X182873926Y-61980520D01*
X182873928Y-61980521D01*
X182873932Y-61980524D01*
X183010851Y-62059573D01*
X183010858Y-62059577D01*
X183082597Y-62078799D01*
X183142254Y-62115163D01*
X183172783Y-62178010D01*
X183174500Y-62198573D01*
X183174500Y-62575500D01*
X183154815Y-62642539D01*
X183102011Y-62688294D01*
X183050500Y-62699500D01*
X181100097Y-62699500D01*
X181033058Y-62679815D01*
X181012416Y-62663181D01*
X178244830Y-59895595D01*
X178211345Y-59834272D01*
X178210038Y-59788516D01*
X178211582Y-59778771D01*
X178218563Y-59734690D01*
X178241562Y-59589484D01*
X178241562Y-59392640D01*
X178210771Y-59198235D01*
X178168468Y-59068040D01*
X178149946Y-59011036D01*
X178149944Y-59011033D01*
X178149944Y-59011031D01*
X178097569Y-58908240D01*
X178060586Y-58835657D01*
X177944891Y-58676417D01*
X177444033Y-58175559D01*
X177410548Y-58114236D01*
X177407714Y-58087878D01*
X177407714Y-57649049D01*
X177427399Y-57582010D01*
X177480203Y-57536255D01*
X177549361Y-57526311D01*
X177612917Y-57555336D01*
G37*
%TD.AperFunction*%
%TA.AperFunction,Conductor*%
G36*
X209725520Y-52720185D02*
G01*
X209746162Y-52736819D01*
X211263181Y-54253838D01*
X211296666Y-54315161D01*
X211299500Y-54341519D01*
X211299500Y-60685500D01*
X211279815Y-60752539D01*
X211227011Y-60798294D01*
X211175500Y-60809500D01*
X210379500Y-60809500D01*
X210312461Y-60789815D01*
X210266706Y-60737011D01*
X210255500Y-60685500D01*
X210255500Y-54124010D01*
X210255500Y-54124000D01*
X210243947Y-54016544D01*
X210232741Y-53965033D01*
X210218442Y-53922071D01*
X210198616Y-53862502D01*
X210198613Y-53862496D01*
X210162114Y-53805703D01*
X210120825Y-53741457D01*
X210097461Y-53714493D01*
X210075076Y-53688659D01*
X210075072Y-53688656D01*
X210075070Y-53688653D01*
X209966336Y-53594433D01*
X209966333Y-53594431D01*
X209966331Y-53594430D01*
X209835465Y-53534664D01*
X209835460Y-53534662D01*
X209835459Y-53534662D01*
X209768420Y-53514977D01*
X209768422Y-53514977D01*
X209768417Y-53514976D01*
X209720944Y-53508150D01*
X209626000Y-53494500D01*
X209625998Y-53494500D01*
X184382011Y-53494500D01*
X184314972Y-53474815D01*
X184269217Y-53422011D01*
X184259273Y-53352853D01*
X184262935Y-53335904D01*
X184277665Y-53285204D01*
X184279390Y-53263281D01*
X184304273Y-53197994D01*
X184315319Y-53185336D01*
X184763838Y-52736819D01*
X184825161Y-52703334D01*
X184851519Y-52700500D01*
X209658481Y-52700500D01*
X209725520Y-52720185D01*
G37*
%TD.AperFunction*%
%TA.AperFunction,Conductor*%
G36*
X181808834Y-55257342D02*
G01*
X181864767Y-55299214D01*
X181889184Y-55364678D01*
X181889500Y-55373524D01*
X181889500Y-56673330D01*
X181889499Y-56673348D01*
X181889499Y-56839054D01*
X181889498Y-56839054D01*
X181889499Y-56839057D01*
X181930423Y-56991785D01*
X181951563Y-57028400D01*
X181979573Y-57076915D01*
X182009479Y-57128714D01*
X182009481Y-57128717D01*
X182128349Y-57247585D01*
X182128355Y-57247590D01*
X182518685Y-57637920D01*
X182552170Y-57699243D01*
X182550271Y-57759532D01*
X182544885Y-57778462D01*
X182524357Y-57999999D01*
X182524357Y-58000000D01*
X182544884Y-58221535D01*
X182544885Y-58221537D01*
X182605769Y-58435523D01*
X182605775Y-58435538D01*
X182704938Y-58634683D01*
X182704943Y-58634691D01*
X182839020Y-58812238D01*
X183003433Y-58962120D01*
X183003435Y-58962121D01*
X183003438Y-58962124D01*
X183115778Y-59031681D01*
X183162413Y-59083707D01*
X183174500Y-59137107D01*
X183174500Y-60283260D01*
X183154815Y-60350299D01*
X183102011Y-60396054D01*
X183032853Y-60405998D01*
X182969297Y-60376973D01*
X182962819Y-60370941D01*
X180366151Y-57774273D01*
X180332666Y-57712950D01*
X180331359Y-57667194D01*
X180332903Y-57657450D01*
X180344851Y-57582010D01*
X180362883Y-57468163D01*
X180362883Y-57271319D01*
X180332092Y-57076914D01*
X180316329Y-57028401D01*
X180271267Y-56889715D01*
X180245562Y-56839267D01*
X180232667Y-56770601D01*
X180258943Y-56705860D01*
X180268358Y-56695303D01*
X181677820Y-55285841D01*
X181739142Y-55252358D01*
X181808834Y-55257342D01*
G37*
%TD.AperFunction*%
%TA.AperFunction,Conductor*%
G36*
X246670406Y-42039992D02*
G01*
X247840054Y-42069008D01*
X247844087Y-42069175D01*
X249012085Y-42136845D01*
X249016060Y-42137140D01*
X250181220Y-42243394D01*
X250185291Y-42243833D01*
X251346266Y-42388548D01*
X251350257Y-42389114D01*
X252505798Y-42572133D01*
X252509775Y-42572830D01*
X253409169Y-42745941D01*
X253658624Y-42793955D01*
X253662637Y-42794796D01*
X254803542Y-43053783D01*
X254807524Y-43054756D01*
X255939247Y-43351325D01*
X255943128Y-43352411D01*
X257064463Y-43686247D01*
X257068321Y-43687465D01*
X258177980Y-44058186D01*
X258181792Y-44059529D01*
X259278598Y-44466740D01*
X259282413Y-44468229D01*
X260365131Y-44911471D01*
X260368853Y-44913067D01*
X261436337Y-45391870D01*
X261439979Y-45393577D01*
X262491093Y-45907434D01*
X262494703Y-45909274D01*
X263528202Y-46457578D01*
X263531752Y-46459537D01*
X264226132Y-46857890D01*
X264546566Y-47041717D01*
X264550088Y-47043816D01*
X265545092Y-47659228D01*
X265548504Y-47661418D01*
X265906418Y-47899500D01*
X266522573Y-48309362D01*
X266525949Y-48311689D01*
X267478087Y-48991502D01*
X267481382Y-48993937D01*
X268410544Y-49704876D01*
X268413703Y-49707377D01*
X268861710Y-50074272D01*
X269318868Y-50448662D01*
X269321997Y-50451313D01*
X270202104Y-51222075D01*
X270205143Y-51224827D01*
X271059283Y-52024263D01*
X271062230Y-52027114D01*
X271889483Y-52854367D01*
X271892334Y-52857314D01*
X272691770Y-53711454D01*
X272694522Y-53714493D01*
X273465284Y-54594600D01*
X273467935Y-54597729D01*
X273742991Y-54933593D01*
X274209214Y-55502887D01*
X274211727Y-55506061D01*
X274520617Y-55909764D01*
X274922658Y-56435212D01*
X274925095Y-56438510D01*
X275604908Y-57390648D01*
X275607235Y-57394024D01*
X276255166Y-58368073D01*
X276257381Y-58371524D01*
X276872781Y-59366509D01*
X276874880Y-59370031D01*
X277457049Y-60384825D01*
X277459030Y-60388415D01*
X278007312Y-61421872D01*
X278009174Y-61425526D01*
X278499986Y-62429500D01*
X278523004Y-62476583D01*
X278524739Y-62480287D01*
X278654768Y-62770184D01*
X279003520Y-63547721D01*
X279005136Y-63551489D01*
X279448366Y-64634179D01*
X279449857Y-64637999D01*
X279857058Y-65734778D01*
X279858421Y-65738645D01*
X280229123Y-66848250D01*
X280230358Y-66852160D01*
X280564176Y-67973435D01*
X280565281Y-67977384D01*
X280861840Y-69109072D01*
X280862814Y-69113055D01*
X281121801Y-70253960D01*
X281122642Y-70257973D01*
X281343761Y-71406791D01*
X281344469Y-71410830D01*
X281527478Y-72566305D01*
X281528053Y-72570365D01*
X281672763Y-73731303D01*
X281673203Y-73735380D01*
X281779452Y-74900481D01*
X281779756Y-74904570D01*
X281847420Y-76072478D01*
X281847590Y-76076575D01*
X281876604Y-77246136D01*
X281876638Y-77250236D01*
X281866965Y-78420116D01*
X281866863Y-78424215D01*
X281818517Y-79593108D01*
X281818280Y-79597202D01*
X281731313Y-80763868D01*
X281730941Y-80767951D01*
X281605443Y-81931142D01*
X281604935Y-81935211D01*
X281441057Y-83093545D01*
X281440416Y-83097595D01*
X281238319Y-84249926D01*
X281237544Y-84253953D01*
X280997459Y-85398976D01*
X280996551Y-85402975D01*
X280718747Y-86539391D01*
X280717708Y-86543357D01*
X280402472Y-87670010D01*
X280401302Y-87673940D01*
X280048986Y-88789559D01*
X280047686Y-88793448D01*
X279658691Y-89896763D01*
X279657264Y-89900607D01*
X279231998Y-90990472D01*
X279230445Y-90994267D01*
X278769364Y-92069501D01*
X278767686Y-92073242D01*
X278271316Y-93132628D01*
X278269515Y-93136312D01*
X277738382Y-94178716D01*
X277736460Y-94182338D01*
X277171172Y-95206580D01*
X277169132Y-95210137D01*
X276570262Y-96215169D01*
X276568105Y-96218656D01*
X275936349Y-97203314D01*
X275934078Y-97206728D01*
X275270101Y-98169974D01*
X275267718Y-98173311D01*
X274572270Y-99114059D01*
X274569778Y-99117316D01*
X273843594Y-100034571D01*
X273840996Y-100037743D01*
X273084900Y-100930463D01*
X273082199Y-100933548D01*
X272296979Y-101800806D01*
X272294177Y-101803800D01*
X271480004Y-102645352D01*
X271478516Y-102646863D01*
X220975541Y-153092465D01*
X220914199Y-153125915D01*
X220844510Y-153120891D01*
X220800229Y-153092415D01*
X209834337Y-142126523D01*
X222933515Y-142126523D01*
X222953996Y-142268981D01*
X223013783Y-142399896D01*
X223013785Y-142399898D01*
X223051403Y-142446580D01*
X223051406Y-142446583D01*
X223051411Y-142446589D01*
X224072453Y-143467629D01*
X224893944Y-144289119D01*
X224893948Y-144289122D01*
X224893950Y-144289124D01*
X224940625Y-144326739D01*
X225071542Y-144386527D01*
X225214000Y-144407009D01*
X225356457Y-144386527D01*
X225487373Y-144326739D01*
X225534055Y-144289121D01*
X226308863Y-143514311D01*
X226346483Y-143467629D01*
X226406271Y-143336713D01*
X226426753Y-143194256D01*
X226406271Y-143051798D01*
X226346484Y-142920883D01*
X226340051Y-142912900D01*
X226308865Y-142874200D01*
X226308860Y-142874195D01*
X226308856Y-142874190D01*
X224466327Y-141031664D01*
X224466321Y-141031659D01*
X224466317Y-141031655D01*
X224419642Y-140994040D01*
X224288725Y-140934252D01*
X224166749Y-140916715D01*
X224146268Y-140913771D01*
X224146267Y-140913771D01*
X224003811Y-140934252D01*
X223872896Y-140994039D01*
X223826203Y-141031667D01*
X223051408Y-141806465D01*
X223051399Y-141806475D01*
X223013784Y-141853150D01*
X222953996Y-141984067D01*
X222933515Y-142126523D01*
X209834337Y-142126523D01*
X209470486Y-141762672D01*
X209437001Y-141701349D01*
X209441985Y-141631657D01*
X209470486Y-141587310D01*
X213067848Y-137989949D01*
X222389042Y-137989949D01*
X222409523Y-138132406D01*
X222469310Y-138263321D01*
X222469312Y-138263323D01*
X222506930Y-138310005D01*
X222506933Y-138310008D01*
X222506938Y-138310014D01*
X223527980Y-139331054D01*
X224349471Y-140152544D01*
X224349475Y-140152547D01*
X224349477Y-140152549D01*
X224396152Y-140190164D01*
X224527069Y-140249952D01*
X224669527Y-140270434D01*
X224811984Y-140249952D01*
X224942900Y-140190164D01*
X224989582Y-140152546D01*
X225764390Y-139377736D01*
X225802010Y-139331054D01*
X225861798Y-139200138D01*
X225882280Y-139057681D01*
X225861798Y-138915223D01*
X225802011Y-138784308D01*
X225795578Y-138776325D01*
X225764392Y-138737625D01*
X225764387Y-138737620D01*
X225764383Y-138737615D01*
X223921854Y-136895089D01*
X223921848Y-136895084D01*
X223921844Y-136895080D01*
X223875169Y-136857465D01*
X223744252Y-136797677D01*
X223622276Y-136780140D01*
X223601795Y-136777196D01*
X223601794Y-136777196D01*
X223459338Y-136797677D01*
X223328423Y-136857464D01*
X223281730Y-136895092D01*
X222506935Y-137669890D01*
X222506926Y-137669900D01*
X222469311Y-137716575D01*
X222409523Y-137847492D01*
X222389042Y-137989949D01*
X213067848Y-137989949D01*
X213321057Y-137736740D01*
X179379932Y-103795615D01*
X175529361Y-107646185D01*
X175468038Y-107679670D01*
X175398346Y-107674686D01*
X175353999Y-107646185D01*
X170354661Y-102646847D01*
X170353223Y-102645386D01*
X170161881Y-102447609D01*
X169539011Y-101803793D01*
X169536216Y-101800806D01*
X169520851Y-101783836D01*
X169208788Y-101439169D01*
X168750996Y-100933548D01*
X168748295Y-100930463D01*
X167992199Y-100037743D01*
X167989601Y-100034571D01*
X167263417Y-99117316D01*
X167260925Y-99114059D01*
X166565477Y-98173311D01*
X166563094Y-98169974D01*
X165899117Y-97206728D01*
X165896846Y-97203314D01*
X165265090Y-96218656D01*
X165262933Y-96215169D01*
X164976543Y-95734545D01*
X164664048Y-95210110D01*
X164662038Y-95206607D01*
X164260466Y-94479002D01*
X164096735Y-94182338D01*
X164094813Y-94178716D01*
X163929875Y-93855008D01*
X163563658Y-93136268D01*
X163561900Y-93132672D01*
X163065506Y-92073237D01*
X163063831Y-92069501D01*
X162992615Y-91903426D01*
X162602740Y-90994243D01*
X162601197Y-90990472D01*
X162591838Y-90966487D01*
X162175924Y-89900589D01*
X162174504Y-89896763D01*
X162166824Y-89874979D01*
X162141141Y-89802135D01*
X176244500Y-89802135D01*
X176244500Y-90897870D01*
X176244501Y-90897876D01*
X176250908Y-90957483D01*
X176301202Y-91092328D01*
X176301206Y-91092335D01*
X176387452Y-91207544D01*
X176387455Y-91207547D01*
X176502664Y-91293793D01*
X176502671Y-91293797D01*
X176637517Y-91344091D01*
X176637516Y-91344091D01*
X176644444Y-91344835D01*
X176697127Y-91350500D01*
X179542872Y-91350499D01*
X179602483Y-91344091D01*
X179737331Y-91293796D01*
X179852546Y-91207546D01*
X179938796Y-91092331D01*
X179961609Y-91031167D01*
X180003480Y-90975233D01*
X180068944Y-90950816D01*
X180077791Y-90950500D01*
X181922209Y-90950500D01*
X181989248Y-90970185D01*
X182035003Y-91022989D01*
X182038391Y-91031167D01*
X182061202Y-91092328D01*
X182061206Y-91092335D01*
X182147452Y-91207544D01*
X182147455Y-91207547D01*
X182262664Y-91293793D01*
X182262671Y-91293797D01*
X182397517Y-91344091D01*
X182397516Y-91344091D01*
X182404444Y-91344835D01*
X182457127Y-91350500D01*
X185302872Y-91350499D01*
X185362483Y-91344091D01*
X185497331Y-91293796D01*
X185612546Y-91207546D01*
X185640792Y-91169815D01*
X185655485Y-91150188D01*
X185711419Y-91108318D01*
X185754751Y-91100500D01*
X185795500Y-91100500D01*
X185862539Y-91120185D01*
X185908294Y-91172989D01*
X185919500Y-91224500D01*
X185919500Y-91333333D01*
X185899815Y-91400372D01*
X185883181Y-91421014D01*
X185869887Y-91434307D01*
X185869881Y-91434315D01*
X185787505Y-91573606D01*
X185787504Y-91573609D01*
X185742357Y-91729002D01*
X185742356Y-91729008D01*
X185739500Y-91765302D01*
X185739500Y-92234697D01*
X185742356Y-92270991D01*
X185742357Y-92270997D01*
X185787504Y-92426390D01*
X185787505Y-92426393D01*
X185869881Y-92565684D01*
X185869887Y-92565692D01*
X185984307Y-92680112D01*
X185984311Y-92680115D01*
X185984313Y-92680117D01*
X186123605Y-92762494D01*
X186164587Y-92774400D01*
X186279002Y-92807642D01*
X186279005Y-92807642D01*
X186279007Y-92807643D01*
X186315310Y-92810500D01*
X186315318Y-92810500D01*
X186724682Y-92810500D01*
X186724690Y-92810500D01*
X186760993Y-92807643D01*
X186760995Y-92807642D01*
X186760997Y-92807642D01*
X186801975Y-92795736D01*
X186916395Y-92762494D01*
X186936879Y-92750379D01*
X187004601Y-92733196D01*
X187063119Y-92750379D01*
X187083605Y-92762494D01*
X187083607Y-92762494D01*
X187083608Y-92762495D01*
X187239002Y-92807642D01*
X187239005Y-92807642D01*
X187239007Y-92807643D01*
X187275310Y-92810500D01*
X187275318Y-92810500D01*
X187684682Y-92810500D01*
X187684690Y-92810500D01*
X187720993Y-92807643D01*
X187720995Y-92807642D01*
X187720997Y-92807642D01*
X187761975Y-92795736D01*
X187876395Y-92762494D01*
X188015687Y-92680117D01*
X188058984Y-92636820D01*
X188120307Y-92603334D01*
X188146666Y-92600500D01*
X189417588Y-92600500D01*
X189484627Y-92620185D01*
X189494903Y-92627555D01*
X189497736Y-92629814D01*
X189497738Y-92629816D01*
X189611270Y-92701152D01*
X189634669Y-92715856D01*
X189650478Y-92725789D01*
X189748645Y-92760139D01*
X189820745Y-92785368D01*
X189820750Y-92785369D01*
X189999996Y-92805565D01*
X190000000Y-92805565D01*
X190000004Y-92805565D01*
X190179249Y-92785369D01*
X190179252Y-92785368D01*
X190179255Y-92785368D01*
X190349522Y-92725789D01*
X190502262Y-92629816D01*
X190629816Y-92502262D01*
X190725789Y-92349522D01*
X190785368Y-92179255D01*
X190797522Y-92071385D01*
X190805565Y-92000003D01*
X190805565Y-91999996D01*
X190785369Y-91820750D01*
X190785368Y-91820745D01*
X190725788Y-91650476D01*
X190668885Y-91559916D01*
X190629816Y-91497738D01*
X190502262Y-91370184D01*
X190470932Y-91350498D01*
X190349523Y-91274211D01*
X190179254Y-91214631D01*
X190179249Y-91214630D01*
X190000004Y-91194435D01*
X189999996Y-91194435D01*
X189820750Y-91214630D01*
X189820745Y-91214631D01*
X189650476Y-91274211D01*
X189497736Y-91370185D01*
X189494903Y-91372445D01*
X189492724Y-91373334D01*
X189491842Y-91373889D01*
X189491744Y-91373734D01*
X189430217Y-91398855D01*
X189417588Y-91399500D01*
X188146666Y-91399500D01*
X188079627Y-91379815D01*
X188058984Y-91363180D01*
X188015692Y-91319887D01*
X188015684Y-91319881D01*
X187924821Y-91266145D01*
X187876395Y-91237506D01*
X187876394Y-91237505D01*
X187876393Y-91237505D01*
X187876390Y-91237504D01*
X187720997Y-91192357D01*
X187720991Y-91192356D01*
X187684697Y-91189500D01*
X187684690Y-91189500D01*
X187314289Y-91189500D01*
X187247250Y-91169815D01*
X187201495Y-91117011D01*
X187191551Y-91047853D01*
X187207557Y-91002379D01*
X187252494Y-90926395D01*
X187297643Y-90770993D01*
X187300500Y-90734690D01*
X187300500Y-90265310D01*
X187297643Y-90229007D01*
X187252494Y-90073605D01*
X187170117Y-89934313D01*
X187170115Y-89934311D01*
X187170112Y-89934307D01*
X187055692Y-89819887D01*
X187055684Y-89819881D01*
X186916393Y-89737505D01*
X186916390Y-89737504D01*
X186760997Y-89692357D01*
X186760991Y-89692356D01*
X186724697Y-89689500D01*
X186724690Y-89689500D01*
X186315310Y-89689500D01*
X186315302Y-89689500D01*
X186279008Y-89692356D01*
X186279002Y-89692357D01*
X186123609Y-89737504D01*
X186123606Y-89737505D01*
X185984315Y-89819881D01*
X185984307Y-89819887D01*
X185962701Y-89841494D01*
X185901378Y-89874979D01*
X185831686Y-89869995D01*
X185775753Y-89828123D01*
X185751730Y-89767066D01*
X185749091Y-89742516D01*
X185698797Y-89607671D01*
X185698793Y-89607664D01*
X185612547Y-89492455D01*
X185612544Y-89492452D01*
X185497335Y-89406206D01*
X185497328Y-89406202D01*
X185362482Y-89355908D01*
X185362483Y-89355908D01*
X185302883Y-89349501D01*
X185302881Y-89349500D01*
X185302873Y-89349500D01*
X185302864Y-89349500D01*
X182457129Y-89349500D01*
X182457123Y-89349501D01*
X182397516Y-89355908D01*
X182262671Y-89406202D01*
X182262664Y-89406206D01*
X182147455Y-89492452D01*
X182147452Y-89492455D01*
X182061206Y-89607664D01*
X182061202Y-89607671D01*
X182038391Y-89668833D01*
X181996520Y-89724767D01*
X181931056Y-89749184D01*
X181922209Y-89749500D01*
X180077791Y-89749500D01*
X180010752Y-89729815D01*
X179964997Y-89677011D01*
X179961609Y-89668833D01*
X179938797Y-89607671D01*
X179938793Y-89607664D01*
X179852547Y-89492455D01*
X179852544Y-89492452D01*
X179737335Y-89406206D01*
X179737328Y-89406202D01*
X179602482Y-89355908D01*
X179602483Y-89355908D01*
X179542883Y-89349501D01*
X179542881Y-89349500D01*
X179542873Y-89349500D01*
X179542864Y-89349500D01*
X176697129Y-89349500D01*
X176697123Y-89349501D01*
X176637516Y-89355908D01*
X176502671Y-89406202D01*
X176502664Y-89406206D01*
X176387455Y-89492452D01*
X176387452Y-89492455D01*
X176301206Y-89607664D01*
X176301202Y-89607671D01*
X176250908Y-89742517D01*
X176244501Y-89802116D01*
X176244500Y-89802135D01*
X162141141Y-89802135D01*
X161785492Y-88793397D01*
X161784225Y-88789608D01*
X161431886Y-87673918D01*
X161430723Y-87670010D01*
X161395033Y-87542455D01*
X161115485Y-86543349D01*
X161114448Y-86539391D01*
X160836629Y-85402909D01*
X160835747Y-85399027D01*
X160595648Y-84253941D01*
X160594876Y-84249926D01*
X160562564Y-84065687D01*
X160392771Y-83097547D01*
X160392145Y-83093593D01*
X160228255Y-81935175D01*
X160227756Y-81931177D01*
X160176072Y-81452135D01*
X176244500Y-81452135D01*
X176244500Y-82547870D01*
X176244501Y-82547876D01*
X176250908Y-82607483D01*
X176301202Y-82742328D01*
X176301206Y-82742335D01*
X176387452Y-82857544D01*
X176387455Y-82857547D01*
X176502664Y-82943793D01*
X176502671Y-82943797D01*
X176637517Y-82994091D01*
X176637516Y-82994091D01*
X176644444Y-82994835D01*
X176697127Y-83000500D01*
X179542872Y-83000499D01*
X179602483Y-82994091D01*
X179737331Y-82943796D01*
X179852546Y-82857546D01*
X179938796Y-82742331D01*
X179949127Y-82714632D01*
X179961609Y-82681167D01*
X180003480Y-82625233D01*
X180068944Y-82600816D01*
X180077791Y-82600500D01*
X181922209Y-82600500D01*
X181989248Y-82620185D01*
X182035003Y-82672989D01*
X182038391Y-82681167D01*
X182061202Y-82742328D01*
X182061206Y-82742335D01*
X182147452Y-82857544D01*
X182147455Y-82857547D01*
X182262664Y-82943793D01*
X182262671Y-82943797D01*
X182397517Y-82994091D01*
X182397516Y-82994091D01*
X182404444Y-82994835D01*
X182457127Y-83000500D01*
X185302872Y-83000499D01*
X185362483Y-82994091D01*
X185497331Y-82943796D01*
X185612546Y-82857546D01*
X185696234Y-82745753D01*
X185752167Y-82703883D01*
X185821859Y-82698899D01*
X185883182Y-82732384D01*
X185916666Y-82793708D01*
X185919500Y-82820065D01*
X185919500Y-82833333D01*
X185899815Y-82900372D01*
X185883181Y-82921014D01*
X185869887Y-82934307D01*
X185869881Y-82934315D01*
X185787505Y-83073606D01*
X185787504Y-83073609D01*
X185742357Y-83229002D01*
X185742356Y-83229008D01*
X185739500Y-83265302D01*
X185739500Y-83734697D01*
X185742356Y-83770991D01*
X185742357Y-83770997D01*
X185787504Y-83926390D01*
X185787505Y-83926393D01*
X185869881Y-84065684D01*
X185869887Y-84065692D01*
X185984307Y-84180112D01*
X185984311Y-84180115D01*
X185984313Y-84180117D01*
X186123605Y-84262494D01*
X186164587Y-84274400D01*
X186279002Y-84307642D01*
X186279005Y-84307642D01*
X186279007Y-84307643D01*
X186315310Y-84310500D01*
X186315318Y-84310500D01*
X186724682Y-84310500D01*
X186724690Y-84310500D01*
X186760993Y-84307643D01*
X186760995Y-84307642D01*
X186760997Y-84307642D01*
X186820288Y-84290416D01*
X186916395Y-84262494D01*
X186936879Y-84250379D01*
X187004601Y-84233196D01*
X187063119Y-84250379D01*
X187083605Y-84262494D01*
X187083607Y-84262494D01*
X187083608Y-84262495D01*
X187239002Y-84307642D01*
X187239005Y-84307642D01*
X187239007Y-84307643D01*
X187275310Y-84310500D01*
X187275318Y-84310500D01*
X187684682Y-84310500D01*
X187684690Y-84310500D01*
X187720993Y-84307643D01*
X187780289Y-84290415D01*
X187828764Y-84286272D01*
X187999996Y-84305565D01*
X188000000Y-84305565D01*
X188000004Y-84305565D01*
X188179249Y-84285369D01*
X188179252Y-84285368D01*
X188179255Y-84285368D01*
X188349522Y-84225789D01*
X188502262Y-84129816D01*
X188629816Y-84002262D01*
X188725789Y-83849522D01*
X188785368Y-83679255D01*
X188805565Y-83500000D01*
X188785368Y-83320745D01*
X188725789Y-83150478D01*
X188629816Y-82997738D01*
X188502262Y-82870184D01*
X188443614Y-82833333D01*
X188349523Y-82774211D01*
X188179254Y-82714631D01*
X188179249Y-82714630D01*
X188000004Y-82694435D01*
X187999996Y-82694435D01*
X187828768Y-82713727D01*
X187780292Y-82709584D01*
X187720996Y-82692358D01*
X187720997Y-82692358D01*
X187720993Y-82692357D01*
X187720989Y-82692356D01*
X187720986Y-82692356D01*
X187684697Y-82689500D01*
X187684690Y-82689500D01*
X187314289Y-82689500D01*
X187247250Y-82669815D01*
X187201495Y-82617011D01*
X187191551Y-82547853D01*
X187207557Y-82502379D01*
X187252494Y-82426395D01*
X187297643Y-82270993D01*
X187300500Y-82234690D01*
X187300500Y-81765310D01*
X187297643Y-81729007D01*
X187290852Y-81705633D01*
X187252495Y-81573609D01*
X187252494Y-81573606D01*
X187252494Y-81573605D01*
X187170117Y-81434313D01*
X187170115Y-81434311D01*
X187170112Y-81434307D01*
X187055692Y-81319887D01*
X187055684Y-81319881D01*
X186916393Y-81237505D01*
X186916390Y-81237504D01*
X186760997Y-81192357D01*
X186760991Y-81192356D01*
X186724697Y-81189500D01*
X186724690Y-81189500D01*
X186315310Y-81189500D01*
X186315302Y-81189500D01*
X186279008Y-81192356D01*
X186279002Y-81192357D01*
X186123609Y-81237504D01*
X186123606Y-81237505D01*
X185984315Y-81319881D01*
X185984307Y-81319887D01*
X185941016Y-81363180D01*
X185879693Y-81396666D01*
X185853334Y-81399500D01*
X185837791Y-81399500D01*
X185770752Y-81379815D01*
X185724997Y-81327011D01*
X185721609Y-81318833D01*
X185698797Y-81257671D01*
X185698793Y-81257664D01*
X185612547Y-81142455D01*
X185612544Y-81142452D01*
X185497335Y-81056206D01*
X185497328Y-81056202D01*
X185362482Y-81005908D01*
X185362483Y-81005908D01*
X185302883Y-80999501D01*
X185302881Y-80999500D01*
X185302873Y-80999500D01*
X185302864Y-80999500D01*
X182457129Y-80999500D01*
X182457123Y-80999501D01*
X182397516Y-81005908D01*
X182262671Y-81056202D01*
X182262664Y-81056206D01*
X182147455Y-81142452D01*
X182147452Y-81142455D01*
X182061206Y-81257664D01*
X182061202Y-81257671D01*
X182038391Y-81318833D01*
X181996520Y-81374767D01*
X181931056Y-81399184D01*
X181922209Y-81399500D01*
X180077791Y-81399500D01*
X180010752Y-81379815D01*
X179964997Y-81327011D01*
X179961609Y-81318833D01*
X179938797Y-81257671D01*
X179938793Y-81257664D01*
X179852547Y-81142455D01*
X179852544Y-81142452D01*
X179737335Y-81056206D01*
X179737328Y-81056202D01*
X179602482Y-81005908D01*
X179602483Y-81005908D01*
X179542883Y-80999501D01*
X179542881Y-80999500D01*
X179542873Y-80999500D01*
X179542864Y-80999500D01*
X176697129Y-80999500D01*
X176697123Y-80999501D01*
X176637516Y-81005908D01*
X176502671Y-81056202D01*
X176502664Y-81056206D01*
X176387455Y-81142452D01*
X176387452Y-81142455D01*
X176301206Y-81257664D01*
X176301202Y-81257671D01*
X176250908Y-81392517D01*
X176244501Y-81452116D01*
X176244500Y-81452135D01*
X160176072Y-81452135D01*
X160102249Y-80767903D01*
X160101886Y-80763917D01*
X160014915Y-79597202D01*
X160014678Y-79593108D01*
X160011117Y-79507005D01*
X159966331Y-78424207D01*
X159966230Y-78420116D01*
X159963749Y-78120041D01*
X159956557Y-77250180D01*
X159956590Y-77246192D01*
X159985606Y-76076541D01*
X159985773Y-76072513D01*
X160053443Y-74904508D01*
X160053738Y-74900541D01*
X160159992Y-73735371D01*
X160160432Y-73731303D01*
X160305147Y-72570323D01*
X160305710Y-72566348D01*
X160488733Y-71410789D01*
X160489426Y-71406832D01*
X160710553Y-70257970D01*
X160711394Y-70253960D01*
X160769590Y-69997590D01*
X160970384Y-69113039D01*
X160971355Y-69109072D01*
X161267927Y-67977334D01*
X161269004Y-67973485D01*
X161602850Y-66852116D01*
X161604058Y-66848293D01*
X161974790Y-65738597D01*
X161976120Y-65734824D01*
X162383348Y-64637972D01*
X162384818Y-64634205D01*
X162828078Y-63551444D01*
X162829655Y-63547766D01*
X163308479Y-62480237D01*
X163310163Y-62476640D01*
X163824044Y-61425480D01*
X163825859Y-61421918D01*
X163966425Y-61156965D01*
X173044440Y-61156965D01*
X173044440Y-61332407D01*
X173083094Y-61495500D01*
X173084900Y-61503120D01*
X173163638Y-61659903D01*
X173213780Y-61721455D01*
X173228895Y-61740009D01*
X174374419Y-62885533D01*
X174374429Y-62885541D01*
X174454524Y-62950789D01*
X174454525Y-62950789D01*
X174454527Y-62950791D01*
X174611308Y-63029528D01*
X174782021Y-63069988D01*
X174782023Y-63069988D01*
X174957460Y-63069988D01*
X174957463Y-63069988D01*
X175128175Y-63029528D01*
X175254175Y-62966249D01*
X175322915Y-62953753D01*
X175387501Y-62980405D01*
X175397504Y-62989379D01*
X178172499Y-65764374D01*
X178172509Y-65764385D01*
X178176839Y-65768715D01*
X178176840Y-65768716D01*
X178288644Y-65880520D01*
X178375455Y-65930639D01*
X178375457Y-65930641D01*
X178413511Y-65952611D01*
X178425575Y-65959577D01*
X178578303Y-66000500D01*
X178736417Y-66000500D01*
X183050500Y-66000500D01*
X183117539Y-66020185D01*
X183163294Y-66072989D01*
X183174500Y-66124500D01*
X183174500Y-66362891D01*
X183154815Y-66429930D01*
X183115778Y-66468318D01*
X183003436Y-66537877D01*
X182839020Y-66687761D01*
X182704943Y-66865308D01*
X182704938Y-66865316D01*
X182605775Y-67064461D01*
X182605769Y-67064476D01*
X182544885Y-67278462D01*
X182544884Y-67278464D01*
X182524357Y-67499999D01*
X182524357Y-67500000D01*
X182544884Y-67721535D01*
X182544885Y-67721537D01*
X182605769Y-67935523D01*
X182605775Y-67935538D01*
X182704938Y-68134683D01*
X182704943Y-68134691D01*
X182839020Y-68312238D01*
X183003433Y-68462120D01*
X183003435Y-68462121D01*
X183003438Y-68462124D01*
X183115778Y-68531681D01*
X183162413Y-68583707D01*
X183174500Y-68637107D01*
X183174500Y-78876000D01*
X183174501Y-78876009D01*
X183186052Y-78983450D01*
X183186054Y-78983462D01*
X183197260Y-79034972D01*
X183231383Y-79137497D01*
X183231386Y-79137503D01*
X183309171Y-79258537D01*
X183309179Y-79258548D01*
X183354923Y-79311340D01*
X183354926Y-79311343D01*
X183354930Y-79311347D01*
X183463664Y-79405567D01*
X183463667Y-79405568D01*
X183463668Y-79405569D01*
X183557925Y-79448616D01*
X183594541Y-79465338D01*
X183661580Y-79485023D01*
X183661584Y-79485024D01*
X183804000Y-79505500D01*
X196275500Y-79505500D01*
X196342539Y-79525185D01*
X196388294Y-79577989D01*
X196399500Y-79629500D01*
X196399500Y-102972521D01*
X196399499Y-102972539D01*
X196399499Y-103138245D01*
X196399498Y-103138245D01*
X196399499Y-103138248D01*
X196440148Y-103289950D01*
X196440424Y-103290978D01*
X196457760Y-103321004D01*
X196457761Y-103321007D01*
X196519475Y-103427900D01*
X196519481Y-103427908D01*
X196638349Y-103546776D01*
X196638355Y-103546781D01*
X197948136Y-104856562D01*
X197981621Y-104917885D01*
X197976637Y-104987577D01*
X197938263Y-105040793D01*
X197911335Y-105062493D01*
X197207253Y-105766577D01*
X197207247Y-105766583D01*
X197207246Y-105766585D01*
X197186942Y-105791781D01*
X197169626Y-105813268D01*
X197154468Y-105846457D01*
X197108711Y-105899260D01*
X197093190Y-105907735D01*
X197059998Y-105922894D01*
X197013307Y-105960520D01*
X196309227Y-106664602D01*
X196309221Y-106664609D01*
X196271599Y-106711294D01*
X196256442Y-106744482D01*
X196210686Y-106797285D01*
X196195163Y-106805761D01*
X196161975Y-106820918D01*
X196115281Y-106858546D01*
X195411201Y-107562628D01*
X195411195Y-107562635D01*
X195373573Y-107609319D01*
X195358415Y-107642510D01*
X195312658Y-107695313D01*
X195297137Y-107703788D01*
X195263947Y-107718946D01*
X195217256Y-107756572D01*
X194513176Y-108460654D01*
X194513170Y-108460660D01*
X194513169Y-108460662D01*
X194492865Y-108485858D01*
X194475549Y-108507345D01*
X194460391Y-108540534D01*
X194414634Y-108593337D01*
X194399113Y-108601812D01*
X194365921Y-108616971D01*
X194319230Y-108654597D01*
X193615150Y-109358679D01*
X193615144Y-109358686D01*
X193577522Y-109405370D01*
X193562364Y-109438561D01*
X193516607Y-109491364D01*
X193501086Y-109499839D01*
X193467896Y-109514997D01*
X193421205Y-109552623D01*
X192717125Y-110256705D01*
X192717119Y-110256712D01*
X192679498Y-110303396D01*
X192664340Y-110336585D01*
X192618583Y-110389388D01*
X192603062Y-110397863D01*
X192569870Y-110413022D01*
X192523179Y-110450648D01*
X191819099Y-111154730D01*
X191819093Y-111154737D01*
X191781471Y-111201422D01*
X191766314Y-111234610D01*
X191720558Y-111287413D01*
X191705035Y-111295889D01*
X191671847Y-111311046D01*
X191625153Y-111348674D01*
X190921073Y-112052756D01*
X190921067Y-112052763D01*
X190883445Y-112099448D01*
X190883444Y-112099450D01*
X190823657Y-112230363D01*
X190803176Y-112372820D01*
X190823657Y-112515276D01*
X190883444Y-112646190D01*
X190883445Y-112646191D01*
X190883446Y-112646193D01*
X190921065Y-112692876D01*
X190921068Y-112692879D01*
X190921073Y-112692885D01*
X191848213Y-113620023D01*
X192049427Y-113821237D01*
X192096110Y-113858857D01*
X192227026Y-113918645D01*
X192227025Y-113918645D01*
X192244932Y-113921219D01*
X192369483Y-113939127D01*
X192511940Y-113918645D01*
X192642856Y-113858857D01*
X192689539Y-113821238D01*
X193393636Y-113117140D01*
X193431256Y-113070457D01*
X193446412Y-113037269D01*
X193492165Y-112984467D01*
X193507688Y-112975990D01*
X193540882Y-112960831D01*
X193587565Y-112923212D01*
X194291662Y-112219114D01*
X194329282Y-112172431D01*
X194344438Y-112139244D01*
X194390193Y-112086440D01*
X194405710Y-112077966D01*
X194438908Y-112062806D01*
X194485591Y-112025187D01*
X195189688Y-111321089D01*
X195227308Y-111274406D01*
X195242464Y-111241216D01*
X195288218Y-111188415D01*
X195303746Y-111179936D01*
X195307988Y-111177998D01*
X195336933Y-111164780D01*
X195383616Y-111127161D01*
X196087713Y-110423063D01*
X196125333Y-110376380D01*
X196140489Y-110343193D01*
X196186244Y-110290389D01*
X196201761Y-110281915D01*
X196234959Y-110266755D01*
X196281642Y-110229136D01*
X196985739Y-109525038D01*
X197023359Y-109478355D01*
X197038515Y-109445165D01*
X197084269Y-109392364D01*
X197099797Y-109383885D01*
X197104039Y-109381947D01*
X197132984Y-109368729D01*
X197179667Y-109331110D01*
X197883764Y-108627012D01*
X197921384Y-108580329D01*
X197936540Y-108547141D01*
X197982293Y-108494339D01*
X197997816Y-108485862D01*
X198031010Y-108470703D01*
X198077693Y-108433084D01*
X198781790Y-107728986D01*
X198819410Y-107682303D01*
X198834566Y-107649116D01*
X198880321Y-107596312D01*
X198895838Y-107587838D01*
X198929036Y-107572678D01*
X198975719Y-107535059D01*
X199679816Y-106830961D01*
X199717436Y-106784278D01*
X199732592Y-106751088D01*
X199778346Y-106698287D01*
X199793874Y-106689808D01*
X199798116Y-106687870D01*
X199827061Y-106674652D01*
X199873744Y-106637033D01*
X200577841Y-105932935D01*
X200615461Y-105886252D01*
X200630617Y-105853064D01*
X200676370Y-105800262D01*
X200691893Y-105791785D01*
X200725087Y-105776626D01*
X200771770Y-105739007D01*
X201475867Y-105034909D01*
X201505744Y-104997834D01*
X201513485Y-104988229D01*
X201513485Y-104988227D01*
X201513487Y-104988226D01*
X201528642Y-104955038D01*
X201574394Y-104902236D01*
X201589913Y-104893761D01*
X201623112Y-104878601D01*
X201669795Y-104840982D01*
X202373892Y-104136884D01*
X202411512Y-104090201D01*
X202426668Y-104057013D01*
X202472421Y-104004211D01*
X202487944Y-103995734D01*
X202521138Y-103980575D01*
X202567821Y-103942956D01*
X203271918Y-103238858D01*
X203309538Y-103192175D01*
X203324694Y-103158988D01*
X203370449Y-103106184D01*
X203385966Y-103097710D01*
X203419164Y-103082550D01*
X203465847Y-103044931D01*
X204065313Y-102445463D01*
X204126636Y-102411979D01*
X204152994Y-102409145D01*
X204974654Y-102409145D01*
X205041693Y-102428830D01*
X205087448Y-102481634D01*
X205097392Y-102550792D01*
X205068367Y-102614348D01*
X205062335Y-102620826D01*
X204723798Y-102959363D01*
X204723792Y-102959369D01*
X204723791Y-102959371D01*
X204712747Y-102973076D01*
X204686170Y-103006055D01*
X204686169Y-103006057D01*
X204626382Y-103136970D01*
X204605901Y-103279427D01*
X204626382Y-103421883D01*
X204686169Y-103552797D01*
X204686170Y-103552798D01*
X204686171Y-103552800D01*
X204723790Y-103599483D01*
X204723793Y-103599486D01*
X204723798Y-103599492D01*
X205261192Y-104136884D01*
X205427888Y-104303580D01*
X205458635Y-104328358D01*
X205474568Y-104341198D01*
X205474569Y-104341198D01*
X205474571Y-104341200D01*
X205507756Y-104356355D01*
X205560560Y-104402109D01*
X205569039Y-104417637D01*
X205584194Y-104450822D01*
X205584195Y-104450823D01*
X205584196Y-104450825D01*
X205621815Y-104497508D01*
X205621818Y-104497511D01*
X205621823Y-104497517D01*
X206159215Y-105034907D01*
X206325913Y-105201605D01*
X206372596Y-105239225D01*
X206405784Y-105254381D01*
X206458586Y-105300135D01*
X206467064Y-105315661D01*
X206482222Y-105348851D01*
X206519841Y-105395534D01*
X206519844Y-105395537D01*
X206519849Y-105395543D01*
X207057243Y-105932935D01*
X207223939Y-106099631D01*
X207270622Y-106137251D01*
X207303810Y-106152407D01*
X207356612Y-106198161D01*
X207365090Y-106213687D01*
X207380248Y-106246877D01*
X207417867Y-106293560D01*
X207417870Y-106293563D01*
X207417875Y-106293569D01*
X207955267Y-106830959D01*
X208121965Y-106997657D01*
X208152712Y-107022435D01*
X208168645Y-107035275D01*
X208168646Y-107035275D01*
X208168648Y-107035277D01*
X208201833Y-107050432D01*
X208254637Y-107096186D01*
X208263116Y-107111714D01*
X208278271Y-107144899D01*
X208278272Y-107144900D01*
X208278273Y-107144902D01*
X208315892Y-107191585D01*
X208315895Y-107191588D01*
X208315900Y-107191594D01*
X208853292Y-107728984D01*
X209019990Y-107895682D01*
X209066673Y-107933302D01*
X209099861Y-107948458D01*
X209152663Y-107994212D01*
X209161141Y-108009738D01*
X209176299Y-108042928D01*
X209213918Y-108089611D01*
X209213921Y-108089614D01*
X209213926Y-108089620D01*
X209751320Y-108627012D01*
X209918016Y-108793708D01*
X209948763Y-108818486D01*
X209964696Y-108831326D01*
X209964697Y-108831326D01*
X209964699Y-108831328D01*
X209997884Y-108846483D01*
X210050688Y-108892237D01*
X210059167Y-108907765D01*
X210074322Y-108940950D01*
X210074323Y-108940951D01*
X210074324Y-108940953D01*
X210111943Y-108987636D01*
X210111946Y-108987639D01*
X210111951Y-108987645D01*
X210649344Y-109525036D01*
X210816041Y-109691733D01*
X210862724Y-109729353D01*
X210895912Y-109744509D01*
X210948714Y-109790263D01*
X210957192Y-109805789D01*
X210972350Y-109838979D01*
X211009969Y-109885662D01*
X211009972Y-109885665D01*
X211009977Y-109885671D01*
X211547369Y-110423061D01*
X211714067Y-110589759D01*
X211760750Y-110627379D01*
X211793938Y-110642535D01*
X211846740Y-110688289D01*
X211855218Y-110703815D01*
X211870376Y-110737005D01*
X211907995Y-110783688D01*
X211907998Y-110783691D01*
X211908003Y-110783697D01*
X212445395Y-111321087D01*
X212612093Y-111487785D01*
X212658776Y-111525405D01*
X212789692Y-111585193D01*
X212789691Y-111585193D01*
X212807598Y-111587767D01*
X212932149Y-111605675D01*
X213074606Y-111585193D01*
X213205522Y-111525405D01*
X213252205Y-111487786D01*
X214380566Y-110359424D01*
X214418186Y-110312741D01*
X214477974Y-110181825D01*
X214477974Y-110181824D01*
X214481658Y-110173758D01*
X214484907Y-110175242D01*
X214513465Y-110130796D01*
X214577017Y-110101764D01*
X214594678Y-110100500D01*
X216199903Y-110100500D01*
X216266942Y-110120185D01*
X216287584Y-110136819D01*
X221988584Y-115837819D01*
X222022069Y-115899142D01*
X222017085Y-115968834D01*
X221975213Y-116024767D01*
X221909749Y-116049184D01*
X221900903Y-116049500D01*
X218450097Y-116049500D01*
X218383058Y-116029815D01*
X218362416Y-116013181D01*
X216677586Y-114328351D01*
X216644101Y-114267028D01*
X216642529Y-114258315D01*
X216642485Y-114258010D01*
X216641720Y-114252688D01*
X216581932Y-114121772D01*
X216544313Y-114075089D01*
X216544308Y-114075084D01*
X216544304Y-114075079D01*
X215415958Y-112946735D01*
X215415951Y-112946728D01*
X215369268Y-112909108D01*
X215238352Y-112849320D01*
X215238350Y-112849319D01*
X215238352Y-112849319D01*
X215095895Y-112828838D01*
X214953438Y-112849319D01*
X214822524Y-112909106D01*
X214775829Y-112946735D01*
X214071749Y-113650817D01*
X214071743Y-113650824D01*
X214034121Y-113697508D01*
X214018963Y-113730699D01*
X213973206Y-113783502D01*
X213957685Y-113791977D01*
X213924495Y-113807135D01*
X213877804Y-113844761D01*
X213173724Y-114548843D01*
X213173718Y-114548850D01*
X213136096Y-114595535D01*
X213120939Y-114628723D01*
X213075183Y-114681526D01*
X213059660Y-114690002D01*
X213026472Y-114705159D01*
X212979778Y-114742787D01*
X212275698Y-115446869D01*
X212275692Y-115446876D01*
X212238070Y-115493561D01*
X212238068Y-115493565D01*
X212222913Y-115526748D01*
X212177157Y-115579551D01*
X212161634Y-115588027D01*
X212128448Y-115603183D01*
X212081753Y-115640812D01*
X211377673Y-116344894D01*
X211377667Y-116344901D01*
X211340045Y-116391586D01*
X211324888Y-116424774D01*
X211279132Y-116477577D01*
X211263609Y-116486053D01*
X211230421Y-116501210D01*
X211183727Y-116538838D01*
X210479647Y-117242920D01*
X210479641Y-117242926D01*
X210479640Y-117242928D01*
X210471548Y-117252970D01*
X210442020Y-117289611D01*
X210426862Y-117322800D01*
X210381105Y-117375603D01*
X210365584Y-117384078D01*
X210332392Y-117399237D01*
X210285701Y-117436863D01*
X209581621Y-118140945D01*
X209581615Y-118140951D01*
X209581614Y-118140953D01*
X209579085Y-118144091D01*
X209543993Y-118187636D01*
X209528835Y-118220827D01*
X209483078Y-118273630D01*
X209467557Y-118282105D01*
X209434367Y-118297263D01*
X209387676Y-118334889D01*
X208683596Y-119038971D01*
X208683590Y-119038978D01*
X208645968Y-119085663D01*
X208630811Y-119118851D01*
X208585055Y-119171654D01*
X208569532Y-119180130D01*
X208536344Y-119195287D01*
X208489650Y-119232915D01*
X207785570Y-119936997D01*
X207785564Y-119937003D01*
X207785563Y-119937005D01*
X207777471Y-119947047D01*
X207747943Y-119983688D01*
X207732785Y-120016877D01*
X207687028Y-120069680D01*
X207671507Y-120078155D01*
X207638315Y-120093314D01*
X207591624Y-120130940D01*
X206887544Y-120835022D01*
X206887538Y-120835029D01*
X206849916Y-120881713D01*
X206834758Y-120914904D01*
X206789001Y-120967707D01*
X206773480Y-120976182D01*
X206740290Y-120991340D01*
X206693599Y-121028966D01*
X205989519Y-121733048D01*
X205989513Y-121733055D01*
X205951892Y-121779739D01*
X205936734Y-121812928D01*
X205890977Y-121865731D01*
X205875456Y-121874206D01*
X205842264Y-121889365D01*
X205795573Y-121926991D01*
X205091493Y-122631073D01*
X205091480Y-122631088D01*
X205069789Y-122658003D01*
X205012395Y-122697849D01*
X204942570Y-122700340D01*
X204885560Y-122667874D01*
X195639926Y-113422240D01*
X195606441Y-113360917D01*
X195604389Y-113348462D01*
X195594594Y-113261519D01*
X195535015Y-113091252D01*
X195439042Y-112938512D01*
X195311488Y-112810958D01*
X195158749Y-112714985D01*
X194988480Y-112655405D01*
X194988475Y-112655404D01*
X194809230Y-112635209D01*
X194809222Y-112635209D01*
X194629976Y-112655404D01*
X194629971Y-112655405D01*
X194459702Y-112714985D01*
X194306963Y-112810958D01*
X194179410Y-112938511D01*
X194083437Y-113091250D01*
X194023857Y-113261519D01*
X194023856Y-113261524D01*
X194003661Y-113440770D01*
X194003661Y-113440777D01*
X194023856Y-113620023D01*
X194023857Y-113620028D01*
X194083437Y-113790297D01*
X194126517Y-113858858D01*
X194179410Y-113943036D01*
X194306964Y-114070590D01*
X194459704Y-114166563D01*
X194629971Y-114226142D01*
X194716894Y-114235935D01*
X194781305Y-114263000D01*
X194790690Y-114271474D01*
X204036326Y-123517110D01*
X204069811Y-123578433D01*
X204064827Y-123648125D01*
X204026452Y-123701342D01*
X203999523Y-123723042D01*
X203295442Y-124427125D01*
X203295436Y-124427132D01*
X203257814Y-124473817D01*
X203257813Y-124473819D01*
X203198026Y-124604732D01*
X203177545Y-124747189D01*
X203198026Y-124889645D01*
X203257813Y-125020559D01*
X203257814Y-125020560D01*
X203257815Y-125020562D01*
X203295434Y-125067245D01*
X203295437Y-125067248D01*
X203295442Y-125067254D01*
X204187885Y-125959695D01*
X204423796Y-126195606D01*
X204470479Y-126233226D01*
X204601395Y-126293014D01*
X204601394Y-126293014D01*
X204619301Y-126295588D01*
X204743852Y-126313496D01*
X204886309Y-126293014D01*
X204949444Y-126264180D01*
X205018601Y-126254237D01*
X205082157Y-126283261D01*
X205088636Y-126289294D01*
X205663181Y-126863839D01*
X205696666Y-126925162D01*
X205699500Y-126951520D01*
X205699500Y-127234697D01*
X205702356Y-127270991D01*
X205702357Y-127270997D01*
X205747504Y-127426390D01*
X205747505Y-127426393D01*
X205829881Y-127565684D01*
X205829887Y-127565692D01*
X205944307Y-127680112D01*
X205944311Y-127680115D01*
X205944313Y-127680117D01*
X206083605Y-127762494D01*
X206124587Y-127774400D01*
X206239002Y-127807642D01*
X206239005Y-127807642D01*
X206239007Y-127807643D01*
X206275310Y-127810500D01*
X206558480Y-127810500D01*
X206625519Y-127830185D01*
X206646161Y-127846819D01*
X206663181Y-127863839D01*
X206696666Y-127925162D01*
X206699500Y-127951520D01*
X206699500Y-128234697D01*
X206702356Y-128270991D01*
X206702357Y-128270997D01*
X206747504Y-128426390D01*
X206747505Y-128426393D01*
X206829881Y-128565684D01*
X206829887Y-128565692D01*
X206944307Y-128680112D01*
X206944311Y-128680115D01*
X206944313Y-128680117D01*
X207083605Y-128762494D01*
X207105933Y-128768981D01*
X207239002Y-128807642D01*
X207239005Y-128807642D01*
X207239007Y-128807643D01*
X207275310Y-128810500D01*
X207275318Y-128810500D01*
X207684682Y-128810500D01*
X207684690Y-128810500D01*
X207720993Y-128807643D01*
X207720995Y-128807642D01*
X207720997Y-128807642D01*
X207761975Y-128795736D01*
X207876395Y-128762494D01*
X207952022Y-128717767D01*
X208015143Y-128700500D01*
X211574506Y-128700500D01*
X211640477Y-128719506D01*
X211650474Y-128725787D01*
X211650475Y-128725787D01*
X211650478Y-128725789D01*
X211755378Y-128762495D01*
X211820745Y-128785368D01*
X211820750Y-128785369D01*
X211999996Y-128805565D01*
X212000000Y-128805565D01*
X212000004Y-128805565D01*
X212179249Y-128785369D01*
X212179252Y-128785368D01*
X212179255Y-128785368D01*
X212349522Y-128725789D01*
X212350488Y-128725181D01*
X212359523Y-128719506D01*
X212425494Y-128700500D01*
X214431007Y-128700500D01*
X220454532Y-128700500D01*
X220521571Y-128720185D01*
X220542213Y-128736819D01*
X225965172Y-134159778D01*
X225998657Y-134221101D01*
X226000229Y-134265105D01*
X225981145Y-134397845D01*
X226001626Y-134540304D01*
X226061413Y-134671219D01*
X226061415Y-134671221D01*
X226099033Y-134717903D01*
X226099036Y-134717906D01*
X226099041Y-134717912D01*
X227941570Y-136560438D01*
X227941580Y-136560447D01*
X227988255Y-136598062D01*
X228078560Y-136639303D01*
X228119172Y-136657850D01*
X228261630Y-136678332D01*
X228394370Y-136659247D01*
X228463529Y-136669191D01*
X228499698Y-136694304D01*
X230349504Y-138544111D01*
X230349505Y-138544112D01*
X230464243Y-138620777D01*
X230591718Y-138673578D01*
X230591723Y-138673580D01*
X230591727Y-138673580D01*
X230591728Y-138673581D01*
X230727054Y-138700500D01*
X230727057Y-138700500D01*
X233818996Y-138700500D01*
X233910040Y-138682389D01*
X233954328Y-138673580D01*
X234018069Y-138647177D01*
X234081807Y-138620777D01*
X234081808Y-138620776D01*
X234081811Y-138620775D01*
X234196543Y-138544114D01*
X238588587Y-134152070D01*
X238665248Y-134037338D01*
X238718053Y-133909855D01*
X238730466Y-133847450D01*
X238744973Y-133774523D01*
X238744973Y-130955174D01*
X238764658Y-130888135D01*
X238817460Y-130842380D01*
X238851712Y-130826739D01*
X238898394Y-130789121D01*
X239673202Y-130014311D01*
X239710822Y-129967629D01*
X239770610Y-129836713D01*
X239791092Y-129694256D01*
X239770610Y-129551798D01*
X239710823Y-129420883D01*
X239704390Y-129412900D01*
X239673204Y-129374200D01*
X239673199Y-129374195D01*
X239673195Y-129374190D01*
X237830666Y-127531664D01*
X237830660Y-127531659D01*
X237830656Y-127531655D01*
X237783981Y-127494040D01*
X237653064Y-127434252D01*
X237531088Y-127416715D01*
X237510607Y-127413771D01*
X237510606Y-127413771D01*
X237368150Y-127434252D01*
X237237235Y-127494039D01*
X237190542Y-127531667D01*
X236415747Y-128306465D01*
X236415738Y-128306475D01*
X236378123Y-128353150D01*
X236318335Y-128484067D01*
X236297854Y-128626524D01*
X236318335Y-128768981D01*
X236378122Y-128899896D01*
X236378124Y-128899898D01*
X236415742Y-128946580D01*
X236415745Y-128946583D01*
X236415750Y-128946589D01*
X237307654Y-129838490D01*
X237341139Y-129899813D01*
X237343973Y-129926171D01*
X237343973Y-133364008D01*
X237324288Y-133431047D01*
X237307654Y-133451689D01*
X233496162Y-137263181D01*
X233434839Y-137296666D01*
X233408481Y-137299500D01*
X232823039Y-137299500D01*
X232756000Y-137279815D01*
X232710245Y-137227011D01*
X232700301Y-137157853D01*
X232729326Y-137094297D01*
X232735358Y-137087819D01*
X233183872Y-136639303D01*
X233493068Y-136330106D01*
X233530688Y-136283424D01*
X233590476Y-136152508D01*
X233610958Y-136010051D01*
X233590476Y-135867593D01*
X233580113Y-135844901D01*
X233530689Y-135736678D01*
X233504071Y-135703647D01*
X233493070Y-135689995D01*
X233493065Y-135689990D01*
X233493061Y-135689985D01*
X231650532Y-133847459D01*
X231650526Y-133847454D01*
X231650522Y-133847450D01*
X231603847Y-133809835D01*
X231472930Y-133750047D01*
X231350954Y-133732510D01*
X231330473Y-133729566D01*
X231330472Y-133729566D01*
X231188016Y-133750047D01*
X231057101Y-133809834D01*
X231010408Y-133847462D01*
X230809664Y-134048206D01*
X230748341Y-134081691D01*
X230678649Y-134076707D01*
X230634302Y-134048206D01*
X214007371Y-117421275D01*
X213973886Y-117359952D01*
X213978870Y-117290260D01*
X214017244Y-117237043D01*
X214044164Y-117215351D01*
X214748261Y-116511253D01*
X214769955Y-116484332D01*
X214827345Y-116444485D01*
X214897170Y-116441990D01*
X214954185Y-116474457D01*
X216410247Y-117930520D01*
X216410249Y-117930521D01*
X216410253Y-117930524D01*
X216542676Y-118006977D01*
X216547179Y-118009577D01*
X216670740Y-118042685D01*
X216730399Y-118079051D01*
X216760928Y-118141898D01*
X216755687Y-118203414D01*
X216714632Y-118320742D01*
X216714630Y-118320750D01*
X216694435Y-118499996D01*
X216694435Y-118500003D01*
X216714630Y-118679249D01*
X216714631Y-118679254D01*
X216774211Y-118849523D01*
X216870184Y-119002262D01*
X216997738Y-119129816D01*
X217150478Y-119225789D01*
X217320745Y-119285368D01*
X217407669Y-119295161D01*
X217472080Y-119322226D01*
X217481464Y-119330699D01*
X229970894Y-131820130D01*
X229970896Y-131820131D01*
X229970900Y-131820134D01*
X230107819Y-131899183D01*
X230107826Y-131899187D01*
X230260553Y-131940111D01*
X230260555Y-131940111D01*
X230426264Y-131940111D01*
X230426280Y-131940110D01*
X230454084Y-131940110D01*
X230521123Y-131959795D01*
X230541765Y-131976429D01*
X231533676Y-132968339D01*
X231533680Y-132968342D01*
X231533682Y-132968344D01*
X231580357Y-133005959D01*
X231711274Y-133065747D01*
X231853732Y-133086229D01*
X231996189Y-133065747D01*
X232127105Y-133005959D01*
X232173787Y-132968341D01*
X232948595Y-132193531D01*
X232986215Y-132146849D01*
X233046003Y-132015933D01*
X233066485Y-131873476D01*
X233046003Y-131731018D01*
X232986216Y-131600103D01*
X232979783Y-131592120D01*
X232948597Y-131553420D01*
X232948592Y-131553415D01*
X232948588Y-131553410D01*
X231106059Y-129710884D01*
X231106053Y-129710879D01*
X231106049Y-129710875D01*
X231059374Y-129673260D01*
X230928457Y-129613472D01*
X230806481Y-129595935D01*
X230786000Y-129592991D01*
X230785999Y-129592991D01*
X230643543Y-129613472D01*
X230512628Y-129673259D01*
X230465935Y-129710887D01*
X230100710Y-130076112D01*
X230039387Y-130109597D01*
X229969695Y-130104613D01*
X229925348Y-130076112D01*
X218330700Y-118481465D01*
X218297215Y-118420142D01*
X218295163Y-118407686D01*
X218285368Y-118320745D01*
X218248524Y-118215453D01*
X218244964Y-118145676D01*
X218279693Y-118085048D01*
X218341686Y-118052821D01*
X218365567Y-118050500D01*
X226208561Y-118050500D01*
X226275600Y-118070185D01*
X226282872Y-118075233D01*
X226307668Y-118093795D01*
X226307671Y-118093797D01*
X226442517Y-118144091D01*
X226442516Y-118144091D01*
X226449444Y-118144835D01*
X226502127Y-118150500D01*
X227497872Y-118150499D01*
X227557483Y-118144091D01*
X227692331Y-118093796D01*
X227775689Y-118031393D01*
X227841153Y-118006977D01*
X227909426Y-118021828D01*
X227924309Y-118031393D01*
X227950255Y-118050816D01*
X228007669Y-118093796D01*
X228007671Y-118093797D01*
X228142517Y-118144091D01*
X228142516Y-118144091D01*
X228149444Y-118144835D01*
X228202127Y-118150500D01*
X229197872Y-118150499D01*
X229257483Y-118144091D01*
X229392331Y-118093796D01*
X229417128Y-118075233D01*
X229482592Y-118050816D01*
X229491439Y-118050500D01*
X229626088Y-118050500D01*
X229693127Y-118070185D01*
X229713769Y-118086819D01*
X235775868Y-124148918D01*
X235809353Y-124210241D01*
X235804369Y-124279933D01*
X235800982Y-124288110D01*
X235773862Y-124347494D01*
X235753381Y-124489949D01*
X235773862Y-124632406D01*
X235833649Y-124763321D01*
X235833651Y-124763323D01*
X235871269Y-124810005D01*
X235871272Y-124810008D01*
X235871277Y-124810014D01*
X237436792Y-126375526D01*
X237713810Y-126652544D01*
X237713814Y-126652547D01*
X237713816Y-126652549D01*
X237760491Y-126690164D01*
X237891408Y-126749952D01*
X238033866Y-126770434D01*
X238176323Y-126749952D01*
X238307239Y-126690164D01*
X238353921Y-126652546D01*
X239128729Y-125877736D01*
X239166349Y-125831054D01*
X239226137Y-125700138D01*
X239246619Y-125557681D01*
X239226137Y-125415223D01*
X239198395Y-125354477D01*
X239166350Y-125284308D01*
X239151424Y-125265786D01*
X239128731Y-125237625D01*
X239128726Y-125237620D01*
X239128722Y-125237615D01*
X237286193Y-123395089D01*
X237286183Y-123395080D01*
X237239508Y-123357465D01*
X237108591Y-123297677D01*
X236986615Y-123280140D01*
X236966134Y-123277196D01*
X236966133Y-123277196D01*
X236823679Y-123297677D01*
X236764295Y-123324797D01*
X236695136Y-123334740D01*
X236631581Y-123305714D01*
X236625103Y-123299683D01*
X230787601Y-117462181D01*
X230754116Y-117400858D01*
X230759100Y-117331166D01*
X230800972Y-117275233D01*
X230866436Y-117250816D01*
X230875282Y-117250500D01*
X232418191Y-117250500D01*
X232485230Y-117270185D01*
X232505872Y-117286819D01*
X239912443Y-124693390D01*
X239945928Y-124754713D01*
X239940944Y-124824405D01*
X239937557Y-124832582D01*
X239910437Y-124891966D01*
X239889956Y-125034421D01*
X239910437Y-125176878D01*
X239970224Y-125307793D01*
X239970226Y-125307795D01*
X240007844Y-125354477D01*
X240007847Y-125354480D01*
X240007852Y-125354486D01*
X241553527Y-126900158D01*
X241850385Y-127197016D01*
X241850389Y-127197019D01*
X241850391Y-127197021D01*
X241897066Y-127234636D01*
X241983723Y-127274211D01*
X242027983Y-127294424D01*
X242170441Y-127314906D01*
X242312898Y-127294424D01*
X242424497Y-127243458D01*
X242443812Y-127234637D01*
X242443812Y-127234636D01*
X242443814Y-127234636D01*
X242490496Y-127197018D01*
X243265304Y-126422208D01*
X243302924Y-126375526D01*
X243362712Y-126244610D01*
X243383194Y-126102153D01*
X243362712Y-125959695D01*
X243325284Y-125877739D01*
X243302925Y-125828780D01*
X243296492Y-125820797D01*
X243265306Y-125782097D01*
X243265301Y-125782092D01*
X243265297Y-125782087D01*
X241422768Y-123939561D01*
X241422758Y-123939552D01*
X241376083Y-123901937D01*
X241245166Y-123842149D01*
X241123190Y-123824612D01*
X241102709Y-123821668D01*
X241102708Y-123821668D01*
X240960254Y-123842149D01*
X240900870Y-123869269D01*
X240831711Y-123879212D01*
X240768156Y-123850186D01*
X240761678Y-123844155D01*
X233579704Y-116662181D01*
X233546219Y-116600858D01*
X233551203Y-116531166D01*
X233593075Y-116475233D01*
X233658539Y-116450816D01*
X233667385Y-116450500D01*
X235210293Y-116450500D01*
X235277332Y-116470185D01*
X235297974Y-116486819D01*
X239367971Y-120556816D01*
X239401456Y-120618139D01*
X239396472Y-120687831D01*
X239393085Y-120696008D01*
X239365965Y-120755392D01*
X239345484Y-120897847D01*
X239365965Y-121040304D01*
X239425752Y-121171219D01*
X239425754Y-121171221D01*
X239463372Y-121217903D01*
X239463375Y-121217906D01*
X239463380Y-121217912D01*
X241013788Y-122768317D01*
X241305913Y-123060442D01*
X241305917Y-123060445D01*
X241305919Y-123060447D01*
X241352594Y-123098062D01*
X241483511Y-123157850D01*
X241625969Y-123178332D01*
X241768426Y-123157850D01*
X241899342Y-123098062D01*
X241946024Y-123060444D01*
X242720832Y-122285634D01*
X242758452Y-122238952D01*
X242818240Y-122108036D01*
X242838722Y-121965579D01*
X242818240Y-121823121D01*
X242790498Y-121762375D01*
X242758453Y-121692206D01*
X242752020Y-121684223D01*
X242720834Y-121645523D01*
X242720829Y-121645518D01*
X242720825Y-121645513D01*
X240878296Y-119802987D01*
X240878286Y-119802978D01*
X240831611Y-119765363D01*
X240700694Y-119705575D01*
X240578718Y-119688038D01*
X240558237Y-119685094D01*
X240558236Y-119685094D01*
X240415782Y-119705575D01*
X240356398Y-119732695D01*
X240287239Y-119742638D01*
X240223684Y-119713612D01*
X240217206Y-119707581D01*
X236371806Y-115862181D01*
X236338321Y-115800858D01*
X236343305Y-115731166D01*
X236385177Y-115675233D01*
X236450641Y-115650816D01*
X236459487Y-115650500D01*
X238002396Y-115650500D01*
X238069435Y-115670185D01*
X238090077Y-115686819D01*
X243504546Y-121101289D01*
X243538031Y-121162612D01*
X243533047Y-121232304D01*
X243529659Y-121240481D01*
X243502541Y-121299860D01*
X243502540Y-121299861D01*
X243482059Y-121442318D01*
X243502540Y-121584776D01*
X243562327Y-121715691D01*
X243562329Y-121715693D01*
X243599947Y-121762375D01*
X243599950Y-121762378D01*
X243599955Y-121762384D01*
X245137257Y-123299683D01*
X245442488Y-123604914D01*
X245442492Y-123604917D01*
X245442494Y-123604919D01*
X245489169Y-123642534D01*
X245605054Y-123695457D01*
X245620086Y-123702322D01*
X245762544Y-123722804D01*
X245905001Y-123702322D01*
X246022251Y-123648775D01*
X246035915Y-123642535D01*
X246035915Y-123642534D01*
X246035917Y-123642534D01*
X246082599Y-123604916D01*
X246857407Y-122830106D01*
X246895027Y-122783424D01*
X246954815Y-122652508D01*
X246975297Y-122510051D01*
X246954815Y-122367593D01*
X246917387Y-122285637D01*
X246895028Y-122236678D01*
X246888595Y-122228695D01*
X246857409Y-122189995D01*
X246857404Y-122189990D01*
X246857400Y-122189985D01*
X245014871Y-120347459D01*
X245014861Y-120347450D01*
X244968186Y-120309835D01*
X244837269Y-120250047D01*
X244715293Y-120232510D01*
X244694812Y-120229566D01*
X244694811Y-120229566D01*
X244552354Y-120250047D01*
X244552353Y-120250048D01*
X244492974Y-120277166D01*
X244423816Y-120287110D01*
X244360260Y-120258085D01*
X244353782Y-120252053D01*
X238790083Y-114688355D01*
X238790081Y-114688352D01*
X238671210Y-114569481D01*
X238671209Y-114569480D01*
X238584397Y-114519360D01*
X238584397Y-114519359D01*
X238584393Y-114519358D01*
X238534278Y-114490423D01*
X238381550Y-114449499D01*
X238223436Y-114449499D01*
X238215840Y-114449499D01*
X238215824Y-114449500D01*
X229491439Y-114449500D01*
X229424400Y-114429815D01*
X229417128Y-114424767D01*
X229392331Y-114406204D01*
X229392328Y-114406202D01*
X229257482Y-114355908D01*
X229257483Y-114355908D01*
X229197883Y-114349501D01*
X229197881Y-114349500D01*
X229197873Y-114349500D01*
X229197864Y-114349500D01*
X228202129Y-114349500D01*
X228202123Y-114349501D01*
X228142516Y-114355908D01*
X228007671Y-114406202D01*
X228007669Y-114406203D01*
X227924311Y-114468606D01*
X227858847Y-114493023D01*
X227790574Y-114478172D01*
X227775689Y-114468606D01*
X227692330Y-114406203D01*
X227692328Y-114406202D01*
X227557482Y-114355908D01*
X227557483Y-114355908D01*
X227497883Y-114349501D01*
X227497881Y-114349500D01*
X227497873Y-114349500D01*
X227497864Y-114349500D01*
X226502129Y-114349500D01*
X226502123Y-114349501D01*
X226442516Y-114355908D01*
X226307671Y-114406202D01*
X226307668Y-114406204D01*
X226282872Y-114424767D01*
X226217408Y-114449184D01*
X226208561Y-114449500D01*
X224350098Y-114449500D01*
X224283059Y-114429815D01*
X224262417Y-114413181D01*
X214349218Y-104499983D01*
X239199500Y-104499983D01*
X239199500Y-107600001D01*
X239199501Y-107600018D01*
X239210000Y-107702796D01*
X239210001Y-107702799D01*
X239265185Y-107869331D01*
X239265187Y-107869336D01*
X239281436Y-107895680D01*
X239357288Y-108018656D01*
X239481344Y-108142712D01*
X239630666Y-108234814D01*
X239797203Y-108289999D01*
X239899991Y-108300500D01*
X241100008Y-108300499D01*
X241202797Y-108289999D01*
X241369334Y-108234814D01*
X241518656Y-108142712D01*
X241642712Y-108018656D01*
X241734814Y-107869334D01*
X241789999Y-107702797D01*
X241800500Y-107600009D01*
X241800500Y-106331859D01*
X241820185Y-106264820D01*
X241872989Y-106219065D01*
X241924500Y-106207859D01*
X246223809Y-106207859D01*
X246290848Y-106227544D01*
X246311490Y-106244178D01*
X248437303Y-108369990D01*
X248483986Y-108407610D01*
X248483987Y-108407610D01*
X248483989Y-108407612D01*
X248614899Y-108467397D01*
X248614900Y-108467397D01*
X248614902Y-108467398D01*
X248757359Y-108487879D01*
X248899816Y-108467398D01*
X249030732Y-108407610D01*
X249077415Y-108369991D01*
X251619990Y-105827415D01*
X251657610Y-105780732D01*
X251664075Y-105766577D01*
X251717397Y-105649818D01*
X251717396Y-105649818D01*
X251717398Y-105649816D01*
X251737879Y-105507359D01*
X251717398Y-105364902D01*
X251696439Y-105319010D01*
X251686496Y-105249853D01*
X251715520Y-105186297D01*
X251774298Y-105148522D01*
X251844167Y-105148521D01*
X251901442Y-105184592D01*
X251925814Y-105211698D01*
X251925827Y-105211712D01*
X253295642Y-106581527D01*
X253334840Y-106616771D01*
X253528828Y-106747884D01*
X253528836Y-106747889D01*
X253638113Y-106797285D01*
X253742190Y-106844331D01*
X253742189Y-106844331D01*
X253968784Y-106903331D01*
X254202078Y-106923187D01*
X254202081Y-106923187D01*
X254202084Y-106923187D01*
X254435377Y-106903331D01*
X254435380Y-106903330D01*
X254435382Y-106903330D01*
X254661972Y-106844331D01*
X254868241Y-106751091D01*
X254875325Y-106747889D01*
X254875326Y-106747887D01*
X254875331Y-106747886D01*
X255069322Y-106616771D01*
X255108506Y-106581540D01*
X255190047Y-106499999D01*
X261144341Y-106499999D01*
X261144341Y-106500000D01*
X261164936Y-106735403D01*
X261164938Y-106735413D01*
X261226094Y-106963655D01*
X261226096Y-106963659D01*
X261226097Y-106963663D01*
X261276578Y-107071919D01*
X261325965Y-107177830D01*
X261325967Y-107177834D01*
X261434281Y-107332521D01*
X261461505Y-107371401D01*
X261628599Y-107538495D01*
X261716449Y-107600008D01*
X261822165Y-107674032D01*
X261822167Y-107674033D01*
X261822170Y-107674035D01*
X262036337Y-107773903D01*
X262264592Y-107835063D01*
X262452918Y-107851539D01*
X262499999Y-107855659D01*
X262500000Y-107855659D01*
X262500001Y-107855659D01*
X262539234Y-107852226D01*
X262735408Y-107835063D01*
X262963663Y-107773903D01*
X263177830Y-107674035D01*
X263371401Y-107538495D01*
X263538495Y-107371401D01*
X263674035Y-107177830D01*
X263773903Y-106963663D01*
X263835063Y-106735408D01*
X263855659Y-106500000D01*
X263835063Y-106264592D01*
X263830558Y-106247779D01*
X263832219Y-106177932D01*
X263862649Y-106128006D01*
X269566392Y-100424263D01*
X269627713Y-100390780D01*
X269697405Y-100395764D01*
X269731876Y-100415394D01*
X269756957Y-100435606D01*
X269756960Y-100435608D01*
X269887870Y-100495393D01*
X269887871Y-100495393D01*
X269887873Y-100495394D01*
X270030330Y-100515875D01*
X270172787Y-100495394D01*
X270303703Y-100435606D01*
X270350386Y-100397987D01*
X272397986Y-98350386D01*
X272435606Y-98303703D01*
X272495394Y-98172787D01*
X272515875Y-98030330D01*
X272495394Y-97887873D01*
X272435606Y-97756957D01*
X272397987Y-97710274D01*
X272397982Y-97710269D01*
X272397978Y-97710264D01*
X269289733Y-94602021D01*
X269289726Y-94602014D01*
X269243043Y-94564394D01*
X269243041Y-94564393D01*
X269243039Y-94564391D01*
X269112129Y-94504606D01*
X269112125Y-94504605D01*
X268969670Y-94484125D01*
X268827214Y-94504605D01*
X268827210Y-94504606D01*
X268696299Y-94564392D01*
X268649604Y-94602021D01*
X266602021Y-96649606D01*
X266602015Y-96649612D01*
X266602014Y-96649614D01*
X266600822Y-96651093D01*
X266564393Y-96696298D01*
X266564391Y-96696300D01*
X266504606Y-96827210D01*
X266504605Y-96827214D01*
X266484125Y-96969670D01*
X266504605Y-97112125D01*
X266504606Y-97112129D01*
X266564392Y-97243040D01*
X266564393Y-97243041D01*
X266564394Y-97243043D01*
X266602013Y-97289726D01*
X266602016Y-97289729D01*
X266602021Y-97289735D01*
X268573133Y-99260846D01*
X268606618Y-99322169D01*
X268601634Y-99391861D01*
X268573133Y-99436208D01*
X262871994Y-105137347D01*
X262810671Y-105170832D01*
X262752225Y-105169442D01*
X262735410Y-105164937D01*
X262500001Y-105144341D01*
X262499999Y-105144341D01*
X262264596Y-105164936D01*
X262264586Y-105164938D01*
X262036344Y-105226094D01*
X262036335Y-105226098D01*
X261822171Y-105325964D01*
X261822169Y-105325965D01*
X261628597Y-105461505D01*
X261461505Y-105628597D01*
X261325965Y-105822169D01*
X261325964Y-105822171D01*
X261226098Y-106036335D01*
X261226094Y-106036344D01*
X261164938Y-106264586D01*
X261164936Y-106264596D01*
X261144341Y-106499999D01*
X255190047Y-106499999D01*
X256478344Y-105211702D01*
X256513575Y-105172518D01*
X256644690Y-104978527D01*
X256741135Y-104765168D01*
X256800134Y-104538578D01*
X256800134Y-104538576D01*
X256800135Y-104538573D01*
X256819991Y-104305279D01*
X256819991Y-104305274D01*
X256800135Y-104071980D01*
X256800090Y-104071809D01*
X256741135Y-103845386D01*
X256725140Y-103810001D01*
X256644693Y-103632032D01*
X256644688Y-103632024D01*
X256513575Y-103438036D01*
X256504468Y-103427907D01*
X256478344Y-103398852D01*
X256478339Y-103398847D01*
X256478331Y-103398838D01*
X255108519Y-102029026D01*
X255087913Y-102010499D01*
X255069322Y-101993783D01*
X255023585Y-101962870D01*
X254875333Y-101862669D01*
X254875325Y-101862664D01*
X254661970Y-101766222D01*
X254661972Y-101766222D01*
X254435377Y-101707222D01*
X254202084Y-101687367D01*
X254202078Y-101687367D01*
X253968784Y-101707222D01*
X253742190Y-101766222D01*
X253528836Y-101862664D01*
X253528828Y-101862669D01*
X253334840Y-101993782D01*
X253295642Y-102029026D01*
X251925830Y-103398838D01*
X251890586Y-103438036D01*
X251759473Y-103632024D01*
X251759468Y-103632032D01*
X251663026Y-103845386D01*
X251604026Y-104071980D01*
X251584171Y-104305274D01*
X251584171Y-104305279D01*
X251604026Y-104538573D01*
X251663026Y-104765167D01*
X251759468Y-104978521D01*
X251759471Y-104978527D01*
X251760977Y-104980754D01*
X251761324Y-104981842D01*
X251762040Y-104983124D01*
X251761779Y-104983269D01*
X251782208Y-105047320D01*
X251764080Y-105114797D01*
X251712350Y-105161762D01*
X251643440Y-105173303D01*
X251579229Y-105145758D01*
X251570560Y-105137871D01*
X249077422Y-102644735D01*
X249077415Y-102644728D01*
X249030732Y-102607108D01*
X249030730Y-102607107D01*
X249030728Y-102607105D01*
X248899818Y-102547320D01*
X248899814Y-102547319D01*
X248757359Y-102526839D01*
X248614903Y-102547319D01*
X248614899Y-102547320D01*
X248483988Y-102607106D01*
X248437293Y-102644735D01*
X246311491Y-104770540D01*
X246250168Y-104804025D01*
X246223810Y-104806859D01*
X242233160Y-104806859D01*
X242166121Y-104787174D01*
X242120366Y-104734370D01*
X242110422Y-104665212D01*
X242139447Y-104601656D01*
X242145479Y-104595178D01*
X242268347Y-104472310D01*
X242394019Y-104346637D01*
X242455340Y-104313154D01*
X242472288Y-104311009D01*
X242472263Y-104310691D01*
X242474690Y-104310500D01*
X242510993Y-104307643D01*
X242510995Y-104307642D01*
X242510997Y-104307642D01*
X242551975Y-104295736D01*
X242666395Y-104262494D01*
X242805687Y-104180117D01*
X242920117Y-104065687D01*
X243002494Y-103926395D01*
X243047643Y-103770993D01*
X243050500Y-103734690D01*
X243050500Y-103521477D01*
X243052883Y-103497284D01*
X243060500Y-103458994D01*
X243060500Y-103175673D01*
X243080185Y-103108634D01*
X243132989Y-103062879D01*
X243202147Y-103052935D01*
X243219095Y-103056597D01*
X243377426Y-103102597D01*
X243377429Y-103102597D01*
X243377431Y-103102598D01*
X243414306Y-103105500D01*
X243414314Y-103105500D01*
X243845686Y-103105500D01*
X243845694Y-103105500D01*
X243882569Y-103102598D01*
X243882571Y-103102597D01*
X243882573Y-103102597D01*
X243951581Y-103082548D01*
X244040398Y-103056744D01*
X244181865Y-102973081D01*
X244298081Y-102856865D01*
X244381744Y-102715398D01*
X244427598Y-102557569D01*
X244430500Y-102520694D01*
X244430500Y-101871517D01*
X244450185Y-101804478D01*
X244466814Y-101783841D01*
X246115449Y-100135205D01*
X246176770Y-100101722D01*
X246242131Y-100105182D01*
X246332742Y-100135207D01*
X246347203Y-100139999D01*
X246449991Y-100150500D01*
X248550008Y-100150499D01*
X248652797Y-100139999D01*
X248819334Y-100084814D01*
X248968656Y-99992712D01*
X249092712Y-99868656D01*
X249184814Y-99719334D01*
X249239999Y-99552797D01*
X249250500Y-99450009D01*
X249250499Y-97549992D01*
X249247772Y-97523301D01*
X249239999Y-97447203D01*
X249239998Y-97447200D01*
X249207795Y-97350018D01*
X249184814Y-97280666D01*
X249092712Y-97131344D01*
X248968656Y-97007288D01*
X248819334Y-96915186D01*
X248652797Y-96860001D01*
X248652795Y-96860000D01*
X248550016Y-96849500D01*
X248550009Y-96849500D01*
X248324500Y-96849500D01*
X248257461Y-96829815D01*
X248211706Y-96777011D01*
X248200500Y-96725500D01*
X248200500Y-95931006D01*
X248197684Y-95916853D01*
X248194869Y-95902700D01*
X248194232Y-95899500D01*
X248184151Y-95848819D01*
X248173580Y-95795672D01*
X248157915Y-95757853D01*
X248120777Y-95668192D01*
X248044112Y-95553454D01*
X245636818Y-93146160D01*
X245603333Y-93084837D01*
X245600499Y-93058479D01*
X245600499Y-87852129D01*
X245600498Y-87852123D01*
X245600497Y-87852116D01*
X245594091Y-87792517D01*
X245543796Y-87657669D01*
X245543795Y-87657668D01*
X245543793Y-87657664D01*
X245457547Y-87542455D01*
X245457544Y-87542452D01*
X245342335Y-87456206D01*
X245342328Y-87456202D01*
X245207482Y-87405908D01*
X245207483Y-87405908D01*
X245147883Y-87399501D01*
X245147881Y-87399500D01*
X245147873Y-87399500D01*
X245147864Y-87399500D01*
X243352129Y-87399500D01*
X243352123Y-87399501D01*
X243292516Y-87405908D01*
X243157671Y-87456202D01*
X243157664Y-87456206D01*
X243042455Y-87542452D01*
X243042452Y-87542455D01*
X242956206Y-87657664D01*
X242956202Y-87657671D01*
X242905908Y-87792517D01*
X242899501Y-87852116D01*
X242899501Y-87852123D01*
X242899500Y-87852135D01*
X242899500Y-93647870D01*
X242899501Y-93647876D01*
X242905908Y-93707483D01*
X242956202Y-93842328D01*
X242956206Y-93842335D01*
X243042452Y-93957544D01*
X243042455Y-93957547D01*
X243157664Y-94043793D01*
X243157671Y-94043797D01*
X243292517Y-94094091D01*
X243292516Y-94094091D01*
X243299444Y-94094835D01*
X243352127Y-94100500D01*
X244558480Y-94100499D01*
X244625519Y-94120184D01*
X244646161Y-94136818D01*
X246763181Y-96253838D01*
X246796666Y-96315161D01*
X246799500Y-96341519D01*
X246799500Y-96725500D01*
X246779815Y-96792539D01*
X246727011Y-96838294D01*
X246675501Y-96849500D01*
X246449999Y-96849500D01*
X246449980Y-96849501D01*
X246347203Y-96860000D01*
X246347200Y-96860001D01*
X246180668Y-96915185D01*
X246180663Y-96915187D01*
X246031342Y-97007289D01*
X245907289Y-97131342D01*
X245815187Y-97280663D01*
X245815186Y-97280666D01*
X245760001Y-97447203D01*
X245760001Y-97447204D01*
X245760000Y-97447204D01*
X245749500Y-97549983D01*
X245749500Y-98468480D01*
X245729815Y-98535519D01*
X245713181Y-98556161D01*
X244112157Y-100157184D01*
X244050834Y-100190669D01*
X243989881Y-100188579D01*
X243882573Y-100157402D01*
X243882567Y-100157401D01*
X243845701Y-100154500D01*
X243845694Y-100154500D01*
X243414306Y-100154500D01*
X243414298Y-100154500D01*
X243377432Y-100157401D01*
X243377426Y-100157402D01*
X243219606Y-100203254D01*
X243219603Y-100203255D01*
X243078137Y-100286917D01*
X243071969Y-100291702D01*
X243070072Y-100289256D01*
X243021358Y-100315857D01*
X242951666Y-100310873D01*
X242919296Y-100290069D01*
X242918031Y-100291702D01*
X242911862Y-100286917D01*
X242770396Y-100203255D01*
X242770393Y-100203254D01*
X242612573Y-100157402D01*
X242612567Y-100157401D01*
X242575701Y-100154500D01*
X242575694Y-100154500D01*
X242144306Y-100154500D01*
X242144298Y-100154500D01*
X242107432Y-100157401D01*
X242107426Y-100157402D01*
X241949606Y-100203254D01*
X241949603Y-100203255D01*
X241808137Y-100286917D01*
X241808129Y-100286923D01*
X241691923Y-100403129D01*
X241691917Y-100403137D01*
X241608255Y-100544603D01*
X241608254Y-100544606D01*
X241562402Y-100702426D01*
X241562401Y-100702432D01*
X241559500Y-100739298D01*
X241559500Y-102520701D01*
X241562401Y-102557567D01*
X241562402Y-102557573D01*
X241608254Y-102715393D01*
X241608255Y-102715396D01*
X241608256Y-102715398D01*
X241640401Y-102769753D01*
X241642232Y-102772848D01*
X241659500Y-102835969D01*
X241659500Y-102843333D01*
X241639815Y-102910372D01*
X241623181Y-102931014D01*
X241619887Y-102934307D01*
X241619881Y-102934315D01*
X241537505Y-103073606D01*
X241537504Y-103073609D01*
X241492357Y-103229002D01*
X241491218Y-103235243D01*
X241488829Y-103234806D01*
X241467790Y-103289950D01*
X241456764Y-103302578D01*
X240996161Y-103763181D01*
X240934838Y-103796666D01*
X240908480Y-103799500D01*
X239899998Y-103799500D01*
X239899980Y-103799501D01*
X239797203Y-103810000D01*
X239797200Y-103810001D01*
X239630668Y-103865185D01*
X239630663Y-103865187D01*
X239481342Y-103957289D01*
X239357289Y-104081342D01*
X239265187Y-104230663D01*
X239265186Y-104230666D01*
X239210001Y-104397203D01*
X239210001Y-104397204D01*
X239210000Y-104397204D01*
X239199500Y-104499983D01*
X214349218Y-104499983D01*
X212922580Y-103073345D01*
X212922578Y-103073342D01*
X212803707Y-102954471D01*
X212803706Y-102954470D01*
X212716894Y-102904350D01*
X212716894Y-102904349D01*
X212716890Y-102904348D01*
X212666775Y-102875413D01*
X212514047Y-102834489D01*
X212355933Y-102834489D01*
X212348337Y-102834489D01*
X212348321Y-102834490D01*
X207547106Y-102834490D01*
X207480067Y-102814805D01*
X207459425Y-102798171D01*
X207390296Y-102729042D01*
X207390289Y-102729035D01*
X207343606Y-102691415D01*
X207343602Y-102691413D01*
X207310418Y-102676258D01*
X207257614Y-102630503D01*
X207249138Y-102614979D01*
X207233981Y-102581790D01*
X207196362Y-102535107D01*
X207196357Y-102535102D01*
X207196353Y-102535097D01*
X206842925Y-102181670D01*
X206809440Y-102120347D01*
X206814424Y-102050656D01*
X206842923Y-102006310D01*
X207808423Y-101040811D01*
X236939500Y-101040811D01*
X236939500Y-101439169D01*
X236939501Y-101439191D01*
X236942335Y-101475205D01*
X236987129Y-101629388D01*
X236987131Y-101629393D01*
X237068863Y-101767595D01*
X237068869Y-101767603D01*
X237182396Y-101881130D01*
X237182400Y-101881133D01*
X237182402Y-101881135D01*
X237320607Y-101962869D01*
X237361268Y-101974682D01*
X237474791Y-102007664D01*
X237474794Y-102007664D01*
X237474796Y-102007665D01*
X237510819Y-102010500D01*
X238009180Y-102010499D01*
X238045204Y-102007665D01*
X238199393Y-101962869D01*
X238208018Y-101957767D01*
X238271139Y-101940500D01*
X238895500Y-101940500D01*
X238962539Y-101960185D01*
X239008294Y-102012989D01*
X239019500Y-102064500D01*
X239019500Y-102520701D01*
X239022401Y-102557567D01*
X239022402Y-102557573D01*
X239068254Y-102715393D01*
X239068255Y-102715396D01*
X239068256Y-102715398D01*
X239076325Y-102729042D01*
X239151917Y-102856862D01*
X239151923Y-102856870D01*
X239268129Y-102973076D01*
X239268133Y-102973079D01*
X239268135Y-102973081D01*
X239409602Y-103056744D01*
X239430719Y-103062879D01*
X239567426Y-103102597D01*
X239567429Y-103102597D01*
X239567431Y-103102598D01*
X239604306Y-103105500D01*
X239604314Y-103105500D01*
X240035686Y-103105500D01*
X240035694Y-103105500D01*
X240072569Y-103102598D01*
X240072571Y-103102597D01*
X240072573Y-103102597D01*
X240141581Y-103082548D01*
X240230398Y-103056744D01*
X240371865Y-102973081D01*
X240488081Y-102856865D01*
X240571744Y-102715398D01*
X240617598Y-102557569D01*
X240620500Y-102520694D01*
X240620500Y-100739306D01*
X240617598Y-100702431D01*
X240600427Y-100643330D01*
X240579809Y-100572361D01*
X240571744Y-100544602D01*
X240488081Y-100403135D01*
X240488079Y-100403133D01*
X240488076Y-100403129D01*
X240371870Y-100286923D01*
X240371862Y-100286917D01*
X240230396Y-100203255D01*
X240230393Y-100203254D01*
X240072573Y-100157402D01*
X240072567Y-100157401D01*
X240035701Y-100154500D01*
X240035694Y-100154500D01*
X239604306Y-100154500D01*
X239604298Y-100154500D01*
X239567432Y-100157401D01*
X239567426Y-100157402D01*
X239409606Y-100203254D01*
X239409603Y-100203255D01*
X239268137Y-100286917D01*
X239268129Y-100286923D01*
X239151923Y-100403129D01*
X239151917Y-100403137D01*
X239107277Y-100478621D01*
X239056208Y-100526304D01*
X239000545Y-100539500D01*
X238271139Y-100539500D01*
X238208018Y-100522232D01*
X238199393Y-100517131D01*
X238199388Y-100517129D01*
X238045208Y-100472335D01*
X238045202Y-100472334D01*
X238009181Y-100469500D01*
X237510830Y-100469500D01*
X237510808Y-100469501D01*
X237474794Y-100472335D01*
X237320611Y-100517129D01*
X237320606Y-100517131D01*
X237182404Y-100598863D01*
X237182396Y-100598869D01*
X237068869Y-100712396D01*
X237068863Y-100712404D01*
X236987131Y-100850606D01*
X236987129Y-100850611D01*
X236942335Y-101004791D01*
X236942334Y-101004797D01*
X236939500Y-101040811D01*
X207808423Y-101040811D01*
X211712417Y-97136819D01*
X211773740Y-97103334D01*
X211800098Y-97100500D01*
X211920943Y-97100500D01*
X212042114Y-97100500D01*
X212109153Y-97120185D01*
X212129795Y-97136819D01*
X214214922Y-99221944D01*
X214214926Y-99221947D01*
X214214928Y-99221949D01*
X214261604Y-99259565D01*
X214392518Y-99319352D01*
X214392519Y-99319352D01*
X214392521Y-99319353D01*
X214534978Y-99339834D01*
X214677435Y-99319353D01*
X214808351Y-99259565D01*
X214855033Y-99221946D01*
X215629841Y-98447136D01*
X215667462Y-98400454D01*
X215727250Y-98269538D01*
X215747731Y-98127081D01*
X215727250Y-97984624D01*
X215683063Y-97887870D01*
X215667463Y-97853710D01*
X215667462Y-97853709D01*
X215667462Y-97853708D01*
X215629843Y-97807025D01*
X215629838Y-97807020D01*
X215629834Y-97807015D01*
X213334757Y-95511941D01*
X213334751Y-95511936D01*
X213334747Y-95511932D01*
X213288071Y-95474316D01*
X213157157Y-95414529D01*
X213157153Y-95414528D01*
X213014698Y-95394048D01*
X212872242Y-95414528D01*
X212872238Y-95414529D01*
X212741327Y-95474315D01*
X212741322Y-95474318D01*
X212694647Y-95511932D01*
X212694640Y-95511938D01*
X212343399Y-95863181D01*
X212282076Y-95896666D01*
X212255718Y-95899500D01*
X211883063Y-95899500D01*
X211816024Y-95879815D01*
X211770269Y-95827011D01*
X211760325Y-95757853D01*
X211766022Y-95734545D01*
X211785366Y-95679262D01*
X211785369Y-95679249D01*
X211805565Y-95500003D01*
X211805565Y-95499996D01*
X211785369Y-95320750D01*
X211785368Y-95320746D01*
X211785368Y-95320745D01*
X211766796Y-95267672D01*
X211763234Y-95197898D01*
X211796154Y-95139042D01*
X212058951Y-94876246D01*
X212096572Y-94829564D01*
X212156360Y-94698648D01*
X212176841Y-94556191D01*
X212156360Y-94413734D01*
X212153590Y-94407669D01*
X212096573Y-94282820D01*
X212096572Y-94282819D01*
X212096572Y-94282818D01*
X212058953Y-94236135D01*
X212058948Y-94236130D01*
X212058944Y-94236125D01*
X209763867Y-91941051D01*
X209763861Y-91941046D01*
X209763857Y-91941042D01*
X209717181Y-91903426D01*
X209586267Y-91843639D01*
X209586263Y-91843638D01*
X209443808Y-91823158D01*
X209301352Y-91843638D01*
X209301348Y-91843639D01*
X209170437Y-91903425D01*
X209170432Y-91903428D01*
X209123757Y-91941042D01*
X209123750Y-91941048D01*
X208348953Y-92715846D01*
X208348942Y-92715858D01*
X208311324Y-92762536D01*
X208251536Y-92893451D01*
X208251535Y-92893455D01*
X208231055Y-93035911D01*
X208251535Y-93178366D01*
X208251536Y-93178370D01*
X208311322Y-93309281D01*
X208311323Y-93309282D01*
X208311324Y-93309284D01*
X208348943Y-93355967D01*
X208348946Y-93355970D01*
X208348951Y-93355976D01*
X210185223Y-95192245D01*
X210218708Y-95253568D01*
X210215027Y-95313692D01*
X210216181Y-95313956D01*
X210214631Y-95320746D01*
X210194435Y-95499996D01*
X210194435Y-95500003D01*
X210214630Y-95679249D01*
X210214633Y-95679262D01*
X210255483Y-95796003D01*
X210259045Y-95865782D01*
X210226123Y-95924639D01*
X204978939Y-101171826D01*
X204917616Y-101205311D01*
X204891258Y-101208145D01*
X203728731Y-101208145D01*
X203661692Y-101188460D01*
X203641050Y-101171826D01*
X203041590Y-100572367D01*
X203041583Y-100572360D01*
X202994900Y-100534740D01*
X202958814Y-100518260D01*
X202863982Y-100474951D01*
X202863984Y-100474951D01*
X202721527Y-100454470D01*
X202579072Y-100474951D01*
X202506011Y-100508317D01*
X202436852Y-100518260D01*
X202373297Y-100489234D01*
X202335523Y-100430456D01*
X202330500Y-100395522D01*
X202330500Y-79457287D01*
X202350185Y-79390248D01*
X202402989Y-79344493D01*
X202472147Y-79334549D01*
X202535701Y-79363573D01*
X202584164Y-79405567D01*
X202584167Y-79405568D01*
X202584168Y-79405569D01*
X202678425Y-79448616D01*
X202715041Y-79465338D01*
X202782080Y-79485023D01*
X202782084Y-79485024D01*
X202924500Y-79505500D01*
X202924503Y-79505500D01*
X209625990Y-79505500D01*
X209626000Y-79505500D01*
X209733456Y-79493947D01*
X209784967Y-79482741D01*
X209819197Y-79471347D01*
X209887497Y-79448616D01*
X209887501Y-79448613D01*
X209887504Y-79448613D01*
X210008543Y-79370825D01*
X210061347Y-79325070D01*
X210155567Y-79216336D01*
X210215338Y-79085459D01*
X210235023Y-79018420D01*
X210235024Y-79018416D01*
X210255500Y-78876000D01*
X210255500Y-62334500D01*
X210275185Y-62267461D01*
X210327989Y-62221706D01*
X210379500Y-62210500D01*
X211175500Y-62210500D01*
X211242539Y-62230185D01*
X211288294Y-62282989D01*
X211299500Y-62334500D01*
X211299500Y-89911085D01*
X211279815Y-89978124D01*
X211227011Y-90023879D01*
X211193146Y-90033823D01*
X211097404Y-90047587D01*
X211097400Y-90047588D01*
X210966489Y-90107374D01*
X210966484Y-90107377D01*
X210919809Y-90144991D01*
X210919802Y-90144997D01*
X210145005Y-90919795D01*
X210144994Y-90919807D01*
X210107376Y-90966485D01*
X210047588Y-91097400D01*
X210047587Y-91097404D01*
X210027107Y-91239860D01*
X210047587Y-91382315D01*
X210047588Y-91382319D01*
X210107374Y-91513230D01*
X210107375Y-91513231D01*
X210107376Y-91513233D01*
X210144995Y-91559916D01*
X210144998Y-91559919D01*
X210145003Y-91559925D01*
X212440080Y-93854999D01*
X212440090Y-93855008D01*
X212486766Y-93892624D01*
X212617680Y-93952411D01*
X212617681Y-93952411D01*
X212617683Y-93952412D01*
X212760140Y-93972893D01*
X212892883Y-93953808D01*
X212962039Y-93963752D01*
X212998208Y-93988865D01*
X213582023Y-94572680D01*
X213615508Y-94634003D01*
X213617080Y-94678007D01*
X213597996Y-94810748D01*
X213618476Y-94953204D01*
X213618477Y-94953208D01*
X213678263Y-95084119D01*
X213678264Y-95084120D01*
X213678265Y-95084122D01*
X213715884Y-95130805D01*
X213715887Y-95130808D01*
X213715892Y-95130814D01*
X215685581Y-97100500D01*
X216010973Y-97425892D01*
X216010977Y-97425895D01*
X216010979Y-97425897D01*
X216057655Y-97463513D01*
X216188569Y-97523300D01*
X216188570Y-97523300D01*
X216188572Y-97523301D01*
X216331029Y-97543782D01*
X216473486Y-97523301D01*
X216604402Y-97463513D01*
X216651084Y-97425894D01*
X217425892Y-96651084D01*
X217463513Y-96604402D01*
X217523301Y-96473486D01*
X217543782Y-96331029D01*
X217523301Y-96188572D01*
X217505681Y-96149991D01*
X217463514Y-96057658D01*
X217463513Y-96057657D01*
X217463513Y-96057656D01*
X217425894Y-96010973D01*
X217425889Y-96010968D01*
X217425885Y-96010963D01*
X216952969Y-95538048D01*
X216919484Y-95476725D01*
X216924468Y-95407034D01*
X216952967Y-95362688D01*
X218111790Y-94203865D01*
X218158513Y-94174507D01*
X218262022Y-94138289D01*
X218414762Y-94042316D01*
X218542316Y-93914762D01*
X218638289Y-93762022D01*
X218674507Y-93658513D01*
X218703865Y-93611790D01*
X219486790Y-92828865D01*
X219533513Y-92799507D01*
X219637022Y-92763289D01*
X219789762Y-92667316D01*
X219917316Y-92539762D01*
X220013289Y-92387022D01*
X220049507Y-92283513D01*
X220078865Y-92236790D01*
X221778838Y-90536819D01*
X221840161Y-90503334D01*
X221866519Y-90500500D01*
X222138000Y-90500500D01*
X222205039Y-90520185D01*
X222250794Y-90572989D01*
X222262000Y-90624500D01*
X222262000Y-90865701D01*
X222264901Y-90902567D01*
X222264902Y-90902573D01*
X222310754Y-91060393D01*
X222310755Y-91060396D01*
X222310756Y-91060398D01*
X222332639Y-91097400D01*
X222394417Y-91201862D01*
X222394423Y-91201870D01*
X222510629Y-91318076D01*
X222510633Y-91318079D01*
X222510635Y-91318081D01*
X222536425Y-91333333D01*
X222648307Y-91399500D01*
X222652102Y-91401744D01*
X222710095Y-91418592D01*
X222768980Y-91456197D01*
X222798187Y-91519669D01*
X222799500Y-91537668D01*
X222799500Y-92270209D01*
X222789301Y-92319457D01*
X222787504Y-92323609D01*
X222742357Y-92479002D01*
X222742356Y-92479008D01*
X222739500Y-92515302D01*
X222739500Y-92984697D01*
X222742356Y-93020991D01*
X222742357Y-93020997D01*
X222787504Y-93176390D01*
X222789301Y-93180543D01*
X222799500Y-93229791D01*
X222799500Y-94025500D01*
X222779815Y-94092539D01*
X222727011Y-94138294D01*
X222675500Y-94149500D01*
X222327130Y-94149500D01*
X222327123Y-94149501D01*
X222267516Y-94155908D01*
X222132671Y-94206202D01*
X222132664Y-94206206D01*
X222017455Y-94292452D01*
X222017452Y-94292455D01*
X221931206Y-94407664D01*
X221931202Y-94407671D01*
X221880908Y-94542517D01*
X221874512Y-94602013D01*
X221874501Y-94602123D01*
X221874500Y-94602135D01*
X221874500Y-96397870D01*
X221874501Y-96397876D01*
X221880908Y-96457483D01*
X221931202Y-96592328D01*
X221931206Y-96592335D01*
X222017452Y-96707544D01*
X222017455Y-96707547D01*
X222132664Y-96793793D01*
X222132671Y-96793797D01*
X222267517Y-96844091D01*
X222267516Y-96844091D01*
X222274444Y-96844835D01*
X222327127Y-96850500D01*
X224122872Y-96850499D01*
X224182483Y-96844091D01*
X224317331Y-96793796D01*
X224432546Y-96707546D01*
X224518796Y-96592331D01*
X224569091Y-96457483D01*
X224575500Y-96397873D01*
X224575499Y-94602128D01*
X224569091Y-94542517D01*
X224558943Y-94515310D01*
X224518797Y-94407671D01*
X224518793Y-94407664D01*
X224432547Y-94292455D01*
X224432544Y-94292452D01*
X224317334Y-94206205D01*
X224281164Y-94192714D01*
X224225231Y-94150841D01*
X224200816Y-94085376D01*
X224200500Y-94076533D01*
X224200500Y-93298234D01*
X224217768Y-93235113D01*
X224252494Y-93176395D01*
X224297643Y-93020993D01*
X224300500Y-92984690D01*
X224300500Y-92515310D01*
X224297643Y-92479007D01*
X224252494Y-92323605D01*
X224228786Y-92283516D01*
X224217768Y-92264885D01*
X224200500Y-92201765D01*
X224200500Y-91537668D01*
X224220185Y-91470629D01*
X224272989Y-91424874D01*
X224289895Y-91418595D01*
X224347898Y-91401744D01*
X224489365Y-91318081D01*
X224605581Y-91201865D01*
X224689244Y-91060398D01*
X224730090Y-90919807D01*
X224735097Y-90902573D01*
X224735098Y-90902567D01*
X224735467Y-90897876D01*
X224738000Y-90865694D01*
X224738000Y-90574500D01*
X224757685Y-90507461D01*
X224810489Y-90461706D01*
X224862000Y-90450500D01*
X231158481Y-90450500D01*
X231225520Y-90470185D01*
X231246162Y-90486819D01*
X235413181Y-94653838D01*
X235446666Y-94715161D01*
X235449500Y-94741519D01*
X235449500Y-95325500D01*
X235429815Y-95392539D01*
X235377011Y-95438294D01*
X235325500Y-95449500D01*
X234599998Y-95449500D01*
X234599980Y-95449501D01*
X234497203Y-95460000D01*
X234497200Y-95460001D01*
X234330668Y-95515185D01*
X234330663Y-95515187D01*
X234181342Y-95607289D01*
X234057289Y-95731342D01*
X233965187Y-95880663D01*
X233965185Y-95880668D01*
X233938959Y-95959815D01*
X233910001Y-96047203D01*
X233910001Y-96047204D01*
X233910000Y-96047204D01*
X233899500Y-96149983D01*
X233899500Y-97350001D01*
X233899501Y-97350018D01*
X233910000Y-97452796D01*
X233910001Y-97452799D01*
X233961287Y-97607567D01*
X233965186Y-97619334D01*
X234057288Y-97768656D01*
X234181344Y-97892712D01*
X234330666Y-97984814D01*
X234497203Y-98039999D01*
X234599991Y-98050500D01*
X237700008Y-98050499D01*
X237802797Y-98039999D01*
X237969334Y-97984814D01*
X238118656Y-97892712D01*
X238242712Y-97768656D01*
X238334814Y-97619334D01*
X238385791Y-97465496D01*
X238425564Y-97408051D01*
X238490080Y-97381228D01*
X238503497Y-97380500D01*
X238895500Y-97380500D01*
X238962539Y-97400185D01*
X239008294Y-97452989D01*
X239019500Y-97504500D01*
X239019500Y-97570701D01*
X239022401Y-97607567D01*
X239022402Y-97607573D01*
X239068254Y-97765393D01*
X239068255Y-97765396D01*
X239068256Y-97765398D01*
X239092868Y-97807015D01*
X239151917Y-97906862D01*
X239151923Y-97906870D01*
X239268129Y-98023076D01*
X239268133Y-98023079D01*
X239268135Y-98023081D01*
X239409602Y-98106744D01*
X239451224Y-98118836D01*
X239567426Y-98152597D01*
X239567429Y-98152597D01*
X239567431Y-98152598D01*
X239604306Y-98155500D01*
X239604314Y-98155500D01*
X240035686Y-98155500D01*
X240035694Y-98155500D01*
X240072569Y-98152598D01*
X240072571Y-98152597D01*
X240072573Y-98152597D01*
X240160398Y-98127081D01*
X240230398Y-98106744D01*
X240371865Y-98023081D01*
X240488081Y-97906865D01*
X240571744Y-97765398D01*
X240617598Y-97607569D01*
X240620500Y-97570694D01*
X240620500Y-95789306D01*
X240617598Y-95752431D01*
X240596336Y-95679249D01*
X240571745Y-95594606D01*
X240571744Y-95594603D01*
X240571744Y-95594602D01*
X240488081Y-95453135D01*
X240488079Y-95453133D01*
X240488076Y-95453129D01*
X240486819Y-95451872D01*
X240486148Y-95450643D01*
X240483298Y-95446969D01*
X240483890Y-95446509D01*
X240453334Y-95390549D01*
X240450500Y-95364191D01*
X240450500Y-95298234D01*
X240467768Y-95235113D01*
X240502494Y-95176395D01*
X240547643Y-95020993D01*
X240550500Y-94984690D01*
X240550500Y-94515310D01*
X240547643Y-94479007D01*
X240528678Y-94413731D01*
X240514400Y-94364587D01*
X240502494Y-94323605D01*
X240481211Y-94287618D01*
X240464031Y-94219895D01*
X240486191Y-94153632D01*
X240540657Y-94109870D01*
X240587945Y-94100499D01*
X240647871Y-94100499D01*
X240647872Y-94100499D01*
X240707483Y-94094091D01*
X240842331Y-94043796D01*
X240957546Y-93957546D01*
X241043796Y-93842331D01*
X241094091Y-93707483D01*
X241100500Y-93647873D01*
X241100499Y-87852128D01*
X241094091Y-87792517D01*
X241043796Y-87657669D01*
X241043795Y-87657668D01*
X241043793Y-87657664D01*
X240957547Y-87542455D01*
X240957544Y-87542452D01*
X240842335Y-87456206D01*
X240842328Y-87456202D01*
X240707482Y-87405908D01*
X240707483Y-87405908D01*
X240647883Y-87399501D01*
X240647881Y-87399500D01*
X240647873Y-87399500D01*
X240647864Y-87399500D01*
X238852129Y-87399500D01*
X238852123Y-87399501D01*
X238792516Y-87405908D01*
X238657671Y-87456202D01*
X238657664Y-87456206D01*
X238542455Y-87542452D01*
X238542452Y-87542455D01*
X238456206Y-87657664D01*
X238456202Y-87657671D01*
X238405908Y-87792517D01*
X238399501Y-87852116D01*
X238399501Y-87852123D01*
X238399500Y-87852135D01*
X238399500Y-93647870D01*
X238399501Y-93647876D01*
X238405908Y-93707483D01*
X238456202Y-93842328D01*
X238456206Y-93842335D01*
X238542452Y-93957544D01*
X238542455Y-93957547D01*
X238657664Y-94043793D01*
X238657671Y-94043797D01*
X238702618Y-94060561D01*
X238792517Y-94094091D01*
X238852127Y-94100500D01*
X238925500Y-94100499D01*
X238992538Y-94120183D01*
X239038294Y-94172986D01*
X239049500Y-94224499D01*
X239049500Y-94270209D01*
X239039301Y-94319457D01*
X239037504Y-94323609D01*
X238992357Y-94479002D01*
X238992356Y-94479008D01*
X238989500Y-94515302D01*
X238989500Y-94984697D01*
X238992356Y-95020991D01*
X238992357Y-95020997D01*
X239037504Y-95176390D01*
X239039301Y-95180543D01*
X239049500Y-95229791D01*
X239049500Y-95641512D01*
X239044576Y-95676107D01*
X239022402Y-95752426D01*
X239022401Y-95752432D01*
X239019500Y-95789298D01*
X239019500Y-95855500D01*
X238999815Y-95922539D01*
X238947011Y-95968294D01*
X238895500Y-95979500D01*
X238457105Y-95979500D01*
X238390066Y-95959815D01*
X238344311Y-95907011D01*
X238339399Y-95894504D01*
X238334814Y-95880666D01*
X238242712Y-95731344D01*
X238118656Y-95607288D01*
X238025888Y-95550069D01*
X237969336Y-95515187D01*
X237969331Y-95515185D01*
X237959514Y-95511932D01*
X237802797Y-95460001D01*
X237802795Y-95460000D01*
X237700016Y-95449500D01*
X237700009Y-95449500D01*
X236974500Y-95449500D01*
X236907461Y-95429815D01*
X236861706Y-95377011D01*
X236850500Y-95325500D01*
X236850500Y-94331004D01*
X236823581Y-94195677D01*
X236823580Y-94195676D01*
X236823580Y-94195672D01*
X236806167Y-94153632D01*
X236770776Y-94068191D01*
X236753486Y-94042315D01*
X236719602Y-93991603D01*
X236694114Y-93953457D01*
X236694112Y-93953454D01*
X231946545Y-89205887D01*
X231831807Y-89129222D01*
X231704332Y-89076421D01*
X231704322Y-89076418D01*
X231568996Y-89049500D01*
X231568994Y-89049500D01*
X231568993Y-89049500D01*
X224862000Y-89049500D01*
X224794961Y-89029815D01*
X224749206Y-88977011D01*
X224738000Y-88925500D01*
X224738000Y-88554018D01*
X224757685Y-88486979D01*
X224774319Y-88466337D01*
X230418766Y-82821891D01*
X230480089Y-82788406D01*
X230506447Y-82785572D01*
X251339390Y-82785572D01*
X251406429Y-82805257D01*
X251427071Y-82821891D01*
X252607443Y-84002262D01*
X253658950Y-85053769D01*
X253705633Y-85091389D01*
X253705634Y-85091389D01*
X253705636Y-85091391D01*
X253836546Y-85151176D01*
X253836547Y-85151176D01*
X253836549Y-85151177D01*
X253979006Y-85171658D01*
X254121463Y-85151177D01*
X254252379Y-85091389D01*
X254299062Y-85053770D01*
X257053769Y-82299062D01*
X257091389Y-82252379D01*
X257099468Y-82234690D01*
X257151176Y-82121465D01*
X257151175Y-82121465D01*
X257151177Y-82121463D01*
X257171658Y-81979006D01*
X257151177Y-81836549D01*
X257102061Y-81729002D01*
X257091390Y-81705635D01*
X257091389Y-81705634D01*
X257091389Y-81705633D01*
X257053770Y-81658950D01*
X257053765Y-81658945D01*
X257053761Y-81658940D01*
X254511201Y-79116382D01*
X254511194Y-79116375D01*
X254464511Y-79078755D01*
X254464509Y-79078754D01*
X254464507Y-79078752D01*
X254333597Y-79018967D01*
X254333593Y-79018966D01*
X254191138Y-78998486D01*
X254048682Y-79018966D01*
X254048678Y-79018967D01*
X253917767Y-79078753D01*
X253871072Y-79116382D01*
X251639204Y-81348253D01*
X251577881Y-81381738D01*
X251551523Y-81384572D01*
X230095932Y-81384572D01*
X229960605Y-81411490D01*
X229960595Y-81411493D01*
X229833120Y-81464294D01*
X229718382Y-81540959D01*
X229718381Y-81540960D01*
X224856162Y-86403181D01*
X224794839Y-86436666D01*
X224768481Y-86439500D01*
X224545302Y-86439500D01*
X224509008Y-86442356D01*
X224509002Y-86442357D01*
X224353609Y-86487504D01*
X224353606Y-86487505D01*
X224214315Y-86569881D01*
X224214307Y-86569887D01*
X224099887Y-86684307D01*
X224099881Y-86684315D01*
X224017505Y-86823606D01*
X224017504Y-86823609D01*
X223972357Y-86979002D01*
X223972356Y-86979008D01*
X223969500Y-87015302D01*
X223969500Y-87238481D01*
X223949815Y-87305520D01*
X223933181Y-87326162D01*
X223346162Y-87913181D01*
X223284839Y-87946666D01*
X223258481Y-87949500D01*
X222846798Y-87949500D01*
X222809932Y-87952401D01*
X222809926Y-87952402D01*
X222652106Y-87998254D01*
X222652103Y-87998255D01*
X222510637Y-88081917D01*
X222510629Y-88081923D01*
X222394423Y-88198129D01*
X222394417Y-88198137D01*
X222310755Y-88339603D01*
X222310754Y-88339606D01*
X222264902Y-88497426D01*
X222264901Y-88497432D01*
X222262000Y-88534298D01*
X222262000Y-88775500D01*
X222242315Y-88842539D01*
X222189511Y-88888294D01*
X222138000Y-88899500D01*
X220971798Y-88899500D01*
X220934932Y-88902401D01*
X220934926Y-88902402D01*
X220777106Y-88948254D01*
X220777103Y-88948255D01*
X220635637Y-89031917D01*
X220635629Y-89031923D01*
X220519423Y-89148129D01*
X220519417Y-89148137D01*
X220435755Y-89289603D01*
X220435754Y-89289606D01*
X220389902Y-89447426D01*
X220389901Y-89447432D01*
X220387000Y-89484298D01*
X220387000Y-89895980D01*
X220367315Y-89963019D01*
X220350681Y-89983661D01*
X219088209Y-91246132D01*
X219041484Y-91275492D01*
X218937976Y-91311711D01*
X218937975Y-91311712D01*
X218785237Y-91407684D01*
X218657684Y-91535237D01*
X218561712Y-91687975D01*
X218561711Y-91687976D01*
X218525492Y-91791484D01*
X218496132Y-91838209D01*
X217713209Y-92621132D01*
X217666484Y-92650492D01*
X217562976Y-92686711D01*
X217562975Y-92686712D01*
X217410237Y-92782684D01*
X217282684Y-92910237D01*
X217186712Y-93062975D01*
X217186711Y-93062976D01*
X217150492Y-93166484D01*
X217121132Y-93213209D01*
X215962311Y-94372030D01*
X215900988Y-94405515D01*
X215831296Y-94400531D01*
X215786951Y-94372031D01*
X215130805Y-93715886D01*
X215130798Y-93715880D01*
X215084122Y-93678264D01*
X214953208Y-93618477D01*
X214953204Y-93618476D01*
X214810749Y-93597996D01*
X214678007Y-93617080D01*
X214608848Y-93607136D01*
X214572680Y-93582023D01*
X213988865Y-92998208D01*
X213955380Y-92936885D01*
X213953808Y-92892885D01*
X213972893Y-92760140D01*
X213952412Y-92617683D01*
X213905662Y-92515317D01*
X213892625Y-92486769D01*
X213892624Y-92486768D01*
X213892624Y-92486767D01*
X213855005Y-92440084D01*
X213855000Y-92440079D01*
X213854996Y-92440074D01*
X212736819Y-91321898D01*
X212703334Y-91260575D01*
X212700500Y-91234217D01*
X212700500Y-53931004D01*
X212673581Y-53795677D01*
X212673580Y-53795676D01*
X212673580Y-53795672D01*
X212651126Y-53741462D01*
X212620776Y-53668191D01*
X212599814Y-53636819D01*
X212575547Y-53600500D01*
X212544114Y-53553457D01*
X212544111Y-53553453D01*
X210446545Y-51455887D01*
X210331807Y-51379222D01*
X210204332Y-51326421D01*
X210204322Y-51326418D01*
X210068996Y-51299500D01*
X210068994Y-51299500D01*
X210068993Y-51299500D01*
X184578994Y-51299500D01*
X184441006Y-51299500D01*
X184441004Y-51299500D01*
X184305677Y-51326418D01*
X184305667Y-51326421D01*
X184178192Y-51379222D01*
X184063454Y-51455887D01*
X183374668Y-52144673D01*
X183313345Y-52178158D01*
X183296716Y-52180610D01*
X183274795Y-52182335D01*
X183249093Y-52189802D01*
X183179223Y-52189601D01*
X183120554Y-52151658D01*
X183091712Y-52088019D01*
X183090500Y-52070725D01*
X183090500Y-50040096D01*
X183110185Y-49973057D01*
X183126815Y-49952419D01*
X183370318Y-49708915D01*
X183431641Y-49675431D01*
X183480783Y-49674708D01*
X183618757Y-49700500D01*
X183618759Y-49700500D01*
X183841241Y-49700500D01*
X183841243Y-49700500D01*
X184059940Y-49659618D01*
X184267401Y-49579247D01*
X184456562Y-49462124D01*
X184620981Y-49312236D01*
X184743667Y-49149772D01*
X184799776Y-49108137D01*
X184842621Y-49100500D01*
X185157379Y-49100500D01*
X185224418Y-49120185D01*
X185256333Y-49149773D01*
X185379020Y-49312238D01*
X185543437Y-49462123D01*
X185543439Y-49462125D01*
X185732595Y-49579245D01*
X185732596Y-49579245D01*
X185732599Y-49579247D01*
X185940060Y-49659618D01*
X186158757Y-49700500D01*
X186158759Y-49700500D01*
X186381241Y-49700500D01*
X186381243Y-49700500D01*
X186599940Y-49659618D01*
X186807401Y-49579247D01*
X186996562Y-49462124D01*
X187160981Y-49312236D01*
X187295058Y-49134689D01*
X187394229Y-48935528D01*
X187455115Y-48721536D01*
X187475643Y-48500000D01*
X187455115Y-48278464D01*
X187394229Y-48064472D01*
X187353421Y-47982519D01*
X187295061Y-47865316D01*
X187295056Y-47865308D01*
X187160979Y-47687761D01*
X186996562Y-47537876D01*
X186996560Y-47537874D01*
X186807404Y-47420754D01*
X186807398Y-47420752D01*
X186599940Y-47340382D01*
X186381243Y-47299500D01*
X186158757Y-47299500D01*
X185940060Y-47340382D01*
X185808864Y-47391207D01*
X185732601Y-47420752D01*
X185732595Y-47420754D01*
X185543439Y-47537874D01*
X185543437Y-47537876D01*
X185379020Y-47687761D01*
X185256333Y-47850227D01*
X185200224Y-47891863D01*
X185157379Y-47899500D01*
X184842621Y-47899500D01*
X184775582Y-47879815D01*
X184743667Y-47850227D01*
X184620979Y-47687761D01*
X184456562Y-47537876D01*
X184456560Y-47537874D01*
X184267404Y-47420754D01*
X184267398Y-47420752D01*
X184059940Y-47340382D01*
X183841243Y-47299500D01*
X183618757Y-47299500D01*
X183400060Y-47340382D01*
X183268864Y-47391207D01*
X183192601Y-47420752D01*
X183192595Y-47420754D01*
X183003439Y-47537874D01*
X183003437Y-47537876D01*
X182839020Y-47687761D01*
X182704943Y-47865308D01*
X182704938Y-47865316D01*
X182605775Y-48064461D01*
X182605769Y-48064476D01*
X182544885Y-48278462D01*
X182544884Y-48278464D01*
X182524357Y-48499999D01*
X182524357Y-48500000D01*
X182544885Y-48721537D01*
X182550270Y-48740463D01*
X182549683Y-48810330D01*
X182518685Y-48862078D01*
X182121286Y-49259478D01*
X182009481Y-49371282D01*
X182009479Y-49371285D01*
X181959361Y-49458094D01*
X181959359Y-49458096D01*
X181930425Y-49508209D01*
X181930424Y-49508210D01*
X181930423Y-49508215D01*
X181889499Y-49660943D01*
X181889499Y-49660945D01*
X181889499Y-49829046D01*
X181889500Y-49829059D01*
X181889500Y-52275500D01*
X181869815Y-52342539D01*
X181817011Y-52388294D01*
X181765500Y-52399500D01*
X179479057Y-52399500D01*
X179320942Y-52399500D01*
X179168215Y-52440423D01*
X179168214Y-52440423D01*
X179168212Y-52440424D01*
X179168209Y-52440425D01*
X179118096Y-52469359D01*
X179118095Y-52469360D01*
X179074689Y-52494420D01*
X179031285Y-52519479D01*
X179031282Y-52519481D01*
X178919478Y-52631286D01*
X176431284Y-55119481D01*
X176319483Y-55231281D01*
X176319481Y-55231284D01*
X176240423Y-55368214D01*
X176240423Y-55368215D01*
X176199499Y-55520943D01*
X176199499Y-55679057D01*
X176202063Y-55688624D01*
X176202489Y-55690214D01*
X176206714Y-55722308D01*
X176206714Y-57856203D01*
X176187029Y-57923242D01*
X176139009Y-57966688D01*
X175967960Y-58053842D01*
X175884836Y-58114236D01*
X175808720Y-58169538D01*
X175808718Y-58169540D01*
X175808717Y-58169540D01*
X175669540Y-58308717D01*
X175669540Y-58308718D01*
X175669538Y-58308720D01*
X175660798Y-58320750D01*
X175553842Y-58467960D01*
X175464483Y-58643335D01*
X175403656Y-58830539D01*
X175372866Y-59024943D01*
X175372866Y-59221788D01*
X175403656Y-59416192D01*
X175464483Y-59603396D01*
X175531385Y-59734697D01*
X175553842Y-59778771D01*
X175669538Y-59938012D01*
X176176417Y-60444891D01*
X176335657Y-60560586D01*
X176418516Y-60602804D01*
X176511031Y-60649944D01*
X176511033Y-60649944D01*
X176511036Y-60649946D01*
X176601994Y-60679500D01*
X176698235Y-60710771D01*
X176892641Y-60741562D01*
X176892646Y-60741562D01*
X177089484Y-60741562D01*
X177253759Y-60715542D01*
X177283889Y-60710771D01*
X177283889Y-60710770D01*
X177288516Y-60710038D01*
X177357809Y-60718992D01*
X177395595Y-60744830D01*
X180315139Y-63664374D01*
X180315149Y-63664385D01*
X180319479Y-63668715D01*
X180319480Y-63668716D01*
X180431284Y-63780520D01*
X180498767Y-63819481D01*
X180568215Y-63859577D01*
X180720943Y-63900500D01*
X180879057Y-63900500D01*
X183050500Y-63900500D01*
X183117539Y-63920185D01*
X183163294Y-63972989D01*
X183174500Y-64024500D01*
X183174500Y-64675500D01*
X183154815Y-64742539D01*
X183102011Y-64788294D01*
X183050500Y-64799500D01*
X178957457Y-64799500D01*
X178890418Y-64779815D01*
X178869776Y-64763181D01*
X176246739Y-62140144D01*
X176213254Y-62078821D01*
X176218238Y-62009129D01*
X176223599Y-61996834D01*
X176286888Y-61870815D01*
X176327348Y-61700103D01*
X176327348Y-61524661D01*
X176286888Y-61353948D01*
X176208151Y-61197167D01*
X176175401Y-61156965D01*
X176153285Y-61129816D01*
X176142893Y-61117059D01*
X174997369Y-59971535D01*
X174956218Y-59938012D01*
X174917263Y-59906278D01*
X174760480Y-59827540D01*
X174589767Y-59787080D01*
X174414325Y-59787080D01*
X174330134Y-59807034D01*
X174243611Y-59827540D01*
X174086829Y-59906278D01*
X174006734Y-59971526D01*
X174006716Y-59971542D01*
X173228902Y-60749356D01*
X173228886Y-60749374D01*
X173163638Y-60829469D01*
X173084900Y-60986251D01*
X173067277Y-61060611D01*
X173044440Y-61156965D01*
X163966425Y-61156965D01*
X164374189Y-60388369D01*
X164376121Y-60384870D01*
X164958330Y-59370004D01*
X164960397Y-59366536D01*
X165575843Y-58371477D01*
X165577998Y-58368121D01*
X166225965Y-57394015D01*
X166228287Y-57390648D01*
X166908100Y-56438510D01*
X166910513Y-56435243D01*
X167138122Y-56137770D01*
X172002013Y-56137770D01*
X172002013Y-56367253D01*
X172026959Y-56556727D01*
X172031965Y-56594750D01*
X172062637Y-56709219D01*
X172091355Y-56816399D01*
X172179163Y-57028388D01*
X172179169Y-57028399D01*
X172179169Y-57028400D01*
X172207178Y-57076914D01*
X172293905Y-57227129D01*
X172433594Y-57409173D01*
X172433602Y-57409182D01*
X172595843Y-57571423D01*
X172595851Y-57571430D01*
X172595852Y-57571431D01*
X172646475Y-57610276D01*
X172777895Y-57711119D01*
X172777898Y-57711120D01*
X172777901Y-57711123D01*
X172976625Y-57825856D01*
X172976630Y-57825858D01*
X172976636Y-57825861D01*
X173049889Y-57856203D01*
X173188626Y-57913670D01*
X173410275Y-57973060D01*
X173637779Y-58003012D01*
X173637786Y-58003012D01*
X173867240Y-58003012D01*
X173867247Y-58003012D01*
X174094751Y-57973060D01*
X174316400Y-57913670D01*
X174528401Y-57825856D01*
X174727125Y-57711123D01*
X174909174Y-57571431D01*
X174909178Y-57571426D01*
X174909183Y-57571423D01*
X175071424Y-57409182D01*
X175071427Y-57409177D01*
X175071432Y-57409173D01*
X175211124Y-57227124D01*
X175325857Y-57028400D01*
X175413671Y-56816399D01*
X175473061Y-56594750D01*
X175503013Y-56367246D01*
X175503013Y-56137778D01*
X175473061Y-55910274D01*
X175413671Y-55688625D01*
X175363703Y-55567992D01*
X175325862Y-55476635D01*
X175325859Y-55476629D01*
X175325857Y-55476624D01*
X175211124Y-55277900D01*
X175211121Y-55277897D01*
X175211120Y-55277894D01*
X175071431Y-55095850D01*
X175071424Y-55095842D01*
X174909183Y-54933601D01*
X174909174Y-54933593D01*
X174727130Y-54793904D01*
X174528403Y-54679169D01*
X174528389Y-54679162D01*
X174316400Y-54591354D01*
X174094751Y-54531964D01*
X174056728Y-54526958D01*
X173867254Y-54502012D01*
X173867247Y-54502012D01*
X173637779Y-54502012D01*
X173637771Y-54502012D01*
X173421228Y-54530521D01*
X173410275Y-54531964D01*
X173316589Y-54557066D01*
X173188625Y-54591354D01*
X172976636Y-54679162D01*
X172976622Y-54679169D01*
X172777895Y-54793904D01*
X172595851Y-54933593D01*
X172433594Y-55095850D01*
X172293905Y-55277894D01*
X172179170Y-55476621D01*
X172179163Y-55476635D01*
X172095319Y-55679055D01*
X172091355Y-55688625D01*
X172041535Y-55874560D01*
X172031966Y-55910271D01*
X172031964Y-55910282D01*
X172002013Y-56137770D01*
X167138122Y-56137770D01*
X167621497Y-55506023D01*
X167623951Y-55502923D01*
X168365272Y-54597713D01*
X168367911Y-54594600D01*
X168370754Y-54591354D01*
X169138690Y-53714473D01*
X169141406Y-53711474D01*
X169940889Y-52857284D01*
X169943682Y-52854397D01*
X170770995Y-52027084D01*
X170773882Y-52024291D01*
X171628072Y-51224808D01*
X171631071Y-51222092D01*
X172511213Y-50451300D01*
X172514311Y-50448674D01*
X173419521Y-49707353D01*
X173422621Y-49704899D01*
X174351841Y-48993915D01*
X174355108Y-48991502D01*
X175307246Y-48311689D01*
X175310622Y-48309362D01*
X175678771Y-48064472D01*
X176284719Y-47661400D01*
X176288075Y-47659245D01*
X177283134Y-47043799D01*
X177286602Y-47041732D01*
X178301468Y-46459523D01*
X178304967Y-46457591D01*
X179338516Y-45909261D01*
X179342078Y-45907446D01*
X180393238Y-45393565D01*
X180396835Y-45391881D01*
X181464364Y-44913057D01*
X181468042Y-44911480D01*
X182550803Y-44468220D01*
X182554570Y-44466750D01*
X183651422Y-44059522D01*
X183655195Y-44058192D01*
X184764891Y-43687460D01*
X184768714Y-43686252D01*
X185890083Y-43352406D01*
X185893932Y-43351329D01*
X187025685Y-43054753D01*
X187029637Y-43053786D01*
X188170560Y-42794795D01*
X188174571Y-42793955D01*
X189323430Y-42572828D01*
X189327387Y-42572135D01*
X190482946Y-42389112D01*
X190486921Y-42388549D01*
X191647910Y-42243832D01*
X191651969Y-42243394D01*
X192817139Y-42137140D01*
X192821106Y-42136845D01*
X193989111Y-42069175D01*
X193993139Y-42069008D01*
X195162790Y-42039992D01*
X195166778Y-42039959D01*
X196336721Y-42049632D01*
X196340805Y-42049733D01*
X197509706Y-42098080D01*
X197513800Y-42098317D01*
X198680515Y-42185288D01*
X198684501Y-42185651D01*
X199847775Y-42311158D01*
X199851773Y-42311657D01*
X201010191Y-42475547D01*
X201014145Y-42476173D01*
X202166536Y-42678280D01*
X202170539Y-42679050D01*
X203315625Y-42919149D01*
X203319507Y-42920031D01*
X204456010Y-43197855D01*
X204459947Y-43198887D01*
X205586630Y-43514131D01*
X205590516Y-43515288D01*
X206706206Y-43867627D01*
X206709995Y-43868894D01*
X207813380Y-44257913D01*
X207817187Y-44259326D01*
X208907094Y-44684609D01*
X208910841Y-44686142D01*
X209986099Y-45147233D01*
X209989835Y-45148908D01*
X211049270Y-45645302D01*
X211052866Y-45647060D01*
X211823996Y-46039971D01*
X212095314Y-46178215D01*
X212098936Y-46180137D01*
X212481539Y-46391299D01*
X213123205Y-46745440D01*
X213126708Y-46747450D01*
X213620553Y-47041717D01*
X214131767Y-47346335D01*
X214135254Y-47348492D01*
X215119912Y-47980248D01*
X215123326Y-47982519D01*
X216086572Y-48646496D01*
X216089909Y-48648879D01*
X217030657Y-49344327D01*
X217033914Y-49346819D01*
X217951169Y-50073003D01*
X217954341Y-50075601D01*
X218847061Y-50831697D01*
X218850146Y-50834398D01*
X219717404Y-51619618D01*
X219720391Y-51622413D01*
X220464734Y-52342539D01*
X220561984Y-52436625D01*
X220563445Y-52438063D01*
X220609284Y-52483902D01*
X220723412Y-52549794D01*
X220850706Y-52583902D01*
X220850708Y-52583902D01*
X220982488Y-52583902D01*
X220982490Y-52583902D01*
X221109784Y-52549794D01*
X221223912Y-52483902D01*
X221269812Y-52438001D01*
X221271153Y-52436681D01*
X222112834Y-51622385D01*
X222115752Y-51619653D01*
X222983060Y-50834387D01*
X222986134Y-50831697D01*
X223878879Y-50075579D01*
X223882000Y-50073024D01*
X224799290Y-49346811D01*
X224802538Y-49344327D01*
X224845946Y-49312238D01*
X225743312Y-48648859D01*
X225746597Y-48646514D01*
X226709879Y-47982512D01*
X226713283Y-47980248D01*
X227697951Y-47348485D01*
X227701428Y-47346335D01*
X228706512Y-46747434D01*
X228709963Y-46745455D01*
X229734268Y-46180132D01*
X229737881Y-46178215D01*
X230780353Y-45647048D01*
X230783901Y-45645314D01*
X231843382Y-45148898D01*
X231847068Y-45147245D01*
X232922375Y-44686133D01*
X232926079Y-44684617D01*
X234016028Y-44259318D01*
X234019795Y-44257920D01*
X235123218Y-43868887D01*
X235126971Y-43867633D01*
X236242696Y-43515283D01*
X236246549Y-43514136D01*
X237373262Y-43198883D01*
X237377170Y-43197859D01*
X238513701Y-42920028D01*
X238517556Y-42919152D01*
X239662667Y-42679048D01*
X239666648Y-42678282D01*
X240819059Y-42476171D01*
X240822994Y-42475549D01*
X241981430Y-42311656D01*
X241985413Y-42311159D01*
X243148700Y-42185651D01*
X243152675Y-42185288D01*
X244319399Y-42098316D01*
X244323486Y-42098080D01*
X245492391Y-42049733D01*
X245496472Y-42049632D01*
X246666417Y-42039959D01*
X246670406Y-42039992D01*
G37*
%TD.AperFunction*%
%TD*%
%TA.AperFunction,NonConductor*%
G36*
X209693039Y-54019685D02*
G01*
X209738794Y-54072489D01*
X209750000Y-54124000D01*
X209750000Y-60985500D01*
X209730315Y-61052539D01*
X209677511Y-61098294D01*
X209626000Y-61109500D01*
X208829500Y-61109500D01*
X208762461Y-61089815D01*
X208716706Y-61037011D01*
X208705500Y-60985500D01*
X208705500Y-55124008D01*
X208705499Y-55123992D01*
X208700803Y-55080316D01*
X208696897Y-55062364D01*
X208689602Y-55028825D01*
X208689348Y-55027789D01*
X208687110Y-55018627D01*
X208644100Y-54937915D01*
X208598345Y-54885111D01*
X208598339Y-54885104D01*
X208580757Y-54867160D01*
X208580756Y-54867159D01*
X208580754Y-54867157D01*
X208580752Y-54867156D01*
X208580750Y-54867154D01*
X208500940Y-54822511D01*
X208500935Y-54822509D01*
X208433903Y-54802826D01*
X208433899Y-54802825D01*
X208433898Y-54802825D01*
X208376000Y-54794500D01*
X185124000Y-54794500D01*
X185123992Y-54794500D01*
X185080313Y-54799197D01*
X185028825Y-54810397D01*
X185018627Y-54812890D01*
X185018624Y-54812891D01*
X184937916Y-54855899D01*
X184937913Y-54855901D01*
X184885104Y-54901660D01*
X184867160Y-54919242D01*
X184867154Y-54919249D01*
X184822511Y-54999059D01*
X184822509Y-54999064D01*
X184802826Y-55066096D01*
X184802825Y-55066101D01*
X184802825Y-55066102D01*
X184794502Y-55123992D01*
X184794500Y-55124003D01*
X184794500Y-57575500D01*
X184774815Y-57642539D01*
X184722011Y-57688294D01*
X184670500Y-57699500D01*
X184667885Y-57699500D01*
X184600846Y-57679815D01*
X184562838Y-57635952D01*
X184560429Y-57637344D01*
X184462534Y-57467785D01*
X184335870Y-57327111D01*
X184182734Y-57215851D01*
X184182729Y-57215848D01*
X184009807Y-57138857D01*
X184009802Y-57138855D01*
X183864001Y-57107865D01*
X183824646Y-57099500D01*
X183804000Y-57099500D01*
X183736961Y-57079815D01*
X183691206Y-57027011D01*
X183680000Y-56975500D01*
X183680000Y-54817859D01*
X183699685Y-54750820D01*
X183751593Y-54705478D01*
X183840404Y-54664065D01*
X183924065Y-54580404D01*
X183974068Y-54473173D01*
X183980500Y-54424316D01*
X183980500Y-54124000D01*
X184000185Y-54056961D01*
X184052989Y-54011206D01*
X184104500Y-54000000D01*
X209626000Y-54000000D01*
X209693039Y-54019685D01*
G37*
%TD.AperFunction*%
%TA.AperFunction,NonConductor*%
G36*
X184737539Y-58320185D02*
G01*
X184783294Y-58372989D01*
X184794500Y-58424500D01*
X184794500Y-61075500D01*
X184774815Y-61142539D01*
X184722011Y-61188294D01*
X184670500Y-61199500D01*
X183804000Y-61199500D01*
X183736961Y-61179815D01*
X183691206Y-61127011D01*
X183680000Y-61075500D01*
X183680000Y-59024500D01*
X183699685Y-58957461D01*
X183752489Y-58911706D01*
X183804000Y-58900500D01*
X183824644Y-58900500D01*
X183824646Y-58900500D01*
X184009803Y-58861144D01*
X184182730Y-58784151D01*
X184335871Y-58672888D01*
X184462533Y-58532216D01*
X184554463Y-58372989D01*
X184560429Y-58362656D01*
X184563074Y-58364183D01*
X184599603Y-58320994D01*
X184666402Y-58300509D01*
X184667885Y-58300500D01*
X184670500Y-58300500D01*
X184737539Y-58320185D01*
G37*
%TD.AperFunction*%
%TA.AperFunction,NonConductor*%
G36*
X184737539Y-61820185D02*
G01*
X184783294Y-61872989D01*
X184794500Y-61924500D01*
X184794500Y-62875500D01*
X184774815Y-62942539D01*
X184722011Y-62988294D01*
X184670500Y-62999500D01*
X183804000Y-62999500D01*
X183736961Y-62979815D01*
X183691206Y-62927011D01*
X183680000Y-62875500D01*
X183680000Y-61924500D01*
X183699685Y-61857461D01*
X183752489Y-61811706D01*
X183804000Y-61800500D01*
X184670500Y-61800500D01*
X184737539Y-61820185D01*
G37*
%TD.AperFunction*%
%TA.AperFunction,NonConductor*%
G36*
X184737539Y-63620185D02*
G01*
X184783294Y-63672989D01*
X184794500Y-63724500D01*
X184794500Y-64975500D01*
X184774815Y-65042539D01*
X184722011Y-65088294D01*
X184670500Y-65099500D01*
X183804000Y-65099500D01*
X183736961Y-65079815D01*
X183691206Y-65027011D01*
X183680000Y-64975500D01*
X183680000Y-63724500D01*
X183699685Y-63657461D01*
X183752489Y-63611706D01*
X183804000Y-63600500D01*
X184670500Y-63600500D01*
X184737539Y-63620185D01*
G37*
%TD.AperFunction*%
%TA.AperFunction,NonConductor*%
G36*
X184737539Y-65720185D02*
G01*
X184783294Y-65772989D01*
X184794500Y-65824500D01*
X184794500Y-67075500D01*
X184774815Y-67142539D01*
X184722011Y-67188294D01*
X184670500Y-67199500D01*
X184667885Y-67199500D01*
X184600846Y-67179815D01*
X184562838Y-67135952D01*
X184560429Y-67137344D01*
X184462534Y-66967785D01*
X184356660Y-66850201D01*
X184335871Y-66827112D01*
X184334755Y-66826301D01*
X184182734Y-66715851D01*
X184182729Y-66715848D01*
X184009807Y-66638857D01*
X184009802Y-66638855D01*
X183864001Y-66607865D01*
X183824646Y-66599500D01*
X183804000Y-66599500D01*
X183736961Y-66579815D01*
X183691206Y-66527011D01*
X183680000Y-66475500D01*
X183680000Y-65824500D01*
X183699685Y-65757461D01*
X183752489Y-65711706D01*
X183804000Y-65700500D01*
X184670500Y-65700500D01*
X184737539Y-65720185D01*
G37*
%TD.AperFunction*%
%TA.AperFunction,NonConductor*%
G36*
X209693039Y-61930185D02*
G01*
X209738794Y-61982989D01*
X209750000Y-62034500D01*
X209750000Y-78876000D01*
X209730315Y-78943039D01*
X209677511Y-78988794D01*
X209626000Y-79000000D01*
X202924500Y-79000000D01*
X202857461Y-78980315D01*
X202811706Y-78927511D01*
X202800500Y-78876000D01*
X202800500Y-78329500D01*
X202820185Y-78262461D01*
X202872989Y-78216706D01*
X202924500Y-78205500D01*
X208375991Y-78205500D01*
X208376000Y-78205500D01*
X208419684Y-78200803D01*
X208448875Y-78194452D01*
X208471174Y-78189602D01*
X208471190Y-78189598D01*
X208471195Y-78189597D01*
X208481373Y-78187110D01*
X208562085Y-78144100D01*
X208614889Y-78098345D01*
X208632843Y-78080754D01*
X208677490Y-78000937D01*
X208697175Y-77933898D01*
X208705500Y-77876000D01*
X208705500Y-62034500D01*
X208725185Y-61967461D01*
X208777989Y-61921706D01*
X208829500Y-61910500D01*
X209626000Y-61910500D01*
X209693039Y-61930185D01*
G37*
%TD.AperFunction*%
%TA.AperFunction,NonConductor*%
G36*
X200672539Y-78225185D02*
G01*
X200718294Y-78277989D01*
X200729500Y-78329500D01*
X200729500Y-78876000D01*
X200709815Y-78943039D01*
X200657011Y-78988794D01*
X200605500Y-79000000D01*
X199924500Y-79000000D01*
X199857461Y-78980315D01*
X199811706Y-78927511D01*
X199800500Y-78876000D01*
X199800500Y-78329500D01*
X199820185Y-78262461D01*
X199872989Y-78216706D01*
X199924500Y-78205500D01*
X200605500Y-78205500D01*
X200672539Y-78225185D01*
G37*
%TD.AperFunction*%
%TA.AperFunction,NonConductor*%
G36*
X199142539Y-78225185D02*
G01*
X199188294Y-78277989D01*
X199199500Y-78329500D01*
X199199500Y-78876000D01*
X199179815Y-78943039D01*
X199127011Y-78988794D01*
X199075500Y-79000000D01*
X198674500Y-79000000D01*
X198607461Y-78980315D01*
X198561706Y-78927511D01*
X198550500Y-78876000D01*
X198550500Y-78329500D01*
X198570185Y-78262461D01*
X198622989Y-78216706D01*
X198674500Y-78205500D01*
X199075500Y-78205500D01*
X199142539Y-78225185D01*
G37*
%TD.AperFunction*%
%TA.AperFunction,NonConductor*%
G36*
X197892539Y-78225185D02*
G01*
X197938294Y-78277989D01*
X197949500Y-78329500D01*
X197949500Y-78876000D01*
X197929815Y-78943039D01*
X197877011Y-78988794D01*
X197825500Y-79000000D01*
X197424500Y-79000000D01*
X197357461Y-78980315D01*
X197311706Y-78927511D01*
X197300500Y-78876000D01*
X197300500Y-78329500D01*
X197320185Y-78262461D01*
X197372989Y-78216706D01*
X197424500Y-78205500D01*
X197825500Y-78205500D01*
X197892539Y-78225185D01*
G37*
%TD.AperFunction*%
%TA.AperFunction,NonConductor*%
G36*
X184737539Y-67820185D02*
G01*
X184783294Y-67872989D01*
X184794500Y-67924500D01*
X184794500Y-77876007D01*
X184799197Y-77919686D01*
X184810397Y-77971174D01*
X184812890Y-77981372D01*
X184812891Y-77981375D01*
X184855899Y-78062083D01*
X184855901Y-78062086D01*
X184901660Y-78114895D01*
X184919242Y-78132839D01*
X184919246Y-78132843D01*
X184919247Y-78132844D01*
X184919249Y-78132845D01*
X184998516Y-78177184D01*
X184999063Y-78177490D01*
X185066102Y-78197175D01*
X185124000Y-78205500D01*
X185124004Y-78205500D01*
X196575500Y-78205500D01*
X196642539Y-78225185D01*
X196688294Y-78277989D01*
X196699500Y-78329500D01*
X196699500Y-78876000D01*
X196679815Y-78943039D01*
X196627011Y-78988794D01*
X196575500Y-79000000D01*
X183804000Y-79000000D01*
X183736961Y-78980315D01*
X183691206Y-78927511D01*
X183680000Y-78876000D01*
X183680000Y-68524500D01*
X183699685Y-68457461D01*
X183752489Y-68411706D01*
X183804000Y-68400500D01*
X183824644Y-68400500D01*
X183824646Y-68400500D01*
X184009803Y-68361144D01*
X184182730Y-68284151D01*
X184335871Y-68172888D01*
X184462533Y-68032216D01*
X184554463Y-67872989D01*
X184560429Y-67862656D01*
X184563074Y-67864183D01*
X184599603Y-67820994D01*
X184666402Y-67800509D01*
X184667885Y-67800500D01*
X184670500Y-67800500D01*
X184737539Y-67820185D01*
G37*
%TD.AperFunction*%
M02*
