%TF.GenerationSoftware,KiCad,Pcbnew,8.0.2*%
%TF.CreationDate,2024-12-06T21:47:19-05:00*%
%TF.ProjectId,ekg-main,656b672d-6d61-4696-9e2e-6b696361645f,rev?*%
%TF.SameCoordinates,Original*%
%TF.FileFunction,Drillmap*%
%TF.FilePolarity,Positive*%
%FSLAX45Y45*%
G04 Gerber Fmt 4.5, Leading zero omitted, Abs format (unit mm)*
G04 Created by KiCad (PCBNEW 8.0.2) date 2024-12-06 21:47:19*
%MOMM*%
%LPD*%
G01*
G04 APERTURE LIST*
%ADD10C,0.050000*%
%ADD11C,0.200000*%
%ADD12C,0.300000*%
G04 APERTURE END LIST*
D10*
X17000000Y-10300000D02*
X22088766Y-15388766D01*
X22091660Y-5208340D02*
G75*
G02*
X27183320Y-10300000I2545830J-2545830D01*
G01*
X17000000Y-10300000D02*
G75*
G02*
X22091660Y-5208340I2545830J2545830D01*
G01*
X27183320Y-10300000D02*
X22088766Y-15388766D01*
D11*
D12*
X17225251Y-5475251D02*
X17525251Y-5775251D01*
X17525251Y-5475251D02*
X17225251Y-5775251D01*
D11*
X16203759Y-15702750D02*
X16203759Y-15502750D01*
X16203759Y-15502750D02*
X16251378Y-15502750D01*
X16251378Y-15502750D02*
X16279950Y-15512274D01*
X16279950Y-15512274D02*
X16298998Y-15531321D01*
X16298998Y-15531321D02*
X16308521Y-15550369D01*
X16308521Y-15550369D02*
X16318045Y-15588464D01*
X16318045Y-15588464D02*
X16318045Y-15617036D01*
X16318045Y-15617036D02*
X16308521Y-15655131D01*
X16308521Y-15655131D02*
X16298998Y-15674178D01*
X16298998Y-15674178D02*
X16279950Y-15693226D01*
X16279950Y-15693226D02*
X16251378Y-15702750D01*
X16251378Y-15702750D02*
X16203759Y-15702750D01*
X16403759Y-15702750D02*
X16403759Y-15569416D01*
X16403759Y-15607512D02*
X16413283Y-15588464D01*
X16413283Y-15588464D02*
X16422807Y-15578940D01*
X16422807Y-15578940D02*
X16441855Y-15569416D01*
X16441855Y-15569416D02*
X16460902Y-15569416D01*
X16527569Y-15702750D02*
X16527569Y-15569416D01*
X16527569Y-15502750D02*
X16518045Y-15512274D01*
X16518045Y-15512274D02*
X16527569Y-15521797D01*
X16527569Y-15521797D02*
X16537093Y-15512274D01*
X16537093Y-15512274D02*
X16527569Y-15502750D01*
X16527569Y-15502750D02*
X16527569Y-15521797D01*
X16651378Y-15702750D02*
X16632331Y-15693226D01*
X16632331Y-15693226D02*
X16622807Y-15674178D01*
X16622807Y-15674178D02*
X16622807Y-15502750D01*
X16756140Y-15702750D02*
X16737093Y-15693226D01*
X16737093Y-15693226D02*
X16727569Y-15674178D01*
X16727569Y-15674178D02*
X16727569Y-15502750D01*
X16984712Y-15702750D02*
X16984712Y-15502750D01*
X16984712Y-15502750D02*
X17051379Y-15645607D01*
X17051379Y-15645607D02*
X17118045Y-15502750D01*
X17118045Y-15502750D02*
X17118045Y-15702750D01*
X17298998Y-15702750D02*
X17298998Y-15597988D01*
X17298998Y-15597988D02*
X17289474Y-15578940D01*
X17289474Y-15578940D02*
X17270426Y-15569416D01*
X17270426Y-15569416D02*
X17232331Y-15569416D01*
X17232331Y-15569416D02*
X17213283Y-15578940D01*
X17298998Y-15693226D02*
X17279950Y-15702750D01*
X17279950Y-15702750D02*
X17232331Y-15702750D01*
X17232331Y-15702750D02*
X17213283Y-15693226D01*
X17213283Y-15693226D02*
X17203760Y-15674178D01*
X17203760Y-15674178D02*
X17203760Y-15655131D01*
X17203760Y-15655131D02*
X17213283Y-15636083D01*
X17213283Y-15636083D02*
X17232331Y-15626559D01*
X17232331Y-15626559D02*
X17279950Y-15626559D01*
X17279950Y-15626559D02*
X17298998Y-15617036D01*
X17394236Y-15569416D02*
X17394236Y-15769416D01*
X17394236Y-15578940D02*
X17413283Y-15569416D01*
X17413283Y-15569416D02*
X17451379Y-15569416D01*
X17451379Y-15569416D02*
X17470426Y-15578940D01*
X17470426Y-15578940D02*
X17479950Y-15588464D01*
X17479950Y-15588464D02*
X17489474Y-15607512D01*
X17489474Y-15607512D02*
X17489474Y-15664655D01*
X17489474Y-15664655D02*
X17479950Y-15683702D01*
X17479950Y-15683702D02*
X17470426Y-15693226D01*
X17470426Y-15693226D02*
X17451379Y-15702750D01*
X17451379Y-15702750D02*
X17413283Y-15702750D01*
X17413283Y-15702750D02*
X17394236Y-15693226D01*
X17575188Y-15683702D02*
X17584712Y-15693226D01*
X17584712Y-15693226D02*
X17575188Y-15702750D01*
X17575188Y-15702750D02*
X17565664Y-15693226D01*
X17565664Y-15693226D02*
X17575188Y-15683702D01*
X17575188Y-15683702D02*
X17575188Y-15702750D01*
X17575188Y-15578940D02*
X17584712Y-15588464D01*
X17584712Y-15588464D02*
X17575188Y-15597988D01*
X17575188Y-15597988D02*
X17565664Y-15588464D01*
X17565664Y-15588464D02*
X17575188Y-15578940D01*
X17575188Y-15578940D02*
X17575188Y-15597988D01*
X15742983Y-15931266D02*
X15942983Y-16131266D01*
X15942983Y-15931266D02*
X15742983Y-16131266D01*
X16184712Y-15922750D02*
X16308521Y-15922750D01*
X16308521Y-15922750D02*
X16241855Y-15998940D01*
X16241855Y-15998940D02*
X16270426Y-15998940D01*
X16270426Y-15998940D02*
X16289474Y-16008464D01*
X16289474Y-16008464D02*
X16298998Y-16017988D01*
X16298998Y-16017988D02*
X16308521Y-16037036D01*
X16308521Y-16037036D02*
X16308521Y-16084655D01*
X16308521Y-16084655D02*
X16298998Y-16103702D01*
X16298998Y-16103702D02*
X16289474Y-16113226D01*
X16289474Y-16113226D02*
X16270426Y-16122750D01*
X16270426Y-16122750D02*
X16213283Y-16122750D01*
X16213283Y-16122750D02*
X16194236Y-16113226D01*
X16194236Y-16113226D02*
X16184712Y-16103702D01*
X16394236Y-16103702D02*
X16403759Y-16113226D01*
X16403759Y-16113226D02*
X16394236Y-16122750D01*
X16394236Y-16122750D02*
X16384712Y-16113226D01*
X16384712Y-16113226D02*
X16394236Y-16103702D01*
X16394236Y-16103702D02*
X16394236Y-16122750D01*
X16527569Y-15922750D02*
X16546617Y-15922750D01*
X16546617Y-15922750D02*
X16565664Y-15932274D01*
X16565664Y-15932274D02*
X16575188Y-15941797D01*
X16575188Y-15941797D02*
X16584712Y-15960845D01*
X16584712Y-15960845D02*
X16594236Y-15998940D01*
X16594236Y-15998940D02*
X16594236Y-16046559D01*
X16594236Y-16046559D02*
X16584712Y-16084655D01*
X16584712Y-16084655D02*
X16575188Y-16103702D01*
X16575188Y-16103702D02*
X16565664Y-16113226D01*
X16565664Y-16113226D02*
X16546617Y-16122750D01*
X16546617Y-16122750D02*
X16527569Y-16122750D01*
X16527569Y-16122750D02*
X16508521Y-16113226D01*
X16508521Y-16113226D02*
X16498998Y-16103702D01*
X16498998Y-16103702D02*
X16489474Y-16084655D01*
X16489474Y-16084655D02*
X16479950Y-16046559D01*
X16479950Y-16046559D02*
X16479950Y-15998940D01*
X16479950Y-15998940D02*
X16489474Y-15960845D01*
X16489474Y-15960845D02*
X16498998Y-15941797D01*
X16498998Y-15941797D02*
X16508521Y-15932274D01*
X16508521Y-15932274D02*
X16527569Y-15922750D01*
X16718045Y-15922750D02*
X16737093Y-15922750D01*
X16737093Y-15922750D02*
X16756140Y-15932274D01*
X16756140Y-15932274D02*
X16765664Y-15941797D01*
X16765664Y-15941797D02*
X16775188Y-15960845D01*
X16775188Y-15960845D02*
X16784712Y-15998940D01*
X16784712Y-15998940D02*
X16784712Y-16046559D01*
X16784712Y-16046559D02*
X16775188Y-16084655D01*
X16775188Y-16084655D02*
X16765664Y-16103702D01*
X16765664Y-16103702D02*
X16756140Y-16113226D01*
X16756140Y-16113226D02*
X16737093Y-16122750D01*
X16737093Y-16122750D02*
X16718045Y-16122750D01*
X16718045Y-16122750D02*
X16698998Y-16113226D01*
X16698998Y-16113226D02*
X16689474Y-16103702D01*
X16689474Y-16103702D02*
X16679950Y-16084655D01*
X16679950Y-16084655D02*
X16670426Y-16046559D01*
X16670426Y-16046559D02*
X16670426Y-15998940D01*
X16670426Y-15998940D02*
X16679950Y-15960845D01*
X16679950Y-15960845D02*
X16689474Y-15941797D01*
X16689474Y-15941797D02*
X16698998Y-15932274D01*
X16698998Y-15932274D02*
X16718045Y-15922750D01*
X16908521Y-15922750D02*
X16927569Y-15922750D01*
X16927569Y-15922750D02*
X16946617Y-15932274D01*
X16946617Y-15932274D02*
X16956141Y-15941797D01*
X16956141Y-15941797D02*
X16965664Y-15960845D01*
X16965664Y-15960845D02*
X16975188Y-15998940D01*
X16975188Y-15998940D02*
X16975188Y-16046559D01*
X16975188Y-16046559D02*
X16965664Y-16084655D01*
X16965664Y-16084655D02*
X16956141Y-16103702D01*
X16956141Y-16103702D02*
X16946617Y-16113226D01*
X16946617Y-16113226D02*
X16927569Y-16122750D01*
X16927569Y-16122750D02*
X16908521Y-16122750D01*
X16908521Y-16122750D02*
X16889474Y-16113226D01*
X16889474Y-16113226D02*
X16879950Y-16103702D01*
X16879950Y-16103702D02*
X16870426Y-16084655D01*
X16870426Y-16084655D02*
X16860902Y-16046559D01*
X16860902Y-16046559D02*
X16860902Y-15998940D01*
X16860902Y-15998940D02*
X16870426Y-15960845D01*
X16870426Y-15960845D02*
X16879950Y-15941797D01*
X16879950Y-15941797D02*
X16889474Y-15932274D01*
X16889474Y-15932274D02*
X16908521Y-15922750D01*
X17060902Y-16122750D02*
X17060902Y-15989416D01*
X17060902Y-16008464D02*
X17070426Y-15998940D01*
X17070426Y-15998940D02*
X17089474Y-15989416D01*
X17089474Y-15989416D02*
X17118045Y-15989416D01*
X17118045Y-15989416D02*
X17137093Y-15998940D01*
X17137093Y-15998940D02*
X17146617Y-16017988D01*
X17146617Y-16017988D02*
X17146617Y-16122750D01*
X17146617Y-16017988D02*
X17156141Y-15998940D01*
X17156141Y-15998940D02*
X17175188Y-15989416D01*
X17175188Y-15989416D02*
X17203760Y-15989416D01*
X17203760Y-15989416D02*
X17222807Y-15998940D01*
X17222807Y-15998940D02*
X17232331Y-16017988D01*
X17232331Y-16017988D02*
X17232331Y-16122750D01*
X17327569Y-16122750D02*
X17327569Y-15989416D01*
X17327569Y-16008464D02*
X17337093Y-15998940D01*
X17337093Y-15998940D02*
X17356141Y-15989416D01*
X17356141Y-15989416D02*
X17384712Y-15989416D01*
X17384712Y-15989416D02*
X17403760Y-15998940D01*
X17403760Y-15998940D02*
X17413283Y-16017988D01*
X17413283Y-16017988D02*
X17413283Y-16122750D01*
X17413283Y-16017988D02*
X17422807Y-15998940D01*
X17422807Y-15998940D02*
X17441855Y-15989416D01*
X17441855Y-15989416D02*
X17470426Y-15989416D01*
X17470426Y-15989416D02*
X17489474Y-15998940D01*
X17489474Y-15998940D02*
X17498998Y-16017988D01*
X17498998Y-16017988D02*
X17498998Y-16122750D01*
X17889474Y-15913226D02*
X17718045Y-16170369D01*
X18146617Y-15922750D02*
X18165665Y-15922750D01*
X18165665Y-15922750D02*
X18184712Y-15932274D01*
X18184712Y-15932274D02*
X18194236Y-15941797D01*
X18194236Y-15941797D02*
X18203760Y-15960845D01*
X18203760Y-15960845D02*
X18213284Y-15998940D01*
X18213284Y-15998940D02*
X18213284Y-16046559D01*
X18213284Y-16046559D02*
X18203760Y-16084655D01*
X18203760Y-16084655D02*
X18194236Y-16103702D01*
X18194236Y-16103702D02*
X18184712Y-16113226D01*
X18184712Y-16113226D02*
X18165665Y-16122750D01*
X18165665Y-16122750D02*
X18146617Y-16122750D01*
X18146617Y-16122750D02*
X18127569Y-16113226D01*
X18127569Y-16113226D02*
X18118045Y-16103702D01*
X18118045Y-16103702D02*
X18108522Y-16084655D01*
X18108522Y-16084655D02*
X18098998Y-16046559D01*
X18098998Y-16046559D02*
X18098998Y-15998940D01*
X18098998Y-15998940D02*
X18108522Y-15960845D01*
X18108522Y-15960845D02*
X18118045Y-15941797D01*
X18118045Y-15941797D02*
X18127569Y-15932274D01*
X18127569Y-15932274D02*
X18146617Y-15922750D01*
X18298998Y-16103702D02*
X18308522Y-16113226D01*
X18308522Y-16113226D02*
X18298998Y-16122750D01*
X18298998Y-16122750D02*
X18289474Y-16113226D01*
X18289474Y-16113226D02*
X18298998Y-16103702D01*
X18298998Y-16103702D02*
X18298998Y-16122750D01*
X18498998Y-16122750D02*
X18384712Y-16122750D01*
X18441855Y-16122750D02*
X18441855Y-15922750D01*
X18441855Y-15922750D02*
X18422807Y-15951321D01*
X18422807Y-15951321D02*
X18403760Y-15970369D01*
X18403760Y-15970369D02*
X18384712Y-15979893D01*
X18689474Y-16122750D02*
X18575188Y-16122750D01*
X18632331Y-16122750D02*
X18632331Y-15922750D01*
X18632331Y-15922750D02*
X18613284Y-15951321D01*
X18613284Y-15951321D02*
X18594236Y-15970369D01*
X18594236Y-15970369D02*
X18575188Y-15979893D01*
X18803760Y-16008464D02*
X18784712Y-15998940D01*
X18784712Y-15998940D02*
X18775188Y-15989416D01*
X18775188Y-15989416D02*
X18765665Y-15970369D01*
X18765665Y-15970369D02*
X18765665Y-15960845D01*
X18765665Y-15960845D02*
X18775188Y-15941797D01*
X18775188Y-15941797D02*
X18784712Y-15932274D01*
X18784712Y-15932274D02*
X18803760Y-15922750D01*
X18803760Y-15922750D02*
X18841855Y-15922750D01*
X18841855Y-15922750D02*
X18860903Y-15932274D01*
X18860903Y-15932274D02*
X18870426Y-15941797D01*
X18870426Y-15941797D02*
X18879950Y-15960845D01*
X18879950Y-15960845D02*
X18879950Y-15970369D01*
X18879950Y-15970369D02*
X18870426Y-15989416D01*
X18870426Y-15989416D02*
X18860903Y-15998940D01*
X18860903Y-15998940D02*
X18841855Y-16008464D01*
X18841855Y-16008464D02*
X18803760Y-16008464D01*
X18803760Y-16008464D02*
X18784712Y-16017988D01*
X18784712Y-16017988D02*
X18775188Y-16027512D01*
X18775188Y-16027512D02*
X18765665Y-16046559D01*
X18765665Y-16046559D02*
X18765665Y-16084655D01*
X18765665Y-16084655D02*
X18775188Y-16103702D01*
X18775188Y-16103702D02*
X18784712Y-16113226D01*
X18784712Y-16113226D02*
X18803760Y-16122750D01*
X18803760Y-16122750D02*
X18841855Y-16122750D01*
X18841855Y-16122750D02*
X18860903Y-16113226D01*
X18860903Y-16113226D02*
X18870426Y-16103702D01*
X18870426Y-16103702D02*
X18879950Y-16084655D01*
X18879950Y-16084655D02*
X18879950Y-16046559D01*
X18879950Y-16046559D02*
X18870426Y-16027512D01*
X18870426Y-16027512D02*
X18860903Y-16017988D01*
X18860903Y-16017988D02*
X18841855Y-16008464D01*
X19070426Y-16122750D02*
X18956141Y-16122750D01*
X19013284Y-16122750D02*
X19013284Y-15922750D01*
X19013284Y-15922750D02*
X18994236Y-15951321D01*
X18994236Y-15951321D02*
X18975188Y-15970369D01*
X18975188Y-15970369D02*
X18956141Y-15979893D01*
X19146617Y-15922750D02*
X19146617Y-15960845D01*
X19222807Y-15922750D02*
X19222807Y-15960845D01*
X19518046Y-16198940D02*
X19508522Y-16189416D01*
X19508522Y-16189416D02*
X19489474Y-16160845D01*
X19489474Y-16160845D02*
X19479950Y-16141797D01*
X19479950Y-16141797D02*
X19470427Y-16113226D01*
X19470427Y-16113226D02*
X19460903Y-16065607D01*
X19460903Y-16065607D02*
X19460903Y-16027512D01*
X19460903Y-16027512D02*
X19470427Y-15979893D01*
X19470427Y-15979893D02*
X19479950Y-15951321D01*
X19479950Y-15951321D02*
X19489474Y-15932274D01*
X19489474Y-15932274D02*
X19508522Y-15903702D01*
X19508522Y-15903702D02*
X19518046Y-15894178D01*
X19698998Y-16122750D02*
X19584712Y-16122750D01*
X19641855Y-16122750D02*
X19641855Y-15922750D01*
X19641855Y-15922750D02*
X19622807Y-15951321D01*
X19622807Y-15951321D02*
X19603760Y-15970369D01*
X19603760Y-15970369D02*
X19584712Y-15979893D01*
X19937093Y-16122750D02*
X19937093Y-15922750D01*
X20022808Y-16122750D02*
X20022808Y-16017988D01*
X20022808Y-16017988D02*
X20013284Y-15998940D01*
X20013284Y-15998940D02*
X19994236Y-15989416D01*
X19994236Y-15989416D02*
X19965665Y-15989416D01*
X19965665Y-15989416D02*
X19946617Y-15998940D01*
X19946617Y-15998940D02*
X19937093Y-16008464D01*
X20146617Y-16122750D02*
X20127569Y-16113226D01*
X20127569Y-16113226D02*
X20118046Y-16103702D01*
X20118046Y-16103702D02*
X20108522Y-16084655D01*
X20108522Y-16084655D02*
X20108522Y-16027512D01*
X20108522Y-16027512D02*
X20118046Y-16008464D01*
X20118046Y-16008464D02*
X20127569Y-15998940D01*
X20127569Y-15998940D02*
X20146617Y-15989416D01*
X20146617Y-15989416D02*
X20175189Y-15989416D01*
X20175189Y-15989416D02*
X20194236Y-15998940D01*
X20194236Y-15998940D02*
X20203760Y-16008464D01*
X20203760Y-16008464D02*
X20213284Y-16027512D01*
X20213284Y-16027512D02*
X20213284Y-16084655D01*
X20213284Y-16084655D02*
X20203760Y-16103702D01*
X20203760Y-16103702D02*
X20194236Y-16113226D01*
X20194236Y-16113226D02*
X20175189Y-16122750D01*
X20175189Y-16122750D02*
X20146617Y-16122750D01*
X20327569Y-16122750D02*
X20308522Y-16113226D01*
X20308522Y-16113226D02*
X20298998Y-16094178D01*
X20298998Y-16094178D02*
X20298998Y-15922750D01*
X20479950Y-16113226D02*
X20460903Y-16122750D01*
X20460903Y-16122750D02*
X20422808Y-16122750D01*
X20422808Y-16122750D02*
X20403760Y-16113226D01*
X20403760Y-16113226D02*
X20394236Y-16094178D01*
X20394236Y-16094178D02*
X20394236Y-16017988D01*
X20394236Y-16017988D02*
X20403760Y-15998940D01*
X20403760Y-15998940D02*
X20422808Y-15989416D01*
X20422808Y-15989416D02*
X20460903Y-15989416D01*
X20460903Y-15989416D02*
X20479950Y-15998940D01*
X20479950Y-15998940D02*
X20489474Y-16017988D01*
X20489474Y-16017988D02*
X20489474Y-16037036D01*
X20489474Y-16037036D02*
X20394236Y-16056083D01*
X20556141Y-16198940D02*
X20565665Y-16189416D01*
X20565665Y-16189416D02*
X20584712Y-16160845D01*
X20584712Y-16160845D02*
X20594236Y-16141797D01*
X20594236Y-16141797D02*
X20603760Y-16113226D01*
X20603760Y-16113226D02*
X20613284Y-16065607D01*
X20613284Y-16065607D02*
X20613284Y-16027512D01*
X20613284Y-16027512D02*
X20603760Y-15979893D01*
X20603760Y-15979893D02*
X20594236Y-15951321D01*
X20594236Y-15951321D02*
X20584712Y-15932274D01*
X20584712Y-15932274D02*
X20565665Y-15903702D01*
X20565665Y-15903702D02*
X20556141Y-15894178D01*
X20918046Y-16198940D02*
X20908522Y-16189416D01*
X20908522Y-16189416D02*
X20889474Y-16160845D01*
X20889474Y-16160845D02*
X20879950Y-16141797D01*
X20879950Y-16141797D02*
X20870427Y-16113226D01*
X20870427Y-16113226D02*
X20860903Y-16065607D01*
X20860903Y-16065607D02*
X20860903Y-16027512D01*
X20860903Y-16027512D02*
X20870427Y-15979893D01*
X20870427Y-15979893D02*
X20879950Y-15951321D01*
X20879950Y-15951321D02*
X20889474Y-15932274D01*
X20889474Y-15932274D02*
X20908522Y-15903702D01*
X20908522Y-15903702D02*
X20918046Y-15894178D01*
X20994236Y-15989416D02*
X20994236Y-16122750D01*
X20994236Y-16008464D02*
X21003760Y-15998940D01*
X21003760Y-15998940D02*
X21022808Y-15989416D01*
X21022808Y-15989416D02*
X21051379Y-15989416D01*
X21051379Y-15989416D02*
X21070427Y-15998940D01*
X21070427Y-15998940D02*
X21079950Y-16017988D01*
X21079950Y-16017988D02*
X21079950Y-16122750D01*
X21203760Y-16122750D02*
X21184712Y-16113226D01*
X21184712Y-16113226D02*
X21175189Y-16103702D01*
X21175189Y-16103702D02*
X21165665Y-16084655D01*
X21165665Y-16084655D02*
X21165665Y-16027512D01*
X21165665Y-16027512D02*
X21175189Y-16008464D01*
X21175189Y-16008464D02*
X21184712Y-15998940D01*
X21184712Y-15998940D02*
X21203760Y-15989416D01*
X21203760Y-15989416D02*
X21232331Y-15989416D01*
X21232331Y-15989416D02*
X21251379Y-15998940D01*
X21251379Y-15998940D02*
X21260903Y-16008464D01*
X21260903Y-16008464D02*
X21270427Y-16027512D01*
X21270427Y-16027512D02*
X21270427Y-16084655D01*
X21270427Y-16084655D02*
X21260903Y-16103702D01*
X21260903Y-16103702D02*
X21251379Y-16113226D01*
X21251379Y-16113226D02*
X21232331Y-16122750D01*
X21232331Y-16122750D02*
X21203760Y-16122750D01*
X21327570Y-15989416D02*
X21403760Y-15989416D01*
X21356141Y-15922750D02*
X21356141Y-16094178D01*
X21356141Y-16094178D02*
X21365665Y-16113226D01*
X21365665Y-16113226D02*
X21384712Y-16122750D01*
X21384712Y-16122750D02*
X21403760Y-16122750D01*
X21622808Y-15989416D02*
X21622808Y-16189416D01*
X21622808Y-15998940D02*
X21641855Y-15989416D01*
X21641855Y-15989416D02*
X21679951Y-15989416D01*
X21679951Y-15989416D02*
X21698998Y-15998940D01*
X21698998Y-15998940D02*
X21708522Y-16008464D01*
X21708522Y-16008464D02*
X21718046Y-16027512D01*
X21718046Y-16027512D02*
X21718046Y-16084655D01*
X21718046Y-16084655D02*
X21708522Y-16103702D01*
X21708522Y-16103702D02*
X21698998Y-16113226D01*
X21698998Y-16113226D02*
X21679951Y-16122750D01*
X21679951Y-16122750D02*
X21641855Y-16122750D01*
X21641855Y-16122750D02*
X21622808Y-16113226D01*
X21832331Y-16122750D02*
X21813284Y-16113226D01*
X21813284Y-16113226D02*
X21803760Y-16094178D01*
X21803760Y-16094178D02*
X21803760Y-15922750D01*
X21994236Y-16122750D02*
X21994236Y-16017988D01*
X21994236Y-16017988D02*
X21984712Y-15998940D01*
X21984712Y-15998940D02*
X21965665Y-15989416D01*
X21965665Y-15989416D02*
X21927570Y-15989416D01*
X21927570Y-15989416D02*
X21908522Y-15998940D01*
X21994236Y-16113226D02*
X21975189Y-16122750D01*
X21975189Y-16122750D02*
X21927570Y-16122750D01*
X21927570Y-16122750D02*
X21908522Y-16113226D01*
X21908522Y-16113226D02*
X21898998Y-16094178D01*
X21898998Y-16094178D02*
X21898998Y-16075131D01*
X21898998Y-16075131D02*
X21908522Y-16056083D01*
X21908522Y-16056083D02*
X21927570Y-16046559D01*
X21927570Y-16046559D02*
X21975189Y-16046559D01*
X21975189Y-16046559D02*
X21994236Y-16037036D01*
X22060903Y-15989416D02*
X22137093Y-15989416D01*
X22089474Y-15922750D02*
X22089474Y-16094178D01*
X22089474Y-16094178D02*
X22098998Y-16113226D01*
X22098998Y-16113226D02*
X22118046Y-16122750D01*
X22118046Y-16122750D02*
X22137093Y-16122750D01*
X22279951Y-16113226D02*
X22260903Y-16122750D01*
X22260903Y-16122750D02*
X22222808Y-16122750D01*
X22222808Y-16122750D02*
X22203760Y-16113226D01*
X22203760Y-16113226D02*
X22194236Y-16094178D01*
X22194236Y-16094178D02*
X22194236Y-16017988D01*
X22194236Y-16017988D02*
X22203760Y-15998940D01*
X22203760Y-15998940D02*
X22222808Y-15989416D01*
X22222808Y-15989416D02*
X22260903Y-15989416D01*
X22260903Y-15989416D02*
X22279951Y-15998940D01*
X22279951Y-15998940D02*
X22289474Y-16017988D01*
X22289474Y-16017988D02*
X22289474Y-16037036D01*
X22289474Y-16037036D02*
X22194236Y-16056083D01*
X22460903Y-16122750D02*
X22460903Y-15922750D01*
X22460903Y-16113226D02*
X22441855Y-16122750D01*
X22441855Y-16122750D02*
X22403760Y-16122750D01*
X22403760Y-16122750D02*
X22384712Y-16113226D01*
X22384712Y-16113226D02*
X22375189Y-16103702D01*
X22375189Y-16103702D02*
X22365665Y-16084655D01*
X22365665Y-16084655D02*
X22365665Y-16027512D01*
X22365665Y-16027512D02*
X22375189Y-16008464D01*
X22375189Y-16008464D02*
X22384712Y-15998940D01*
X22384712Y-15998940D02*
X22403760Y-15989416D01*
X22403760Y-15989416D02*
X22441855Y-15989416D01*
X22441855Y-15989416D02*
X22460903Y-15998940D01*
X22537093Y-16198940D02*
X22546617Y-16189416D01*
X22546617Y-16189416D02*
X22565665Y-16160845D01*
X22565665Y-16160845D02*
X22575189Y-16141797D01*
X22575189Y-16141797D02*
X22584712Y-16113226D01*
X22584712Y-16113226D02*
X22594236Y-16065607D01*
X22594236Y-16065607D02*
X22594236Y-16027512D01*
X22594236Y-16027512D02*
X22584712Y-15979893D01*
X22584712Y-15979893D02*
X22575189Y-15951321D01*
X22575189Y-15951321D02*
X22565665Y-15932274D01*
X22565665Y-15932274D02*
X22546617Y-15903702D01*
X22546617Y-15903702D02*
X22537093Y-15894178D01*
M02*
