M48
; DRILL file {KiCad 8.0.2} date 2024-12-06T21:47:19-0500
; FORMAT={-:-/ absolute / metric / decimal}
; #@! TF.CreationDate,2024-12-06T21:47:19-05:00
; #@! TF.GenerationSoftware,Kicad,Pcbnew,8.0.2
; #@! TF.FileFunction,Plated,1,2,PTH
FMAT,2
METRIC
; #@! TA.AperFunction,Plated,PTH,ComponentDrill
T1C0.200
; #@! TA.AperFunction,Plated,PTH,ViaDrill
T2C0.300
; #@! TA.AperFunction,Plated,PTH,ComponentDrill
T3C0.700
; #@! TA.AperFunction,Plated,PTH,ComponentDrill
T4C1.000
; #@! TA.AperFunction,Plated,PTH,ComponentDrill
T5C1.020
%
G90
G05
T1
X201.5Y-114.422
X201.5Y-115.5
X202.578Y-113.343
X202.578Y-114.422
X202.578Y-115.5
X202.578Y-116.578
X203.657Y-113.343
X203.657Y-114.422
X203.657Y-115.5
X203.657Y-116.578
X204.735Y-114.422
X204.735Y-115.5
T2
X182.0Y-58.0
X182.0Y-62.4
X182.0Y-64.4
X186.25Y-56.0
X186.25Y-60.25
X186.25Y-62.5
X186.25Y-64.25
X186.25Y-71.0
X186.25Y-73.0
X186.25Y-75.0
X186.25Y-77.0
X188.0Y-83.5
X188.25Y-56.0
X188.25Y-77.0
X190.0Y-92.0
X190.25Y-56.0
X190.25Y-77.0
X192.0Y-58.5
X192.25Y-56.0
X192.25Y-77.0
X192.8Y-66.2
X194.0Y-60.0
X194.25Y-56.0
X194.25Y-77.0
X194.809Y-113.441
X195.0Y-67.5
X195.5Y-58.5
X195.5Y-71.0
X196.0Y-60.5
X196.0Y-67.0
X196.25Y-56.0
X197.0Y-61.5
X197.0Y-73.6
X197.8Y-69.0
X197.8Y-71.0
X198.0Y-62.0
X198.0Y-67.01
X198.0Y-68.0
X198.25Y-56.0
X198.25Y-73.624
X198.6Y-63.4
X199.5Y-73.6
X199.551Y-64.8
X200.25Y-56.0
X200.4Y-64.8
X201.13Y-68.2
X201.13Y-69.8
X201.13Y-71.4
X201.13Y-73.0
X201.13Y-74.6
X201.13Y-76.2
X201.13Y-77.8
X201.13Y-79.4
X201.13Y-81.0
X201.13Y-82.6
X201.13Y-84.2
X201.13Y-85.8
X201.13Y-87.4
X201.13Y-89.0
X201.13Y-90.6
X201.13Y-92.2
X201.13Y-93.8
X201.13Y-95.4
X201.13Y-97.0
X201.13Y-98.6
X202.0Y-60.5
X202.0Y-62.5
X202.25Y-56.0
X202.4Y-69.0
X202.4Y-70.6
X202.4Y-72.2
X202.4Y-73.8
X202.4Y-75.4
X202.4Y-77.0
X202.4Y-80.2
X202.4Y-81.8
X202.4Y-83.4
X202.4Y-85.0
X202.4Y-86.6
X202.4Y-88.2
X202.4Y-89.8
X202.4Y-91.4
X202.4Y-93.0
X202.4Y-94.6
X202.4Y-96.2
X202.4Y-97.8
X202.4Y-99.4
X204.25Y-56.0
X205.25Y-77.0
X206.5Y-60.5
X206.5Y-62.5
X207.25Y-69.0
X207.25Y-71.0
X207.25Y-73.0
X207.25Y-75.0
X207.25Y-77.0
X211.0Y-60.5
X211.0Y-62.5
X211.0Y-95.5
X212.0Y-128.0
X215.0Y-121.0
X215.0Y-124.8
X217.5Y-118.5
X217.912Y-93.412
X219.287Y-92.037
T3
X166.23Y-67.5
X166.23Y-75.833
X166.23Y-84.167
X166.23Y-92.5
X168.77Y-67.5
X168.77Y-75.833
X168.77Y-84.167
X168.77Y-92.5
X183.73Y-48.5
X183.73Y-58.0
X183.73Y-67.5
X186.27Y-48.5
X186.27Y-58.0
X186.27Y-67.5
X201.73Y-66.0
X204.27Y-66.0
T4
X223.225Y-95.5
X225.765Y-95.5
X260.704Y-104.704
X262.5Y-106.5
T5
X174.686Y-61.429
X176.807Y-59.307
X178.929Y-57.186
T4
G00X248.05Y-106.214
M15
G01X249.464Y-104.8
M16
G05
G00X252.293Y-110.457
M15
G01X253.707Y-109.043
M16
G05
G00X254.909Y-105.012
M15
G01X253.495Y-103.598
M16
G05
M30
